<svg version="1.1" xmlns="http://www.w3.org/2000/svg" xmlns:xlink="http://www.w3.org/1999/xlink" width="1092" height="484"><defs/><g><text fill="#eeeeee" stroke="none" font-family="Arial" font-size="24px" font-style="normal" font-weight="normal" text-decoration="none" x="0" y="0">UNREGISTERED</text><text fill="#eeeeee" stroke="none" font-family="Arial" font-size="24px" font-style="normal" font-weight="normal" text-decoration="none" x="0" y="30">UNREGISTERED</text><text fill="#eeeeee" stroke="none" font-family="Arial" font-size="24px" font-style="normal" font-weight="normal" text-decoration="none" x="0" y="60">UNREGISTERED</text><text fill="#eeeeee" stroke="none" font-family="Arial" font-size="24px" font-style="normal" font-weight="normal" text-decoration="none" x="0" y="90">UNREGISTERED</text><text fill="#eeeeee" stroke="none" font-family="Arial" font-size="24px" font-style="normal" font-weight="normal" text-decoration="none" x="0" y="120">UNREGISTERED</text><text fill="#eeeeee" stroke="none" font-family="Arial" font-size="24px" font-style="normal" font-weight="normal" text-decoration="none" x="0" y="150">UNREGISTERED</text><text fill="#eeeeee" stroke="none" font-family="Arial" font-size="24px" font-style="normal" font-weight="normal" text-decoration="none" x="0" y="180">UNREGISTERED</text><text fill="#eeeeee" stroke="none" font-family="Arial" font-size="24px" font-style="normal" font-weight="normal" text-decoration="none" x="0" y="210">UNREGISTERED</text><text fill="#eeeeee" stroke="none" font-family="Arial" font-size="24px" font-style="normal" font-weight="normal" text-decoration="none" x="0" y="240">UNREGISTERED</text><text fill="#eeeeee" stroke="none" font-family="Arial" font-size="24px" font-style="normal" font-weight="normal" text-decoration="none" x="0" y="270">UNREGISTERED</text><text fill="#eeeeee" stroke="none" font-family="Arial" font-size="24px" font-style="normal" font-weight="normal" text-decoration="none" x="0" y="300">UNREGISTERED</text><text fill="#eeeeee" stroke="none" font-family="Arial" font-size="24px" font-style="normal" font-weight="normal" text-decoration="none" x="0" y="330">UNREGISTERED</text><text fill="#eeeeee" stroke="none" font-family="Arial" font-size="24px" font-style="normal" font-weight="normal" text-decoration="none" x="0" y="360">UNREGISTERED</text><text fill="#eeeeee" stroke="none" font-family="Arial" font-size="24px" font-style="normal" font-weight="normal" text-decoration="none" x="0" y="390">UNREGISTERED</text><text fill="#eeeeee" stroke="none" font-family="Arial" font-size="24px" font-style="normal" font-weight="normal" text-decoration="none" x="0" y="420">UNREGISTERED</text><text fill="#eeeeee" stroke="none" font-family="Arial" font-size="24px" font-style="normal" font-weight="normal" text-decoration="none" x="0" y="450">UNREGISTERED</text><text fill="#eeeeee" stroke="none" font-family="Arial" font-size="24px" font-style="normal" font-weight="normal" text-decoration="none" x="0" y="480">UNREGISTERED</text><text fill="#eeeeee" stroke="none" font-family="Arial" font-size="24px" font-style="normal" font-weight="normal" text-decoration="none" x="200" y="0">UNREGISTERED</text><text fill="#eeeeee" stroke="none" font-family="Arial" font-size="24px" font-style="normal" font-weight="normal" text-decoration="none" x="200" y="30">UNREGISTERED</text><text fill="#eeeeee" stroke="none" font-family="Arial" font-size="24px" font-style="normal" font-weight="normal" text-decoration="none" x="200" y="60">UNREGISTERED</text><text fill="#eeeeee" stroke="none" font-family="Arial" font-size="24px" font-style="normal" font-weight="normal" text-decoration="none" x="200" y="90">UNREGISTERED</text><text fill="#eeeeee" stroke="none" font-family="Arial" font-size="24px" font-style="normal" font-weight="normal" text-decoration="none" x="200" y="120">UNREGISTERED</text><text fill="#eeeeee" stroke="none" font-family="Arial" font-size="24px" font-style="normal" font-weight="normal" text-decoration="none" x="200" y="150">UNREGISTERED</text><text fill="#eeeeee" stroke="none" font-family="Arial" font-size="24px" font-style="normal" font-weight="normal" text-decoration="none" x="200" y="180">UNREGISTERED</text><text fill="#eeeeee" stroke="none" font-family="Arial" font-size="24px" font-style="normal" font-weight="normal" text-decoration="none" x="200" y="210">UNREGISTERED</text><text fill="#eeeeee" stroke="none" font-family="Arial" font-size="24px" font-style="normal" font-weight="normal" text-decoration="none" x="200" y="240">UNREGISTERED</text><text fill="#eeeeee" stroke="none" font-family="Arial" font-size="24px" font-style="normal" font-weight="normal" text-decoration="none" x="200" y="270">UNREGISTERED</text><text fill="#eeeeee" stroke="none" font-family="Arial" font-size="24px" font-style="normal" font-weight="normal" text-decoration="none" x="200" y="300">UNREGISTERED</text><text fill="#eeeeee" stroke="none" font-family="Arial" font-size="24px" font-style="normal" font-weight="normal" text-decoration="none" x="200" y="330">UNREGISTERED</text><text fill="#eeeeee" stroke="none" font-family="Arial" font-size="24px" font-style="normal" font-weight="normal" text-decoration="none" x="200" y="360">UNREGISTERED</text><text fill="#eeeeee" stroke="none" font-family="Arial" font-size="24px" font-style="normal" font-weight="normal" text-decoration="none" x="200" y="390">UNREGISTERED</text><text fill="#eeeeee" stroke="none" font-family="Arial" font-size="24px" font-style="normal" font-weight="normal" text-decoration="none" x="200" y="420">UNREGISTERED</text><text fill="#eeeeee" stroke="none" font-family="Arial" font-size="24px" font-style="normal" font-weight="normal" text-decoration="none" x="200" y="450">UNREGISTERED</text><text fill="#eeeeee" stroke="none" font-family="Arial" font-size="24px" font-style="normal" font-weight="normal" text-decoration="none" x="200" y="480">UNREGISTERED</text><text fill="#eeeeee" stroke="none" font-family="Arial" font-size="24px" font-style="normal" font-weight="normal" text-decoration="none" x="400" y="0">UNREGISTERED</text><text fill="#eeeeee" stroke="none" font-family="Arial" font-size="24px" font-style="normal" font-weight="normal" text-decoration="none" x="400" y="30">UNREGISTERED</text><text fill="#eeeeee" stroke="none" font-family="Arial" font-size="24px" font-style="normal" font-weight="normal" text-decoration="none" x="400" y="60">UNREGISTERED</text><text fill="#eeeeee" stroke="none" font-family="Arial" font-size="24px" font-style="normal" font-weight="normal" text-decoration="none" x="400" y="90">UNREGISTERED</text><text fill="#eeeeee" stroke="none" font-family="Arial" font-size="24px" font-style="normal" font-weight="normal" text-decoration="none" x="400" y="120">UNREGISTERED</text><text fill="#eeeeee" stroke="none" font-family="Arial" font-size="24px" font-style="normal" font-weight="normal" text-decoration="none" x="400" y="150">UNREGISTERED</text><text fill="#eeeeee" stroke="none" font-family="Arial" font-size="24px" font-style="normal" font-weight="normal" text-decoration="none" x="400" y="180">UNREGISTERED</text><text fill="#eeeeee" stroke="none" font-family="Arial" font-size="24px" font-style="normal" font-weight="normal" text-decoration="none" x="400" y="210">UNREGISTERED</text><text fill="#eeeeee" stroke="none" font-family="Arial" font-size="24px" font-style="normal" font-weight="normal" text-decoration="none" x="400" y="240">UNREGISTERED</text><text fill="#eeeeee" stroke="none" font-family="Arial" font-size="24px" font-style="normal" font-weight="normal" text-decoration="none" x="400" y="270">UNREGISTERED</text><text fill="#eeeeee" stroke="none" font-family="Arial" font-size="24px" font-style="normal" font-weight="normal" text-decoration="none" x="400" y="300">UNREGISTERED</text><text fill="#eeeeee" stroke="none" font-family="Arial" font-size="24px" font-style="normal" font-weight="normal" text-decoration="none" x="400" y="330">UNREGISTERED</text><text fill="#eeeeee" stroke="none" font-family="Arial" font-size="24px" font-style="normal" font-weight="normal" text-decoration="none" x="400" y="360">UNREGISTERED</text><text fill="#eeeeee" stroke="none" font-family="Arial" font-size="24px" font-style="normal" font-weight="normal" text-decoration="none" x="400" y="390">UNREGISTERED</text><text fill="#eeeeee" stroke="none" font-family="Arial" font-size="24px" font-style="normal" font-weight="normal" text-decoration="none" x="400" y="420">UNREGISTERED</text><text fill="#eeeeee" stroke="none" font-family="Arial" font-size="24px" font-style="normal" font-weight="normal" text-decoration="none" x="400" y="450">UNREGISTERED</text><text fill="#eeeeee" stroke="none" font-family="Arial" font-size="24px" font-style="normal" font-weight="normal" text-decoration="none" x="400" y="480">UNREGISTERED</text><text fill="#eeeeee" stroke="none" font-family="Arial" font-size="24px" font-style="normal" font-weight="normal" text-decoration="none" x="600" y="0">UNREGISTERED</text><text fill="#eeeeee" stroke="none" font-family="Arial" font-size="24px" font-style="normal" font-weight="normal" text-decoration="none" x="600" y="30">UNREGISTERED</text><text fill="#eeeeee" stroke="none" font-family="Arial" font-size="24px" font-style="normal" font-weight="normal" text-decoration="none" x="600" y="60">UNREGISTERED</text><text fill="#eeeeee" stroke="none" font-family="Arial" font-size="24px" font-style="normal" font-weight="normal" text-decoration="none" x="600" y="90">UNREGISTERED</text><text fill="#eeeeee" stroke="none" font-family="Arial" font-size="24px" font-style="normal" font-weight="normal" text-decoration="none" x="600" y="120">UNREGISTERED</text><text fill="#eeeeee" stroke="none" font-family="Arial" font-size="24px" font-style="normal" font-weight="normal" text-decoration="none" x="600" y="150">UNREGISTERED</text><text fill="#eeeeee" stroke="none" font-family="Arial" font-size="24px" font-style="normal" font-weight="normal" text-decoration="none" x="600" y="180">UNREGISTERED</text><text fill="#eeeeee" stroke="none" font-family="Arial" font-size="24px" font-style="normal" font-weight="normal" text-decoration="none" x="600" y="210">UNREGISTERED</text><text fill="#eeeeee" stroke="none" font-family="Arial" font-size="24px" font-style="normal" font-weight="normal" text-decoration="none" x="600" y="240">UNREGISTERED</text><text fill="#eeeeee" stroke="none" font-family="Arial" font-size="24px" font-style="normal" font-weight="normal" text-decoration="none" x="600" y="270">UNREGISTERED</text><text fill="#eeeeee" stroke="none" font-family="Arial" font-size="24px" font-style="normal" font-weight="normal" text-decoration="none" x="600" y="300">UNREGISTERED</text><text fill="#eeeeee" stroke="none" font-family="Arial" font-size="24px" font-style="normal" font-weight="normal" text-decoration="none" x="600" y="330">UNREGISTERED</text><text fill="#eeeeee" stroke="none" font-family="Arial" font-size="24px" font-style="normal" font-weight="normal" text-decoration="none" x="600" y="360">UNREGISTERED</text><text fill="#eeeeee" stroke="none" font-family="Arial" font-size="24px" font-style="normal" font-weight="normal" text-decoration="none" x="600" y="390">UNREGISTERED</text><text fill="#eeeeee" stroke="none" font-family="Arial" font-size="24px" font-style="normal" font-weight="normal" text-decoration="none" x="600" y="420">UNREGISTERED</text><text fill="#eeeeee" stroke="none" font-family="Arial" font-size="24px" font-style="normal" font-weight="normal" text-decoration="none" x="600" y="450">UNREGISTERED</text><text fill="#eeeeee" stroke="none" font-family="Arial" font-size="24px" font-style="normal" font-weight="normal" text-decoration="none" x="600" y="480">UNREGISTERED</text><text fill="#eeeeee" stroke="none" font-family="Arial" font-size="24px" font-style="normal" font-weight="normal" text-decoration="none" x="800" y="0">UNREGISTERED</text><text fill="#eeeeee" stroke="none" font-family="Arial" font-size="24px" font-style="normal" font-weight="normal" text-decoration="none" x="800" y="30">UNREGISTERED</text><text fill="#eeeeee" stroke="none" font-family="Arial" font-size="24px" font-style="normal" font-weight="normal" text-decoration="none" x="800" y="60">UNREGISTERED</text><text fill="#eeeeee" stroke="none" font-family="Arial" font-size="24px" font-style="normal" font-weight="normal" text-decoration="none" x="800" y="90">UNREGISTERED</text><text fill="#eeeeee" stroke="none" font-family="Arial" font-size="24px" font-style="normal" font-weight="normal" text-decoration="none" x="800" y="120">UNREGISTERED</text><text fill="#eeeeee" stroke="none" font-family="Arial" font-size="24px" font-style="normal" font-weight="normal" text-decoration="none" x="800" y="150">UNREGISTERED</text><text fill="#eeeeee" stroke="none" font-family="Arial" font-size="24px" font-style="normal" font-weight="normal" text-decoration="none" x="800" y="180">UNREGISTERED</text><text fill="#eeeeee" stroke="none" font-family="Arial" font-size="24px" font-style="normal" font-weight="normal" text-decoration="none" x="800" y="210">UNREGISTERED</text><text fill="#eeeeee" stroke="none" font-family="Arial" font-size="24px" font-style="normal" font-weight="normal" text-decoration="none" x="800" y="240">UNREGISTERED</text><text fill="#eeeeee" stroke="none" font-family="Arial" font-size="24px" font-style="normal" font-weight="normal" text-decoration="none" x="800" y="270">UNREGISTERED</text><text fill="#eeeeee" stroke="none" font-family="Arial" font-size="24px" font-style="normal" font-weight="normal" text-decoration="none" x="800" y="300">UNREGISTERED</text><text fill="#eeeeee" stroke="none" font-family="Arial" font-size="24px" font-style="normal" font-weight="normal" text-decoration="none" x="800" y="330">UNREGISTERED</text><text fill="#eeeeee" stroke="none" font-family="Arial" font-size="24px" font-style="normal" font-weight="normal" text-decoration="none" x="800" y="360">UNREGISTERED</text><text fill="#eeeeee" stroke="none" font-family="Arial" font-size="24px" font-style="normal" font-weight="normal" text-decoration="none" x="800" y="390">UNREGISTERED</text><text fill="#eeeeee" stroke="none" font-family="Arial" font-size="24px" font-style="normal" font-weight="normal" text-decoration="none" x="800" y="420">UNREGISTERED</text><text fill="#eeeeee" stroke="none" font-family="Arial" font-size="24px" font-style="normal" font-weight="normal" text-decoration="none" x="800" y="450">UNREGISTERED</text><text fill="#eeeeee" stroke="none" font-family="Arial" font-size="24px" font-style="normal" font-weight="normal" text-decoration="none" x="800" y="480">UNREGISTERED</text><text fill="#eeeeee" stroke="none" font-family="Arial" font-size="24px" font-style="normal" font-weight="normal" text-decoration="none" x="1000" y="0">UNREGISTERED</text><text fill="#eeeeee" stroke="none" font-family="Arial" font-size="24px" font-style="normal" font-weight="normal" text-decoration="none" x="1000" y="30">UNREGISTERED</text><text fill="#eeeeee" stroke="none" font-family="Arial" font-size="24px" font-style="normal" font-weight="normal" text-decoration="none" x="1000" y="60">UNREGISTERED</text><text fill="#eeeeee" stroke="none" font-family="Arial" font-size="24px" font-style="normal" font-weight="normal" text-decoration="none" x="1000" y="90">UNREGISTERED</text><text fill="#eeeeee" stroke="none" font-family="Arial" font-size="24px" font-style="normal" font-weight="normal" text-decoration="none" x="1000" y="120">UNREGISTERED</text><text fill="#eeeeee" stroke="none" font-family="Arial" font-size="24px" font-style="normal" font-weight="normal" text-decoration="none" x="1000" y="150">UNREGISTERED</text><text fill="#eeeeee" stroke="none" font-family="Arial" font-size="24px" font-style="normal" font-weight="normal" text-decoration="none" x="1000" y="180">UNREGISTERED</text><text fill="#eeeeee" stroke="none" font-family="Arial" font-size="24px" font-style="normal" font-weight="normal" text-decoration="none" x="1000" y="210">UNREGISTERED</text><text fill="#eeeeee" stroke="none" font-family="Arial" font-size="24px" font-style="normal" font-weight="normal" text-decoration="none" x="1000" y="240">UNREGISTERED</text><text fill="#eeeeee" stroke="none" font-family="Arial" font-size="24px" font-style="normal" font-weight="normal" text-decoration="none" x="1000" y="270">UNREGISTERED</text><text fill="#eeeeee" stroke="none" font-family="Arial" font-size="24px" font-style="normal" font-weight="normal" text-decoration="none" x="1000" y="300">UNREGISTERED</text><text fill="#eeeeee" stroke="none" font-family="Arial" font-size="24px" font-style="normal" font-weight="normal" text-decoration="none" x="1000" y="330">UNREGISTERED</text><text fill="#eeeeee" stroke="none" font-family="Arial" font-size="24px" font-style="normal" font-weight="normal" text-decoration="none" x="1000" y="360">UNREGISTERED</text><text fill="#eeeeee" stroke="none" font-family="Arial" font-size="24px" font-style="normal" font-weight="normal" text-decoration="none" x="1000" y="390">UNREGISTERED</text><text fill="#eeeeee" stroke="none" font-family="Arial" font-size="24px" font-style="normal" font-weight="normal" text-decoration="none" x="1000" y="420">UNREGISTERED</text><text fill="#eeeeee" stroke="none" font-family="Arial" font-size="24px" font-style="normal" font-weight="normal" text-decoration="none" x="1000" y="450">UNREGISTERED</text><text fill="#eeeeee" stroke="none" font-family="Arial" font-size="24px" font-style="normal" font-weight="normal" text-decoration="none" x="1000" y="480">UNREGISTERED</text><g transform="translate(-30,-30) scale(1,1)"><path fill="#C0C0C0" stroke="none" d="M 583 57 L 947 57 L 947 245 L 583 245" opacity="0.2"/></g><g transform="translate(-30,-30) scale(1,1)"><path fill="#C0C0C0" stroke="none" d="M 583 57 L 593 47 L 957 47 L 947 57" opacity="0.2"/></g><g transform="translate(-30,-30) scale(1,1)"><path fill="#C0C0C0" stroke="none" d="M 957 47 L 947 57 L 947 245 L 957 235" opacity="0.2"/></g><g transform="translate(-30,-30) scale(1,1)"><path fill="#ffffff" stroke="none" d="M 576 50 L 940 50 L 940 238 L 576 238"/></g><g transform="translate(-30,-30) scale(1,1)"><path fill="#ffffff" stroke="none" d="M 576 50 L 586 40 L 950 40 L 940 50"/></g><g transform="translate(-30,-30) scale(1,1)"><path fill="#ffffff" stroke="none" d="M 950 40 L 940 50 L 940 238 L 950 228"/></g><g transform="translate(-30,-30) scale(1,1)"><path fill="none" stroke="#000000" d="M 576 50 L 940 50 L 940 238 L 576 238 L 576 50" stroke-miterlimit="10"/></g><g transform="translate(-30,-30) scale(1,1)"><path fill="none" stroke="#000000" d="M 576 50 L 586 40 L 950 40 L 940 50 L 576 50" stroke-miterlimit="10"/></g><g transform="translate(-30,-30) scale(1,1)"><path fill="none" stroke="#000000" d="M 950 40 L 940 50 L 940 238 L 950 228 L 950 40" stroke-miterlimit="10"/></g><g transform="translate(-30,-30) scale(1,1)"><g><path fill="none" stroke="none"/><text fill="#000000" stroke="none" font-family="Arial" font-size="13px" font-style="normal" font-weight="normal" text-decoration="none" x="732.12548828125" y="67.5">«cluster»</text></g></g><g transform="translate(-30,-30) scale(1,1)"><g><path fill="none" stroke="none"/><text fill="#000000" stroke="none" font-family="Arial" font-size="13px" font-style="normal" font-weight="bold" text-decoration="none" x="720.937744140625" y="82.5">MysqlCluster</text></g></g><g transform="translate(-30,-30) scale(1,1)"><path fill="#C0C0C0" stroke="none" d="M 47 57 L 508 57 L 508 486 L 47 486" opacity="0.2"/></g><g transform="translate(-30,-30) scale(1,1)"><path fill="#C0C0C0" stroke="none" d="M 47 57 L 57 47 L 518 47 L 508 57" opacity="0.2"/></g><g transform="translate(-30,-30) scale(1,1)"><path fill="#C0C0C0" stroke="none" d="M 518 47 L 508 57 L 508 486 L 518 476" opacity="0.2"/></g><g transform="translate(-30,-30) scale(1,1)"><path fill="#ffffff" stroke="none" d="M 40 50 L 501 50 L 501 479 L 40 479"/></g><g transform="translate(-30,-30) scale(1,1)"><path fill="#ffffff" stroke="none" d="M 40 50 L 50 40 L 511 40 L 501 50"/></g><g transform="translate(-30,-30) scale(1,1)"><path fill="#ffffff" stroke="none" d="M 511 40 L 501 50 L 501 479 L 511 469"/></g><g transform="translate(-30,-30) scale(1,1)"><path fill="none" stroke="#000000" d="M 40 50 L 501 50 L 501 479 L 40 479 L 40 50" stroke-miterlimit="10"/></g><g transform="translate(-30,-30) scale(1,1)"><path fill="none" stroke="#000000" d="M 40 50 L 50 40 L 511 40 L 501 50 L 40 50" stroke-miterlimit="10"/></g><g transform="translate(-30,-30) scale(1,1)"><path fill="none" stroke="#000000" d="M 511 40 L 501 50 L 501 479 L 511 469 L 511 40" stroke-miterlimit="10"/></g><g transform="translate(-30,-30) scale(1,1)"><g><path fill="none" stroke="none"/><text fill="#000000" stroke="none" font-family="Arial" font-size="13px" font-style="normal" font-weight="normal" text-decoration="none" x="244.62548828125" y="67.5">«cluster»</text></g></g><g transform="translate(-30,-30) scale(1,1)"><g><path fill="none" stroke="none"/><text fill="#000000" stroke="none" font-family="Arial" font-size="13px" font-style="normal" font-weight="bold" text-decoration="none" x="230.187744140625" y="82.5">DockerSwarm</text></g></g><g transform="translate(-30,-30) scale(1,1)"><path fill="#C0C0C0" stroke="none" d="M 71 105 L 476 105 L 476 470 L 71 470" opacity="0.2"/></g><g transform="translate(-30,-30) scale(1,1)"><path fill="#C0C0C0" stroke="none" d="M 71 105 L 81 95 L 486 95 L 476 105" opacity="0.2"/></g><g transform="translate(-30,-30) scale(1,1)"><path fill="#C0C0C0" stroke="none" d="M 486 95 L 476 105 L 476 470 L 486 460" opacity="0.2"/></g><g transform="translate(-30,-30) scale(1,1)"><path fill="#ffffff" stroke="none" d="M 64 98 L 469 98 L 469 463 L 64 463"/></g><g transform="translate(-30,-30) scale(1,1)"><path fill="#ffffff" stroke="none" d="M 64 98 L 74 88 L 479 88 L 469 98"/></g><g transform="translate(-30,-30) scale(1,1)"><path fill="#ffffff" stroke="none" d="M 479 88 L 469 98 L 469 463 L 479 453"/></g><g transform="translate(-30,-30) scale(1,1)"><path fill="none" stroke="#000000" d="M 64 98 L 469 98 L 469 463 L 64 463 L 64 98" stroke-miterlimit="10"/></g><g transform="translate(-30,-30) scale(1,1)"><path fill="none" stroke="#000000" d="M 64 98 L 74 88 L 479 88 L 469 98 L 64 98" stroke-miterlimit="10"/></g><g transform="translate(-30,-30) scale(1,1)"><path fill="none" stroke="#000000" d="M 479 88 L 469 98 L 469 463 L 479 453 L 479 88" stroke-miterlimit="10"/></g><g transform="translate(-30,-30) scale(1,1)"><g><path fill="none" stroke="none"/><text fill="#000000" stroke="none" font-family="Arial" font-size="13px" font-style="normal" font-weight="bold" text-decoration="none" x="210.267822265625" y="117.5">Backend instance n</text></g></g><g transform="translate(-30,-30) scale(1,1)"><path fill="#C0C0C0" stroke="none" d="M 79 153 L 276 153 L 276 302 L 79 302" opacity="0.2"/></g><g transform="translate(-30,-30) scale(1,1)"><path fill="#C0C0C0" stroke="none" d="M 79 153 L 89 143 L 286 143 L 276 153" opacity="0.2"/></g><g transform="translate(-30,-30) scale(1,1)"><path fill="#C0C0C0" stroke="none" d="M 286 143 L 276 153 L 276 302 L 286 292" opacity="0.2"/></g><g transform="translate(-30,-30) scale(1,1)"><path fill="#ffffff" stroke="none" d="M 72 146 L 269 146 L 269 295 L 72 295"/></g><g transform="translate(-30,-30) scale(1,1)"><path fill="#ffffff" stroke="none" d="M 72 146 L 82 136 L 279 136 L 269 146"/></g><g transform="translate(-30,-30) scale(1,1)"><path fill="#ffffff" stroke="none" d="M 279 136 L 269 146 L 269 295 L 279 285"/></g><g transform="translate(-30,-30) scale(1,1)"><path fill="none" stroke="#000000" d="M 72 146 L 269 146 L 269 295 L 72 295 L 72 146" stroke-miterlimit="10"/></g><g transform="translate(-30,-30) scale(1,1)"><path fill="none" stroke="#000000" d="M 72 146 L 82 136 L 279 136 L 269 146 L 72 146" stroke-miterlimit="10"/></g><g transform="translate(-30,-30) scale(1,1)"><path fill="none" stroke="#000000" d="M 279 136 L 269 146 L 269 295 L 279 285 L 279 136" stroke-miterlimit="10"/></g><g transform="translate(-30,-30) scale(1,1)"><g><path fill="none" stroke="none"/><text fill="#000000" stroke="none" font-family="Arial" font-size="13px" font-style="normal" font-weight="bold" text-decoration="none" x="96.91650390625" y="165.5">cloudito-geolocation node</text></g></g><g transform="translate(-30,-30) scale(1,1)"><rect fill="#C0C0C0" stroke="none" x="105" y="183" width="146.82275390625" height="44" opacity="0.2"/></g><g transform="translate(-30,-30) scale(1,1)"><rect fill="#ffffff" stroke="none" x="98" y="176" width="146.82275390625" height="44"/></g><g transform="translate(-30,-30) scale(1,1)"><path fill="none" stroke="#000000" d="M 98 176 L 244.82275390625 176 L 244.82275390625 220 L 98 220 L 98 176 Z Z" stroke-miterlimit="10"/></g><g transform="translate(-30,-30) scale(1,1)"><rect fill="#ffffff" stroke="none" x="88" y="183" width="20" height="10"/></g><g transform="translate(-30,-30) scale(1,1)"><path fill="none" stroke="#000000" d="M 88 183 L 108 183 L 108 193 L 88 193 L 88 183 Z Z" stroke-miterlimit="10"/></g><g transform="translate(-30,-30) scale(1,1)"><rect fill="#ffffff" stroke="none" x="88" y="203" width="20" height="10"/></g><g transform="translate(-30,-30) scale(1,1)"><path fill="none" stroke="#000000" d="M 88 203 L 108 203 L 108 213 L 88 213 L 88 203 Z Z" stroke-miterlimit="10"/></g><g transform="translate(-30,-30) scale(1,1)"><g><path fill="none" stroke="none"/><text fill="#000000" stroke="none" font-family="Arial" font-size="13px" font-style="normal" font-weight="normal" text-decoration="none" x="161.957763671875" y="193.5">«jar»</text></g></g><g transform="translate(-30,-30) scale(1,1)"><g><path fill="none" stroke="none"/><text fill="#000000" stroke="none" font-family="Arial" font-size="13px" font-style="normal" font-weight="bold" text-decoration="none" x="118.59375" y="208.5">cloudito-geolocation</text></g></g><g transform="translate(-30,-30) scale(1,1)"><rect fill="#C0C0C0" stroke="none" x="129" y="239" width="98.44091796875" height="44" opacity="0.2"/></g><g transform="translate(-30,-30) scale(1,1)"><rect fill="#ffffff" stroke="none" x="122" y="232" width="98.44091796875" height="44"/></g><g transform="translate(-30,-30) scale(1,1)"><path fill="none" stroke="#000000" d="M 122 232 L 220.44091796875 232 L 220.44091796875 276 L 122 276 L 122 232 Z Z" stroke-miterlimit="10"/></g><g transform="translate(-30,-30) scale(1,1)"><rect fill="#ffffff" stroke="none" x="112" y="239" width="20" height="10"/></g><g transform="translate(-30,-30) scale(1,1)"><path fill="none" stroke="#000000" d="M 112 239 L 132 239 L 132 249 L 112 249 L 112 239 Z Z" stroke-miterlimit="10"/></g><g transform="translate(-30,-30) scale(1,1)"><rect fill="#ffffff" stroke="none" x="112" y="259" width="20" height="10"/></g><g transform="translate(-30,-30) scale(1,1)"><path fill="none" stroke="#000000" d="M 112 259 L 132 259 L 132 269 L 112 269 L 112 259 Z Z" stroke-miterlimit="10"/></g><g transform="translate(-30,-30) scale(1,1)"><g><path fill="none" stroke="none"/><text fill="#000000" stroke="none" font-family="Arial" font-size="13px" font-style="normal" font-weight="bold" text-decoration="none" x="155.6318359375" y="251.5">Docker</text></g></g><g transform="translate(-30,-30) scale(1,1)"><rect fill="#C0C0C0" stroke="none" x="113" y="383" width="98.44091796875" height="44" opacity="0.2"/></g><g transform="translate(-30,-30) scale(1,1)"><rect fill="#ffffff" stroke="none" x="106" y="376" width="98.44091796875" height="44"/></g><g transform="translate(-30,-30) scale(1,1)"><path fill="none" stroke="#000000" d="M 106 376 L 204.44091796875 376 L 204.44091796875 420 L 106 420 L 106 376 Z Z" stroke-miterlimit="10"/></g><g transform="translate(-30,-30) scale(1,1)"><rect fill="#ffffff" stroke="none" x="96" y="383" width="20" height="10"/></g><g transform="translate(-30,-30) scale(1,1)"><path fill="none" stroke="#000000" d="M 96 383 L 116 383 L 116 393 L 96 393 L 96 383 Z Z" stroke-miterlimit="10"/></g><g transform="translate(-30,-30) scale(1,1)"><rect fill="#ffffff" stroke="none" x="96" y="403" width="20" height="10"/></g><g transform="translate(-30,-30) scale(1,1)"><path fill="none" stroke="#000000" d="M 96 403 L 116 403 L 116 413 L 96 413 L 96 403 Z Z" stroke-miterlimit="10"/></g><g transform="translate(-30,-30) scale(1,1)"><g><path fill="none" stroke="none"/><text fill="#000000" stroke="none" font-family="Arial" font-size="13px" font-style="normal" font-weight="bold" text-decoration="none" x="127.701416015625" y="395.5">spring-boot</text></g></g><g transform="translate(-30,-30) scale(1,1)"><rect fill="#C0C0C0" stroke="none" x="289" y="335" width="165.61181640625" height="44" opacity="0.2"/></g><g transform="translate(-30,-30) scale(1,1)"><rect fill="#ffffff" stroke="none" x="282" y="328" width="165.61181640625" height="44"/></g><g transform="translate(-30,-30) scale(1,1)"><path fill="none" stroke="#000000" d="M 282 328 L 447.61181640625 328 L 447.61181640625 372 L 282 372 L 282 328 Z Z" stroke-miterlimit="10"/></g><g transform="translate(-30,-30) scale(1,1)"><rect fill="#ffffff" stroke="none" x="272" y="335" width="20" height="10"/></g><g transform="translate(-30,-30) scale(1,1)"><path fill="none" stroke="#000000" d="M 272 335 L 292 335 L 292 345 L 272 345 L 272 335 Z Z" stroke-miterlimit="10"/></g><g transform="translate(-30,-30) scale(1,1)"><rect fill="#ffffff" stroke="none" x="272" y="355" width="20" height="10"/></g><g transform="translate(-30,-30) scale(1,1)"><path fill="none" stroke="#000000" d="M 272 355 L 292 355 L 292 365 L 272 365 L 272 355 Z Z" stroke-miterlimit="10"/></g><g transform="translate(-30,-30) scale(1,1)"><g><path fill="none" stroke="none"/><text fill="#000000" stroke="none" font-family="Arial" font-size="13px" font-style="normal" font-weight="bold" text-decoration="none" x="302.61279296875" y="347.5">spring-boot-starter-web</text></g></g><g transform="translate(-30,-30) scale(1,1)"><rect fill="#C0C0C0" stroke="none" x="289" y="399" width="153.37353515625" height="44" opacity="0.2"/></g><g transform="translate(-30,-30) scale(1,1)"><rect fill="#ffffff" stroke="none" x="282" y="392" width="153.37353515625" height="44"/></g><g transform="translate(-30,-30) scale(1,1)"><path fill="none" stroke="#000000" d="M 282 392 L 435.37353515625 392 L 435.37353515625 436 L 282 436 L 282 392 Z Z" stroke-miterlimit="10"/></g><g transform="translate(-30,-30) scale(1,1)"><rect fill="#ffffff" stroke="none" x="272" y="399" width="20" height="10"/></g><g transform="translate(-30,-30) scale(1,1)"><path fill="none" stroke="#000000" d="M 272 399 L 292 399 L 292 409 L 272 409 L 272 399 Z Z" stroke-miterlimit="10"/></g><g transform="translate(-30,-30) scale(1,1)"><rect fill="#ffffff" stroke="none" x="272" y="419" width="20" height="10"/></g><g transform="translate(-30,-30) scale(1,1)"><path fill="none" stroke="#000000" d="M 272 419 L 292 419 L 292 429 L 272 429 L 272 419 Z Z" stroke-miterlimit="10"/></g><g transform="translate(-30,-30) scale(1,1)"><g><path fill="none" stroke="none"/><text fill="#000000" stroke="none" font-family="Arial" font-size="13px" font-style="normal" font-weight="bold" text-decoration="none" x="301.91455078125" y="411.5">mysql-connector-java</text></g></g><g transform="translate(-30,-30) scale(1,1)"><path fill="none" stroke="#000000" d="M 205 385 L 271 370" stroke-miterlimit="10" stroke-dasharray="3"/></g><g transform="translate(-30,-30) scale(1,1)"><path fill="none" stroke="#000000" d="M 262.0229598142705 376.35710228829123 L 271 370 L 260.1571238729393 368.1474241464338" stroke-miterlimit="10"/></g><g transform="translate(-30,-30) scale(1,1)"><path fill="none" stroke="#000000" d="M 205 402 L 271 408" stroke-miterlimit="10" stroke-dasharray="3"/></g><g transform="translate(-30,-30) scale(1,1)"><path fill="none" stroke="#000000" d="M 260.49794931923185 411.27214478569897 L 271 408 L 261.2601729802721 402.88768451425597" stroke-miterlimit="10"/></g><g transform="translate(-30,-30) scale(1,1)"><path fill="#C0C0C0" stroke="none" d="M 639 113 L 891 113 L 891 222 L 639 222" opacity="0.2"/></g><g transform="translate(-30,-30) scale(1,1)"><path fill="#C0C0C0" stroke="none" d="M 639 113 L 649 103 L 901 103 L 891 113" opacity="0.2"/></g><g transform="translate(-30,-30) scale(1,1)"><path fill="#C0C0C0" stroke="none" d="M 901 103 L 891 113 L 891 222 L 901 212" opacity="0.2"/></g><g transform="translate(-30,-30) scale(1,1)"><path fill="#ffffff" stroke="none" d="M 632 106 L 884 106 L 884 215 L 632 215"/></g><g transform="translate(-30,-30) scale(1,1)"><path fill="#ffffff" stroke="none" d="M 632 106 L 642 96 L 894 96 L 884 106"/></g><g transform="translate(-30,-30) scale(1,1)"><path fill="#ffffff" stroke="none" d="M 894 96 L 884 106 L 884 215 L 894 205"/></g><g transform="translate(-30,-30) scale(1,1)"><path fill="none" stroke="#000000" d="M 632 106 L 884 106 L 884 215 L 632 215 L 632 106" stroke-miterlimit="10"/></g><g transform="translate(-30,-30) scale(1,1)"><path fill="none" stroke="#000000" d="M 632 106 L 642 96 L 894 96 L 884 106 L 632 106" stroke-miterlimit="10"/></g><g transform="translate(-30,-30) scale(1,1)"><path fill="none" stroke="#000000" d="M 894 96 L 884 106 L 884 215 L 894 205 L 894 96" stroke-miterlimit="10"/></g><g transform="translate(-30,-30) scale(1,1)"><g><path fill="none" stroke="none"/><text fill="#000000" stroke="none" font-family="Arial" font-size="13px" font-style="normal" font-weight="bold" text-decoration="none" x="684.06103515625" y="125.5">PreProd_Database_Node</text></g></g><g transform="translate(-30,-30) scale(1,1)"><rect fill="#C0C0C0" stroke="none" x="697" y="159" width="122.32080078125" height="44" opacity="0.2"/></g><g transform="translate(-30,-30) scale(1,1)"><rect fill="#ffffff" stroke="none" x="690" y="152" width="122.32080078125" height="44"/></g><g transform="translate(-30,-30) scale(1,1)"><path fill="none" stroke="#000000" d="M 690 152 L 812.32080078125 152 L 812.32080078125 196 L 690 196 L 690 152 Z Z" stroke-miterlimit="10"/></g><g transform="translate(-30,-30) scale(1,1)"><rect fill="#ffffff" stroke="none" x="680" y="159" width="20" height="10"/></g><g transform="translate(-30,-30) scale(1,1)"><path fill="none" stroke="#000000" d="M 680 159 L 700 159 L 700 169 L 680 169 L 680 159 Z Z" stroke-miterlimit="10"/></g><g transform="translate(-30,-30) scale(1,1)"><rect fill="#ffffff" stroke="none" x="680" y="179" width="20" height="10"/></g><g transform="translate(-30,-30) scale(1,1)"><path fill="none" stroke="#000000" d="M 680 179 L 700 179 L 700 189 L 680 189 L 680 179 Z Z" stroke-miterlimit="10"/></g><g transform="translate(-30,-30) scale(1,1)"><g><path fill="none" stroke="none"/><text fill="#000000" stroke="none" font-family="Arial" font-size="13px" font-style="normal" font-weight="bold" text-decoration="none" x="706.661376953125" y="171.5">MySql_Database</text></g></g><g transform="translate(-30,-30) scale(1,1)"><path fill="#C0C0C0" stroke="none" d="M 542.7099609375 170.5 C 542.7099609375 164.1487248 547.8586857375 159 554.2099609375 159 C 560.5612361375 159 565.7099609375 164.1487248 565.7099609375 170.5 C 565.7099609375 176.8512752 560.5612361375 182 554.2099609375 182 C 547.8586857375 182 542.7099609375 176.8512752 542.7099609375 170.5 Z" opacity="0.2"/></g><g transform="translate(-30,-30) scale(1,1)"><path fill="none" stroke="#000000" d="M 553.7331413692101 172.32281112659862 A 11.5 11.5 0 0 1 540.2668586307899 153.67718887340138" stroke-miterlimit="10"/></g><g transform="translate(-30,-30) scale(1,1)"><path fill="#ffffff" stroke="none" d="M 538.7099609375 163.5 C 538.7099609375 158.8055792 542.5155401375 155 547.2099609375 155 C 551.9043817375 155 555.7099609375 158.8055792 555.7099609375 163.5 C 555.7099609375 168.1944208 551.9043817375 172 547.2099609375 172 C 542.5155401375 172 538.7099609375 168.1944208 538.7099609375 163.5 Z"/></g><g transform="translate(-30,-30) scale(1,1)"><path fill="none" stroke="#000000" d="M 538.7099609375 163.5 C 538.7099609375 158.8055792 542.5155401375 155 547.2099609375 155 C 551.9043817375 155 555.7099609375 158.8055792 555.7099609375 163.5 C 555.7099609375 168.1944208 551.9043817375 172 547.2099609375 172 C 542.5155401375 172 538.7099609375 168.1944208 538.7099609375 163.5 Z" stroke-miterlimit="10"/></g><g transform="translate(-30,-30) scale(1,1)"><g><path fill="none" stroke="none"/><text fill="#000000" stroke="none" font-family="Arial" font-size="13px" font-style="normal" font-weight="bold" text-decoration="none" x="530.236328125" y="194.5">JDBC</text></g></g><g transform="translate(-30,-30) scale(1,1)"><path fill="none" stroke="#000000" d="M 481 200 L 535.7099609375 171.15391710069446" stroke-miterlimit="10"/></g><g transform="translate(-30,-30) scale(1,1)"><path fill="#C0C0C0" stroke="none" d="M 751 273 L 1108 273 L 1108 510 L 751 510" opacity="0.2"/></g><g transform="translate(-30,-30) scale(1,1)"><path fill="#C0C0C0" stroke="none" d="M 751 273 L 761 263 L 1118 263 L 1108 273" opacity="0.2"/></g><g transform="translate(-30,-30) scale(1,1)"><path fill="#C0C0C0" stroke="none" d="M 1118 263 L 1108 273 L 1108 510 L 1118 500" opacity="0.2"/></g><g transform="translate(-30,-30) scale(1,1)"><path fill="#ffffff" stroke="none" d="M 744 266 L 1101 266 L 1101 503 L 744 503"/></g><g transform="translate(-30,-30) scale(1,1)"><path fill="#ffffff" stroke="none" d="M 744 266 L 754 256 L 1111 256 L 1101 266"/></g><g transform="translate(-30,-30) scale(1,1)"><path fill="#ffffff" stroke="none" d="M 1111 256 L 1101 266 L 1101 503 L 1111 493"/></g><g transform="translate(-30,-30) scale(1,1)"><path fill="none" stroke="#000000" d="M 744 266 L 1101 266 L 1101 503 L 744 503 L 744 266" stroke-miterlimit="10"/></g><g transform="translate(-30,-30) scale(1,1)"><path fill="none" stroke="#000000" d="M 744 266 L 754 256 L 1111 256 L 1101 266 L 744 266" stroke-miterlimit="10"/></g><g transform="translate(-30,-30) scale(1,1)"><path fill="none" stroke="#000000" d="M 1111 256 L 1101 266 L 1101 503 L 1111 493 L 1111 256" stroke-miterlimit="10"/></g><g transform="translate(-30,-30) scale(1,1)"><g><path fill="none" stroke="none"/><text fill="#000000" stroke="none" font-family="Arial" font-size="13px" font-style="normal" font-weight="normal" text-decoration="none" x="905.2900390625" y="283.5">«apk»</text></g></g><g transform="translate(-30,-30) scale(1,1)"><g><path fill="none" stroke="none"/><text fill="#000000" stroke="none" font-family="Arial" font-size="13px" font-style="normal" font-weight="bold" text-decoration="none" x="866.274169921875" y="298.5">cloudito-mobile-app</text></g></g><g transform="translate(-30,-30) scale(1,1)"><path fill="#C0C0C0" stroke="none" d="M 598.028564453125 354.5 C 598.028564453125 348.1487248 603.177289253125 343 609.528564453125 343 C 615.879839653125 343 621.028564453125 348.1487248 621.028564453125 354.5 C 621.028564453125 360.8512752 615.879839653125 366 609.528564453125 366 C 603.177289253125 366 598.028564453125 360.8512752 598.028564453125 354.5 Z" opacity="0.2"/></g><g transform="translate(-30,-30) scale(1,1)"><path fill="none" stroke="#000000" d="M 604.409584520405 335.7552722381098 A 11.5 11.5 0 0 1 599.590415479595 358.2447277618902" stroke-miterlimit="10"/></g><g transform="translate(-30,-30) scale(1,1)"><path fill="#ffffff" stroke="none" d="M 594.028564453125 347.5 C 594.028564453125 342.8055792 597.834143653125 339 602.528564453125 339 C 607.222985253125 339 611.028564453125 342.8055792 611.028564453125 347.5 C 611.028564453125 352.1944208 607.222985253125 356 602.528564453125 356 C 597.834143653125 356 594.028564453125 352.1944208 594.028564453125 347.5 Z"/></g><g transform="translate(-30,-30) scale(1,1)"><path fill="none" stroke="#000000" d="M 594.028564453125 347.5 C 594.028564453125 342.8055792 597.834143653125 339 602.528564453125 339 C 607.222985253125 339 611.028564453125 342.8055792 611.028564453125 347.5 C 611.028564453125 352.1944208 607.222985253125 356 602.528564453125 356 C 597.834143653125 356 594.028564453125 352.1944208 594.028564453125 347.5 Z" stroke-miterlimit="10"/></g><g transform="translate(-30,-30) scale(1,1)"><g><path fill="none" stroke="none"/><text fill="#000000" stroke="none" font-family="Arial" font-size="13px" font-style="normal" font-weight="bold" text-decoration="none" x="585.193115234375" y="378.5">REST</text></g></g><g transform="translate(-30,-30) scale(1,1)"><path fill="none" stroke="#000000" d="M 481 329 L 591.028564453125 345.9425122364458" stroke-miterlimit="10"/></g><g transform="translate(-30,-30) scale(1,1)"><path fill="none" stroke="#000000" d="M 743 369 L 614.028564453125 349.57754952566967" stroke-miterlimit="10"/></g><g transform="translate(-30,-30) scale(1,1)"><rect fill="#C0C0C0" stroke="none" x="329" y="247" width="124.47265625" height="44" opacity="0.2"/></g><g transform="translate(-30,-30) scale(1,1)"><rect fill="#ffffff" stroke="none" x="322" y="240" width="124.47265625" height="44"/></g><g transform="translate(-30,-30) scale(1,1)"><path fill="none" stroke="#000000" d="M 322 240 L 446.47265625 240 L 446.47265625 284 L 322 284 L 322 240 Z Z" stroke-miterlimit="10"/></g><g transform="translate(-30,-30) scale(1,1)"><rect fill="#ffffff" stroke="none" x="312" y="247" width="20" height="10"/></g><g transform="translate(-30,-30) scale(1,1)"><path fill="none" stroke="#000000" d="M 312 247 L 332 247 L 332 257 L 312 257 L 312 247 Z Z" stroke-miterlimit="10"/></g><g transform="translate(-30,-30) scale(1,1)"><rect fill="#ffffff" stroke="none" x="312" y="267" width="20" height="10"/></g><g transform="translate(-30,-30) scale(1,1)"><path fill="none" stroke="#000000" d="M 312 267 L 332 267 L 332 277 L 312 277 L 312 267 Z Z" stroke-miterlimit="10"/></g><g transform="translate(-30,-30) scale(1,1)"><g><path fill="none" stroke="none"/><text fill="#000000" stroke="none" font-family="Arial" font-size="13px" font-style="normal" font-weight="bold" text-decoration="none" x="341.194091796875" y="259.5">properties-mysql</text></g></g><g transform="translate(-30,-30) scale(1,1)"><rect fill="#C0C0C0" stroke="none" x="785" y="327" width="146.82275390625" height="44" opacity="0.2"/></g><g transform="translate(-30,-30) scale(1,1)"><rect fill="#ffffff" stroke="none" x="778" y="320" width="146.82275390625" height="44"/></g><g transform="translate(-30,-30) scale(1,1)"><path fill="none" stroke="#000000" d="M 778 320 L 924.82275390625 320 L 924.82275390625 364 L 778 364 L 778 320 Z Z" stroke-miterlimit="10"/></g><g transform="translate(-30,-30) scale(1,1)"><rect fill="#ffffff" stroke="none" x="768" y="327" width="20" height="10"/></g><g transform="translate(-30,-30) scale(1,1)"><path fill="none" stroke="#000000" d="M 768 327 L 788 327 L 788 337 L 768 337 L 768 327 Z Z" stroke-miterlimit="10"/></g><g transform="translate(-30,-30) scale(1,1)"><rect fill="#ffffff" stroke="none" x="768" y="347" width="20" height="10"/></g><g transform="translate(-30,-30) scale(1,1)"><path fill="none" stroke="#000000" d="M 768 347 L 788 347 L 788 357 L 768 357 L 768 347 Z Z" stroke-miterlimit="10"/></g><g transform="translate(-30,-30) scale(1,1)"><g><path fill="none" stroke="none"/><text fill="#000000" stroke="none" font-family="Arial" font-size="13px" font-style="normal" font-weight="bold" text-decoration="none" x="798.59375" y="339.5">cloudito-geolocation</text></g></g><g transform="translate(-30,-30) scale(1,1)"><path fill="none" stroke="#000000" d="M 281 240 L 311 247" stroke-miterlimit="10" stroke-dasharray="3"/></g><g transform="translate(-30,-30) scale(1,1)"><path fill="none" stroke="#000000" d="M 300.1466413208509 248.79014116251722 L 311 247 L 302.05969552402667 240.5913374346209" stroke-miterlimit="10"/></g><g transform="translate(-30,-30) scale(1,1)"><rect fill="#C0C0C0" stroke="none" x="809" y="439" width="98.44091796875" height="44" opacity="0.2"/></g><g transform="translate(-30,-30) scale(1,1)"><rect fill="#ffffff" stroke="none" x="802" y="432" width="98.44091796875" height="44"/></g><g transform="translate(-30,-30) scale(1,1)"><path fill="none" stroke="#000000" d="M 802 432 L 900.44091796875 432 L 900.44091796875 476 L 802 476 L 802 432 Z Z" stroke-miterlimit="10"/></g><g transform="translate(-30,-30) scale(1,1)"><rect fill="#ffffff" stroke="none" x="792" y="439" width="20" height="10"/></g><g transform="translate(-30,-30) scale(1,1)"><path fill="none" stroke="#000000" d="M 792 439 L 812 439 L 812 449 L 792 449 L 792 439 Z Z" stroke-miterlimit="10"/></g><g transform="translate(-30,-30) scale(1,1)"><rect fill="#ffffff" stroke="none" x="792" y="459" width="20" height="10"/></g><g transform="translate(-30,-30) scale(1,1)"><path fill="none" stroke="#000000" d="M 792 459 L 812 459 L 812 469 L 792 469 L 792 459 Z Z" stroke-miterlimit="10"/></g><g transform="translate(-30,-30) scale(1,1)"><g><path fill="none" stroke="none"/><text fill="#000000" stroke="none" font-family="Arial" font-size="13px" font-style="normal" font-weight="bold" text-decoration="none" x="836.34912109375" y="451.5">SQLite</text></g></g><g transform="translate(-30,-30) scale(1,1)"><path fill="none" stroke="#000000" d="M 846 365 L 846 431" stroke-miterlimit="10" stroke-dasharray="3"/></g><g transform="translate(-30,-30) scale(1,1)"><path fill="none" stroke="#000000" d="M 841.790482243984 420.83732514237585 L 846 431 L 850.209517756016 420.83732514237585" stroke-miterlimit="10"/></g><g transform="translate(-30,-30) scale(1,1)"><path fill="none" stroke="#000000" d="M 679 175 L 558.7099609375 167.22859700520834" stroke-miterlimit="10"/></g></g></svg>