<svg version="1.1" xmlns="http://www.w3.org/2000/svg" xmlns:xlink="http://www.w3.org/1999/xlink" width="964" height="444"><defs/><g><g transform="translate(-54,-86) scale(1,1)"><path fill="#C0C0C0" stroke="none" d="M 71 113 L 460 113 L 460 454 L 71 454" opacity="0.2"/></g><g transform="translate(-54,-86) scale(1,1)"><path fill="#C0C0C0" stroke="none" d="M 71 113 L 81 103 L 470 103 L 460 113" opacity="0.2"/></g><g transform="translate(-54,-86) scale(1,1)"><path fill="#C0C0C0" stroke="none" d="M 470 103 L 460 113 L 460 454 L 470 444" opacity="0.2"/></g><g transform="translate(-54,-86) scale(1,1)"><path fill="#ffffff" stroke="none" d="M 64 106 L 453 106 L 453 447 L 64 447"/></g><g transform="translate(-54,-86) scale(1,1)"><path fill="#ffffff" stroke="none" d="M 64 106 L 74 96 L 463 96 L 453 106"/></g><g transform="translate(-54,-86) scale(1,1)"><path fill="#ffffff" stroke="none" d="M 463 96 L 453 106 L 453 447 L 463 437"/></g><g transform="translate(-54,-86) scale(1,1)"><path fill="none" stroke="#000000" d="M 64 106 L 453 106 L 453 447 L 64 447 L 64 106" stroke-miterlimit="10"/></g><g transform="translate(-54,-86) scale(1,1)"><path fill="none" stroke="#000000" d="M 64 106 L 74 96 L 463 96 L 453 106 L 64 106" stroke-miterlimit="10"/></g><g transform="translate(-54,-86) scale(1,1)"><path fill="none" stroke="#000000" d="M 463 96 L 453 106 L 453 447 L 463 437 L 463 96" stroke-miterlimit="10"/></g><g transform="translate(-54,-86) scale(1,1)"><g><path fill="none" stroke="none"/><text fill="#000000" stroke="none" font-family="Arial" font-size="13px" font-style="normal" font-weight="bold" text-decoration="none" x="233.70458984375" y="125.5">Backend</text></g></g><g transform="translate(-54,-86) scale(1,1)"><path fill="#C0C0C0" stroke="none" d="M 95 161 L 292 161 L 292 310 L 95 310" opacity="0.2"/></g><g transform="translate(-54,-86) scale(1,1)"><path fill="#C0C0C0" stroke="none" d="M 95 161 L 105 151 L 302 151 L 292 161" opacity="0.2"/></g><g transform="translate(-54,-86) scale(1,1)"><path fill="#C0C0C0" stroke="none" d="M 302 151 L 292 161 L 292 310 L 302 300" opacity="0.2"/></g><g transform="translate(-54,-86) scale(1,1)"><path fill="#ffffff" stroke="none" d="M 88 154 L 285 154 L 285 303 L 88 303"/></g><g transform="translate(-54,-86) scale(1,1)"><path fill="#ffffff" stroke="none" d="M 88 154 L 98 144 L 295 144 L 285 154"/></g><g transform="translate(-54,-86) scale(1,1)"><path fill="#ffffff" stroke="none" d="M 295 144 L 285 154 L 285 303 L 295 293"/></g><g transform="translate(-54,-86) scale(1,1)"><path fill="none" stroke="#000000" d="M 88 154 L 285 154 L 285 303 L 88 303 L 88 154" stroke-miterlimit="10"/></g><g transform="translate(-54,-86) scale(1,1)"><path fill="none" stroke="#000000" d="M 88 154 L 98 144 L 295 144 L 285 154 L 88 154" stroke-miterlimit="10"/></g><g transform="translate(-54,-86) scale(1,1)"><path fill="none" stroke="#000000" d="M 295 144 L 285 154 L 285 303 L 295 293 L 295 144" stroke-miterlimit="10"/></g><g transform="translate(-54,-86) scale(1,1)"><g><path fill="none" stroke="none"/><text fill="#000000" stroke="none" font-family="Arial" font-size="13px" font-style="normal" font-weight="bold" text-decoration="none" x="112.91650390625" y="173.5">cloudito-geolocation node</text></g></g><g transform="translate(-54,-86) scale(1,1)"><rect fill="#C0C0C0" stroke="none" x="137" y="199" width="146.82275390625" height="44" opacity="0.2"/></g><g transform="translate(-54,-86) scale(1,1)"><rect fill="#ffffff" stroke="none" x="130" y="192" width="146.82275390625" height="44"/></g><g transform="translate(-54,-86) scale(1,1)"><path fill="none" stroke="#000000" d="M 130 192 L 276.82275390625 192 L 276.82275390625 236 L 130 236 L 130 192 Z Z" stroke-miterlimit="10"/></g><g transform="translate(-54,-86) scale(1,1)"><rect fill="#ffffff" stroke="none" x="120" y="199" width="20" height="10"/></g><g transform="translate(-54,-86) scale(1,1)"><path fill="none" stroke="#000000" d="M 120 199 L 140 199 L 140 209 L 120 209 L 120 199 Z Z" stroke-miterlimit="10"/></g><g transform="translate(-54,-86) scale(1,1)"><rect fill="#ffffff" stroke="none" x="120" y="219" width="20" height="10"/></g><g transform="translate(-54,-86) scale(1,1)"><path fill="none" stroke="#000000" d="M 120 219 L 140 219 L 140 229 L 120 229 L 120 219 Z Z" stroke-miterlimit="10"/></g><g transform="translate(-54,-86) scale(1,1)"><g><path fill="none" stroke="none"/><text fill="#000000" stroke="none" font-family="Arial" font-size="13px" font-style="normal" font-weight="normal" text-decoration="none" x="193.957763671875" y="209.5">«jar»</text></g></g><g transform="translate(-54,-86) scale(1,1)"><g><path fill="none" stroke="none"/><text fill="#000000" stroke="none" font-family="Arial" font-size="13px" font-style="normal" font-weight="bold" text-decoration="none" x="150.59375" y="224.5">cloudito-geolocation</text></g></g><g transform="translate(-54,-86) scale(1,1)"><rect fill="#C0C0C0" stroke="none" x="145" y="255" width="98.44091796875" height="44" opacity="0.2"/></g><g transform="translate(-54,-86) scale(1,1)"><rect fill="#ffffff" stroke="none" x="138" y="248" width="98.44091796875" height="44"/></g><g transform="translate(-54,-86) scale(1,1)"><path fill="none" stroke="#000000" d="M 138 248 L 236.44091796875 248 L 236.44091796875 292 L 138 292 L 138 248 Z Z" stroke-miterlimit="10"/></g><g transform="translate(-54,-86) scale(1,1)"><rect fill="#ffffff" stroke="none" x="128" y="255" width="20" height="10"/></g><g transform="translate(-54,-86) scale(1,1)"><path fill="none" stroke="#000000" d="M 128 255 L 148 255 L 148 265 L 128 265 L 128 255 Z Z" stroke-miterlimit="10"/></g><g transform="translate(-54,-86) scale(1,1)"><rect fill="#ffffff" stroke="none" x="128" y="275" width="20" height="10"/></g><g transform="translate(-54,-86) scale(1,1)"><path fill="none" stroke="#000000" d="M 128 275 L 148 275 L 148 285 L 128 285 L 128 275 Z Z" stroke-miterlimit="10"/></g><g transform="translate(-54,-86) scale(1,1)"><g><path fill="none" stroke="none"/><text fill="#000000" stroke="none" font-family="Arial" font-size="13px" font-style="normal" font-weight="bold" text-decoration="none" x="171.6318359375" y="267.5">Docker</text></g></g><g transform="translate(-54,-86) scale(1,1)"><rect fill="#C0C0C0" stroke="none" x="113" y="383" width="98.44091796875" height="44" opacity="0.2"/></g><g transform="translate(-54,-86) scale(1,1)"><rect fill="#ffffff" stroke="none" x="106" y="376" width="98.44091796875" height="44"/></g><g transform="translate(-54,-86) scale(1,1)"><path fill="none" stroke="#000000" d="M 106 376 L 204.44091796875 376 L 204.44091796875 420 L 106 420 L 106 376 Z Z" stroke-miterlimit="10"/></g><g transform="translate(-54,-86) scale(1,1)"><rect fill="#ffffff" stroke="none" x="96" y="383" width="20" height="10"/></g><g transform="translate(-54,-86) scale(1,1)"><path fill="none" stroke="#000000" d="M 96 383 L 116 383 L 116 393 L 96 393 L 96 383 Z Z" stroke-miterlimit="10"/></g><g transform="translate(-54,-86) scale(1,1)"><rect fill="#ffffff" stroke="none" x="96" y="403" width="20" height="10"/></g><g transform="translate(-54,-86) scale(1,1)"><path fill="none" stroke="#000000" d="M 96 403 L 116 403 L 116 413 L 96 413 L 96 403 Z Z" stroke-miterlimit="10"/></g><g transform="translate(-54,-86) scale(1,1)"><g><path fill="none" stroke="none"/><text fill="#000000" stroke="none" font-family="Arial" font-size="13px" font-style="normal" font-weight="bold" text-decoration="none" x="127.701416015625" y="395.5">spring-boot</text></g></g><g transform="translate(-54,-86) scale(1,1)"><rect fill="#C0C0C0" stroke="none" x="289" y="335" width="165.61181640625" height="44" opacity="0.2"/></g><g transform="translate(-54,-86) scale(1,1)"><rect fill="#ffffff" stroke="none" x="282" y="328" width="165.61181640625" height="44"/></g><g transform="translate(-54,-86) scale(1,1)"><path fill="none" stroke="#000000" d="M 282 328 L 447.61181640625 328 L 447.61181640625 372 L 282 372 L 282 328 Z Z" stroke-miterlimit="10"/></g><g transform="translate(-54,-86) scale(1,1)"><rect fill="#ffffff" stroke="none" x="272" y="335" width="20" height="10"/></g><g transform="translate(-54,-86) scale(1,1)"><path fill="none" stroke="#000000" d="M 272 335 L 292 335 L 292 345 L 272 345 L 272 335 Z Z" stroke-miterlimit="10"/></g><g transform="translate(-54,-86) scale(1,1)"><rect fill="#ffffff" stroke="none" x="272" y="355" width="20" height="10"/></g><g transform="translate(-54,-86) scale(1,1)"><path fill="none" stroke="#000000" d="M 272 355 L 292 355 L 292 365 L 272 365 L 272 355 Z Z" stroke-miterlimit="10"/></g><g transform="translate(-54,-86) scale(1,1)"><g><path fill="none" stroke="none"/><text fill="#000000" stroke="none" font-family="Arial" font-size="13px" font-style="normal" font-weight="bold" text-decoration="none" x="302.61279296875" y="347.5">spring-boot-starter-web</text></g></g><g transform="translate(-54,-86) scale(1,1)"><rect fill="#C0C0C0" stroke="none" x="289" y="399" width="153.37353515625" height="44" opacity="0.2"/></g><g transform="translate(-54,-86) scale(1,1)"><rect fill="#ffffff" stroke="none" x="282" y="392" width="153.37353515625" height="44"/></g><g transform="translate(-54,-86) scale(1,1)"><path fill="none" stroke="#000000" d="M 282 392 L 435.37353515625 392 L 435.37353515625 436 L 282 436 L 282 392 Z Z" stroke-miterlimit="10"/></g><g transform="translate(-54,-86) scale(1,1)"><rect fill="#ffffff" stroke="none" x="272" y="399" width="20" height="10"/></g><g transform="translate(-54,-86) scale(1,1)"><path fill="none" stroke="#000000" d="M 272 399 L 292 399 L 292 409 L 272 409 L 272 399 Z Z" stroke-miterlimit="10"/></g><g transform="translate(-54,-86) scale(1,1)"><rect fill="#ffffff" stroke="none" x="272" y="419" width="20" height="10"/></g><g transform="translate(-54,-86) scale(1,1)"><path fill="none" stroke="#000000" d="M 272 419 L 292 419 L 292 429 L 272 429 L 272 419 Z Z" stroke-miterlimit="10"/></g><g transform="translate(-54,-86) scale(1,1)"><g><path fill="none" stroke="none"/><text fill="#000000" stroke="none" font-family="Arial" font-size="13px" font-style="normal" font-weight="bold" text-decoration="none" x="301.91455078125" y="411.5">mysql-connector-java</text></g></g><g transform="translate(-54,-86) scale(1,1)"><path fill="none" stroke="#000000" d="M 205 385 L 271 370" stroke-miterlimit="10" stroke-dasharray="3"/></g><g transform="translate(-54,-86) scale(1,1)"><path fill="none" stroke="#000000" d="M 262.0229598142705 376.35710228829123 L 271 370 L 260.1571238729393 368.1474241464338" stroke-miterlimit="10"/></g><g transform="translate(-54,-86) scale(1,1)"><path fill="none" stroke="#000000" d="M 205 402 L 271 408" stroke-miterlimit="10" stroke-dasharray="3"/></g><g transform="translate(-54,-86) scale(1,1)"><path fill="none" stroke="#000000" d="M 260.49794931923185 411.27214478569897 L 271 408 L 261.2601729802721 402.88768451425597" stroke-miterlimit="10"/></g><g transform="translate(-54,-86) scale(1,1)"><path fill="#C0C0C0" stroke="none" d="M 607 113 L 859 113 L 859 222 L 607 222" opacity="0.2"/></g><g transform="translate(-54,-86) scale(1,1)"><path fill="#C0C0C0" stroke="none" d="M 607 113 L 617 103 L 869 103 L 859 113" opacity="0.2"/></g><g transform="translate(-54,-86) scale(1,1)"><path fill="#C0C0C0" stroke="none" d="M 869 103 L 859 113 L 859 222 L 869 212" opacity="0.2"/></g><g transform="translate(-54,-86) scale(1,1)"><path fill="#ffffff" stroke="none" d="M 600 106 L 852 106 L 852 215 L 600 215"/></g><g transform="translate(-54,-86) scale(1,1)"><path fill="#ffffff" stroke="none" d="M 600 106 L 610 96 L 862 96 L 852 106"/></g><g transform="translate(-54,-86) scale(1,1)"><path fill="#ffffff" stroke="none" d="M 862 96 L 852 106 L 852 215 L 862 205"/></g><g transform="translate(-54,-86) scale(1,1)"><path fill="none" stroke="#000000" d="M 600 106 L 852 106 L 852 215 L 600 215 L 600 106" stroke-miterlimit="10"/></g><g transform="translate(-54,-86) scale(1,1)"><path fill="none" stroke="#000000" d="M 600 106 L 610 96 L 862 96 L 852 106 L 600 106" stroke-miterlimit="10"/></g><g transform="translate(-54,-86) scale(1,1)"><path fill="none" stroke="#000000" d="M 862 96 L 852 106 L 852 215 L 862 205 L 862 96" stroke-miterlimit="10"/></g><g transform="translate(-54,-86) scale(1,1)"><g><path fill="none" stroke="none"/><text fill="#000000" stroke="none" font-family="Arial" font-size="13px" font-style="normal" font-weight="bold" text-decoration="none" x="652.06103515625" y="125.5">PreProd_Database_Node</text></g></g><g transform="translate(-54,-86) scale(1,1)"><rect fill="#C0C0C0" stroke="none" x="697" y="159" width="122.32080078125" height="44" opacity="0.2"/></g><g transform="translate(-54,-86) scale(1,1)"><rect fill="#ffffff" stroke="none" x="690" y="152" width="122.32080078125" height="44"/></g><g transform="translate(-54,-86) scale(1,1)"><path fill="none" stroke="#000000" d="M 690 152 L 812.32080078125 152 L 812.32080078125 196 L 690 196 L 690 152 Z Z" stroke-miterlimit="10"/></g><g transform="translate(-54,-86) scale(1,1)"><rect fill="#ffffff" stroke="none" x="680" y="159" width="20" height="10"/></g><g transform="translate(-54,-86) scale(1,1)"><path fill="none" stroke="#000000" d="M 680 159 L 700 159 L 700 169 L 680 169 L 680 159 Z Z" stroke-miterlimit="10"/></g><g transform="translate(-54,-86) scale(1,1)"><rect fill="#ffffff" stroke="none" x="680" y="179" width="20" height="10"/></g><g transform="translate(-54,-86) scale(1,1)"><path fill="none" stroke="#000000" d="M 680 179 L 700 179 L 700 189 L 680 189 L 680 179 Z Z" stroke-miterlimit="10"/></g><g transform="translate(-54,-86) scale(1,1)"><g><path fill="none" stroke="none"/><text fill="#000000" stroke="none" font-family="Arial" font-size="13px" font-style="normal" font-weight="bold" text-decoration="none" x="706.661376953125" y="171.5">MySql_Database</text></g></g><g transform="translate(-54,-86) scale(1,1)"><path fill="#C0C0C0" stroke="none" d="M 542.7099609375 170.5 C 542.7099609375 164.1487248 547.8586857375 159 554.2099609375 159 C 560.5612361375 159 565.7099609375 164.1487248 565.7099609375 170.5 C 565.7099609375 176.8512752 560.5612361375 182 554.2099609375 182 C 547.8586857375 182 542.7099609375 176.8512752 542.7099609375 170.5 Z" opacity="0.2"/></g><g transform="translate(-54,-86) scale(1,1)"><path fill="none" stroke="#000000" d="M 553.5595518091965 172.4457546052429 A 11.5 11.5 0 1 1 540.4404481908035 153.5542453947571" stroke-miterlimit="10"/></g><g transform="translate(-54,-86) scale(1,1)"><path fill="#ffffff" stroke="none" d="M 538.7099609375 163.5 C 538.7099609375 158.8055792 542.5155401375 155 547.2099609375 155 C 551.9043817375 155 555.7099609375 158.8055792 555.7099609375 163.5 C 555.7099609375 168.1944208 551.9043817375 172 547.2099609375 172 C 542.5155401375 172 538.7099609375 168.1944208 538.7099609375 163.5 Z"/></g><g transform="translate(-54,-86) scale(1,1)"><path fill="none" stroke="#000000" d="M 538.7099609375 163.5 C 538.7099609375 158.8055792 542.5155401375 155 547.2099609375 155 C 551.9043817375 155 555.7099609375 158.8055792 555.7099609375 163.5 C 555.7099609375 168.1944208 551.9043817375 172 547.2099609375 172 C 542.5155401375 172 538.7099609375 168.1944208 538.7099609375 163.5 Z" stroke-miterlimit="10"/></g><g transform="translate(-54,-86) scale(1,1)"><g><path fill="none" stroke="none"/><text fill="#000000" stroke="none" font-family="Arial" font-size="13px" font-style="normal" font-weight="bold" text-decoration="none" x="530.236328125" y="194.5">JDBC</text></g></g><g transform="translate(-54,-86) scale(1,1)"><path fill="none" stroke="#000000" d="M 599 170 L 558.7099609375 165.927490234375" stroke-miterlimit="10"/></g><g transform="translate(-54,-86) scale(1,1)"><path fill="none" stroke="#000000" d="M 465 204 L 535.7099609375 170.84030490451389" stroke-miterlimit="10"/></g><g transform="translate(-54,-86) scale(1,1)"><path fill="#C0C0C0" stroke="none" d="M 607 273 L 1004 273 L 1004 526 L 607 526" opacity="0.2"/></g><g transform="translate(-54,-86) scale(1,1)"><path fill="#C0C0C0" stroke="none" d="M 607 273 L 617 263 L 1014 263 L 1004 273" opacity="0.2"/></g><g transform="translate(-54,-86) scale(1,1)"><path fill="#C0C0C0" stroke="none" d="M 1014 263 L 1004 273 L 1004 526 L 1014 516" opacity="0.2"/></g><g transform="translate(-54,-86) scale(1,1)"><path fill="#ffffff" stroke="none" d="M 600 266 L 997 266 L 997 519 L 600 519"/></g><g transform="translate(-54,-86) scale(1,1)"><path fill="#ffffff" stroke="none" d="M 600 266 L 610 256 L 1007 256 L 997 266"/></g><g transform="translate(-54,-86) scale(1,1)"><path fill="#ffffff" stroke="none" d="M 1007 256 L 997 266 L 997 519 L 1007 509"/></g><g transform="translate(-54,-86) scale(1,1)"><path fill="none" stroke="#000000" d="M 600 266 L 997 266 L 997 519 L 600 519 L 600 266" stroke-miterlimit="10"/></g><g transform="translate(-54,-86) scale(1,1)"><path fill="none" stroke="#000000" d="M 600 266 L 610 256 L 1007 256 L 997 266 L 600 266" stroke-miterlimit="10"/></g><g transform="translate(-54,-86) scale(1,1)"><path fill="none" stroke="#000000" d="M 1007 256 L 997 266 L 997 519 L 1007 509 L 1007 256" stroke-miterlimit="10"/></g><g transform="translate(-54,-86) scale(1,1)"><g><path fill="none" stroke="none"/><text fill="#000000" stroke="none" font-family="Arial" font-size="13px" font-style="normal" font-weight="normal" text-decoration="none" x="781.2900390625" y="283.5">«apk»</text></g></g><g transform="translate(-54,-86) scale(1,1)"><g><path fill="none" stroke="none"/><text fill="#000000" stroke="none" font-family="Arial" font-size="13px" font-style="normal" font-weight="bold" text-decoration="none" x="742.274169921875" y="298.5">cloudito-mobile-app</text></g></g><g transform="translate(-54,-86) scale(1,1)"><path fill="#C0C0C0" stroke="none" d="M 550.7099609375 354.5 C 550.7099609375 348.1487248 555.8586857375 343 562.2099609375 343 C 568.5612361375 343 573.7099609375 348.1487248 573.7099609375 354.5 C 573.7099609375 360.8512752 568.5612361375 366 562.2099609375 366 C 555.8586857375 366 550.7099609375 360.8512752 550.7099609375 354.5 Z" opacity="0.2"/></g><g transform="translate(-54,-86) scale(1,1)"><path fill="none" stroke="#000000" d="M 559.91057251219 336.6011405624211 A 11.5 11.5 0 0 1 550.08942748781 357.3988594375789" stroke-miterlimit="10"/></g><g transform="translate(-54,-86) scale(1,1)"><path fill="#ffffff" stroke="none" d="M 546.7099609375 347.5 C 546.7099609375 342.8055792 550.5155401375 339 555.2099609375 339 C 559.9043817375 339 563.7099609375 342.8055792 563.7099609375 347.5 C 563.7099609375 352.1944208 559.9043817375 356 555.2099609375 356 C 550.5155401375 356 546.7099609375 352.1944208 546.7099609375 347.5 Z"/></g><g transform="translate(-54,-86) scale(1,1)"><path fill="none" stroke="#000000" d="M 546.7099609375 347.5 C 546.7099609375 342.8055792 550.5155401375 339 555.2099609375 339 C 559.9043817375 339 563.7099609375 342.8055792 563.7099609375 347.5 C 563.7099609375 352.1944208 559.9043817375 356 555.2099609375 356 C 550.5155401375 356 546.7099609375 352.1944208 546.7099609375 347.5 Z" stroke-miterlimit="10"/></g><g transform="translate(-54,-86) scale(1,1)"><g><path fill="none" stroke="none"/><text fill="#000000" stroke="none" font-family="Arial" font-size="13px" font-style="normal" font-weight="bold" text-decoration="none" x="537.87451171875" y="378.5">REST</text></g></g><g transform="translate(-54,-86) scale(1,1)"><path fill="none" stroke="#000000" d="M 465 333 L 543.7099609375 347.6272243923611" stroke-miterlimit="10"/></g><g transform="translate(-54,-86) scale(1,1)"><path fill="none" stroke="#000000" d="M 599 365 L 566.7099609375 352.5297037760417" stroke-miterlimit="10"/></g><g transform="translate(-54,-86) scale(1,1)"><path fill="#C0C0C0" stroke="none" d="M 655 345 L 804 345 L 804 502 L 655 502" opacity="0.2"/></g><g transform="translate(-54,-86) scale(1,1)"><path fill="#C0C0C0" stroke="none" d="M 655 345 L 665 335 L 814 335 L 804 345" opacity="0.2"/></g><g transform="translate(-54,-86) scale(1,1)"><path fill="#C0C0C0" stroke="none" d="M 814 335 L 804 345 L 804 502 L 814 492" opacity="0.2"/></g><g transform="translate(-54,-86) scale(1,1)"><path fill="#ffffff" stroke="none" d="M 648 338 L 797 338 L 797 495 L 648 495"/></g><g transform="translate(-54,-86) scale(1,1)"><path fill="#ffffff" stroke="none" d="M 648 338 L 658 328 L 807 328 L 797 338"/></g><g transform="translate(-54,-86) scale(1,1)"><path fill="#ffffff" stroke="none" d="M 807 328 L 797 338 L 797 495 L 807 485"/></g><g transform="translate(-54,-86) scale(1,1)"><path fill="none" stroke="#000000" d="M 648 338 L 797 338 L 797 495 L 648 495 L 648 338" stroke-miterlimit="10"/></g><g transform="translate(-54,-86) scale(1,1)"><path fill="none" stroke="#000000" d="M 648 338 L 658 328 L 807 328 L 797 338 L 648 338" stroke-miterlimit="10"/></g><g transform="translate(-54,-86) scale(1,1)"><path fill="none" stroke="#000000" d="M 807 328 L 797 338 L 797 495 L 807 485 L 807 328" stroke-miterlimit="10"/></g><g transform="translate(-54,-86) scale(1,1)"><g><path fill="none" stroke="none"/><text fill="#000000" stroke="none" font-family="Arial" font-size="13px" font-style="normal" font-weight="bold" text-decoration="none" x="665.182373046875" y="357.5">cloudito-geolocation</text></g></g><g transform="translate(-54,-86) scale(1,1)"><rect fill="#C0C0C0" stroke="none" x="849" y="343" width="130.21728515625" height="44" opacity="0.2"/></g><g transform="translate(-54,-86) scale(1,1)"><rect fill="#ffffff" stroke="none" x="842" y="336" width="130.21728515625" height="44"/></g><g transform="translate(-54,-86) scale(1,1)"><path fill="none" stroke="#000000" d="M 842 336 L 972.21728515625 336 L 972.21728515625 380 L 842 380 L 842 336 Z Z" stroke-miterlimit="10"/></g><g transform="translate(-54,-86) scale(1,1)"><rect fill="#ffffff" stroke="none" x="832" y="343" width="20" height="10"/></g><g transform="translate(-54,-86) scale(1,1)"><path fill="none" stroke="#000000" d="M 832 343 L 852 343 L 852 353 L 832 353 L 832 343 Z Z" stroke-miterlimit="10"/></g><g transform="translate(-54,-86) scale(1,1)"><rect fill="#ffffff" stroke="none" x="832" y="363" width="20" height="10"/></g><g transform="translate(-54,-86) scale(1,1)"><path fill="none" stroke="#000000" d="M 832 363 L 852 363 L 852 373 L 832 373 L 832 363 Z Z" stroke-miterlimit="10"/></g><g transform="translate(-54,-86) scale(1,1)"><g><path fill="none" stroke="none"/><text fill="#000000" stroke="none" font-family="Arial" font-size="13px" font-style="normal" font-weight="normal" text-decoration="none" x="897.655029296875" y="353.5">«jar»</text></g></g><g transform="translate(-54,-86) scale(1,1)"><g><path fill="none" stroke="none"/><text fill="#000000" stroke="none" font-family="Arial" font-size="13px" font-style="normal" font-weight="bold" text-decoration="none" x="861.52734375" y="368.5">osmdroid-android</text></g></g><g transform="translate(-54,-86) scale(1,1)"><rect fill="#C0C0C0" stroke="none" x="849" y="399" width="121.58447265625" height="44" opacity="0.2"/></g><g transform="translate(-54,-86) scale(1,1)"><rect fill="#ffffff" stroke="none" x="842" y="392" width="121.58447265625" height="44"/></g><g transform="translate(-54,-86) scale(1,1)"><path fill="none" stroke="#000000" d="M 842 392 L 963.58447265625 392 L 963.58447265625 436 L 842 436 L 842 392 Z Z" stroke-miterlimit="10"/></g><g transform="translate(-54,-86) scale(1,1)"><rect fill="#ffffff" stroke="none" x="832" y="399" width="20" height="10"/></g><g transform="translate(-54,-86) scale(1,1)"><path fill="none" stroke="#000000" d="M 832 399 L 852 399 L 852 409 L 832 409 L 832 399 Z Z" stroke-miterlimit="10"/></g><g transform="translate(-54,-86) scale(1,1)"><rect fill="#ffffff" stroke="none" x="832" y="419" width="20" height="10"/></g><g transform="translate(-54,-86) scale(1,1)"><path fill="none" stroke="#000000" d="M 832 419 L 852 419 L 852 429 L 832 429 L 832 419 Z Z" stroke-miterlimit="10"/></g><g transform="translate(-54,-86) scale(1,1)"><g><path fill="none" stroke="none"/><text fill="#000000" stroke="none" font-family="Arial" font-size="13px" font-style="normal" font-weight="normal" text-decoration="none" x="893.338623046875" y="409.5">«jar»</text></g></g><g transform="translate(-54,-86) scale(1,1)"><g><path fill="none" stroke="none"/><text fill="#000000" stroke="none" font-family="Arial" font-size="13px" font-style="normal" font-weight="bold" text-decoration="none" x="864.07275390625" y="424.5">osmbonuspack</text></g></g><g transform="translate(-54,-86) scale(1,1)"><rect fill="#C0C0C0" stroke="none" x="329" y="215" width="124.47265625" height="44" opacity="0.2"/></g><g transform="translate(-54,-86) scale(1,1)"><rect fill="#ffffff" stroke="none" x="322" y="208" width="124.47265625" height="44"/></g><g transform="translate(-54,-86) scale(1,1)"><path fill="none" stroke="#000000" d="M 322 208 L 446.47265625 208 L 446.47265625 252 L 322 252 L 322 208 Z Z" stroke-miterlimit="10"/></g><g transform="translate(-54,-86) scale(1,1)"><rect fill="#ffffff" stroke="none" x="312" y="215" width="20" height="10"/></g><g transform="translate(-54,-86) scale(1,1)"><path fill="none" stroke="#000000" d="M 312 215 L 332 215 L 332 225 L 312 225 L 312 215 Z Z" stroke-miterlimit="10"/></g><g transform="translate(-54,-86) scale(1,1)"><rect fill="#ffffff" stroke="none" x="312" y="235" width="20" height="10"/></g><g transform="translate(-54,-86) scale(1,1)"><path fill="none" stroke="#000000" d="M 312 235 L 332 235 L 332 245 L 312 245 L 312 235 Z Z" stroke-miterlimit="10"/></g><g transform="translate(-54,-86) scale(1,1)"><g><path fill="none" stroke="none"/><text fill="#000000" stroke="none" font-family="Arial" font-size="13px" font-style="normal" font-weight="bold" text-decoration="none" x="341.194091796875" y="227.5">properties-mysql</text></g></g></g></svg>