<svg version="1.1" xmlns="http://www.w3.org/2000/svg" xmlns:xlink="http://www.w3.org/1999/xlink" width="1720.44091796875" height="408"><defs/><g><text fill="#eeeeee" stroke="none" font-family="Arial" font-size="24px" font-style="normal" font-weight="normal" text-decoration="none" x="0" y="0">UNREGISTERED</text><text fill="#eeeeee" stroke="none" font-family="Arial" font-size="24px" font-style="normal" font-weight="normal" text-decoration="none" x="0" y="30">UNREGISTERED</text><text fill="#eeeeee" stroke="none" font-family="Arial" font-size="24px" font-style="normal" font-weight="normal" text-decoration="none" x="0" y="60">UNREGISTERED</text><text fill="#eeeeee" stroke="none" font-family="Arial" font-size="24px" font-style="normal" font-weight="normal" text-decoration="none" x="0" y="90">UNREGISTERED</text><text fill="#eeeeee" stroke="none" font-family="Arial" font-size="24px" font-style="normal" font-weight="normal" text-decoration="none" x="0" y="120">UNREGISTERED</text><text fill="#eeeeee" stroke="none" font-family="Arial" font-size="24px" font-style="normal" font-weight="normal" text-decoration="none" x="0" y="150">UNREGISTERED</text><text fill="#eeeeee" stroke="none" font-family="Arial" font-size="24px" font-style="normal" font-weight="normal" text-decoration="none" x="0" y="180">UNREGISTERED</text><text fill="#eeeeee" stroke="none" font-family="Arial" font-size="24px" font-style="normal" font-weight="normal" text-decoration="none" x="0" y="210">UNREGISTERED</text><text fill="#eeeeee" stroke="none" font-family="Arial" font-size="24px" font-style="normal" font-weight="normal" text-decoration="none" x="0" y="240">UNREGISTERED</text><text fill="#eeeeee" stroke="none" font-family="Arial" font-size="24px" font-style="normal" font-weight="normal" text-decoration="none" x="0" y="270">UNREGISTERED</text><text fill="#eeeeee" stroke="none" font-family="Arial" font-size="24px" font-style="normal" font-weight="normal" text-decoration="none" x="0" y="300">UNREGISTERED</text><text fill="#eeeeee" stroke="none" font-family="Arial" font-size="24px" font-style="normal" font-weight="normal" text-decoration="none" x="0" y="330">UNREGISTERED</text><text fill="#eeeeee" stroke="none" font-family="Arial" font-size="24px" font-style="normal" font-weight="normal" text-decoration="none" x="0" y="360">UNREGISTERED</text><text fill="#eeeeee" stroke="none" font-family="Arial" font-size="24px" font-style="normal" font-weight="normal" text-decoration="none" x="0" y="390">UNREGISTERED</text><text fill="#eeeeee" stroke="none" font-family="Arial" font-size="24px" font-style="normal" font-weight="normal" text-decoration="none" x="200" y="0">UNREGISTERED</text><text fill="#eeeeee" stroke="none" font-family="Arial" font-size="24px" font-style="normal" font-weight="normal" text-decoration="none" x="200" y="30">UNREGISTERED</text><text fill="#eeeeee" stroke="none" font-family="Arial" font-size="24px" font-style="normal" font-weight="normal" text-decoration="none" x="200" y="60">UNREGISTERED</text><text fill="#eeeeee" stroke="none" font-family="Arial" font-size="24px" font-style="normal" font-weight="normal" text-decoration="none" x="200" y="90">UNREGISTERED</text><text fill="#eeeeee" stroke="none" font-family="Arial" font-size="24px" font-style="normal" font-weight="normal" text-decoration="none" x="200" y="120">UNREGISTERED</text><text fill="#eeeeee" stroke="none" font-family="Arial" font-size="24px" font-style="normal" font-weight="normal" text-decoration="none" x="200" y="150">UNREGISTERED</text><text fill="#eeeeee" stroke="none" font-family="Arial" font-size="24px" font-style="normal" font-weight="normal" text-decoration="none" x="200" y="180">UNREGISTERED</text><text fill="#eeeeee" stroke="none" font-family="Arial" font-size="24px" font-style="normal" font-weight="normal" text-decoration="none" x="200" y="210">UNREGISTERED</text><text fill="#eeeeee" stroke="none" font-family="Arial" font-size="24px" font-style="normal" font-weight="normal" text-decoration="none" x="200" y="240">UNREGISTERED</text><text fill="#eeeeee" stroke="none" font-family="Arial" font-size="24px" font-style="normal" font-weight="normal" text-decoration="none" x="200" y="270">UNREGISTERED</text><text fill="#eeeeee" stroke="none" font-family="Arial" font-size="24px" font-style="normal" font-weight="normal" text-decoration="none" x="200" y="300">UNREGISTERED</text><text fill="#eeeeee" stroke="none" font-family="Arial" font-size="24px" font-style="normal" font-weight="normal" text-decoration="none" x="200" y="330">UNREGISTERED</text><text fill="#eeeeee" stroke="none" font-family="Arial" font-size="24px" font-style="normal" font-weight="normal" text-decoration="none" x="200" y="360">UNREGISTERED</text><text fill="#eeeeee" stroke="none" font-family="Arial" font-size="24px" font-style="normal" font-weight="normal" text-decoration="none" x="200" y="390">UNREGISTERED</text><text fill="#eeeeee" stroke="none" font-family="Arial" font-size="24px" font-style="normal" font-weight="normal" text-decoration="none" x="400" y="0">UNREGISTERED</text><text fill="#eeeeee" stroke="none" font-family="Arial" font-size="24px" font-style="normal" font-weight="normal" text-decoration="none" x="400" y="30">UNREGISTERED</text><text fill="#eeeeee" stroke="none" font-family="Arial" font-size="24px" font-style="normal" font-weight="normal" text-decoration="none" x="400" y="60">UNREGISTERED</text><text fill="#eeeeee" stroke="none" font-family="Arial" font-size="24px" font-style="normal" font-weight="normal" text-decoration="none" x="400" y="90">UNREGISTERED</text><text fill="#eeeeee" stroke="none" font-family="Arial" font-size="24px" font-style="normal" font-weight="normal" text-decoration="none" x="400" y="120">UNREGISTERED</text><text fill="#eeeeee" stroke="none" font-family="Arial" font-size="24px" font-style="normal" font-weight="normal" text-decoration="none" x="400" y="150">UNREGISTERED</text><text fill="#eeeeee" stroke="none" font-family="Arial" font-size="24px" font-style="normal" font-weight="normal" text-decoration="none" x="400" y="180">UNREGISTERED</text><text fill="#eeeeee" stroke="none" font-family="Arial" font-size="24px" font-style="normal" font-weight="normal" text-decoration="none" x="400" y="210">UNREGISTERED</text><text fill="#eeeeee" stroke="none" font-family="Arial" font-size="24px" font-style="normal" font-weight="normal" text-decoration="none" x="400" y="240">UNREGISTERED</text><text fill="#eeeeee" stroke="none" font-family="Arial" font-size="24px" font-style="normal" font-weight="normal" text-decoration="none" x="400" y="270">UNREGISTERED</text><text fill="#eeeeee" stroke="none" font-family="Arial" font-size="24px" font-style="normal" font-weight="normal" text-decoration="none" x="400" y="300">UNREGISTERED</text><text fill="#eeeeee" stroke="none" font-family="Arial" font-size="24px" font-style="normal" font-weight="normal" text-decoration="none" x="400" y="330">UNREGISTERED</text><text fill="#eeeeee" stroke="none" font-family="Arial" font-size="24px" font-style="normal" font-weight="normal" text-decoration="none" x="400" y="360">UNREGISTERED</text><text fill="#eeeeee" stroke="none" font-family="Arial" font-size="24px" font-style="normal" font-weight="normal" text-decoration="none" x="400" y="390">UNREGISTERED</text><text fill="#eeeeee" stroke="none" font-family="Arial" font-size="24px" font-style="normal" font-weight="normal" text-decoration="none" x="600" y="0">UNREGISTERED</text><text fill="#eeeeee" stroke="none" font-family="Arial" font-size="24px" font-style="normal" font-weight="normal" text-decoration="none" x="600" y="30">UNREGISTERED</text><text fill="#eeeeee" stroke="none" font-family="Arial" font-size="24px" font-style="normal" font-weight="normal" text-decoration="none" x="600" y="60">UNREGISTERED</text><text fill="#eeeeee" stroke="none" font-family="Arial" font-size="24px" font-style="normal" font-weight="normal" text-decoration="none" x="600" y="90">UNREGISTERED</text><text fill="#eeeeee" stroke="none" font-family="Arial" font-size="24px" font-style="normal" font-weight="normal" text-decoration="none" x="600" y="120">UNREGISTERED</text><text fill="#eeeeee" stroke="none" font-family="Arial" font-size="24px" font-style="normal" font-weight="normal" text-decoration="none" x="600" y="150">UNREGISTERED</text><text fill="#eeeeee" stroke="none" font-family="Arial" font-size="24px" font-style="normal" font-weight="normal" text-decoration="none" x="600" y="180">UNREGISTERED</text><text fill="#eeeeee" stroke="none" font-family="Arial" font-size="24px" font-style="normal" font-weight="normal" text-decoration="none" x="600" y="210">UNREGISTERED</text><text fill="#eeeeee" stroke="none" font-family="Arial" font-size="24px" font-style="normal" font-weight="normal" text-decoration="none" x="600" y="240">UNREGISTERED</text><text fill="#eeeeee" stroke="none" font-family="Arial" font-size="24px" font-style="normal" font-weight="normal" text-decoration="none" x="600" y="270">UNREGISTERED</text><text fill="#eeeeee" stroke="none" font-family="Arial" font-size="24px" font-style="normal" font-weight="normal" text-decoration="none" x="600" y="300">UNREGISTERED</text><text fill="#eeeeee" stroke="none" font-family="Arial" font-size="24px" font-style="normal" font-weight="normal" text-decoration="none" x="600" y="330">UNREGISTERED</text><text fill="#eeeeee" stroke="none" font-family="Arial" font-size="24px" font-style="normal" font-weight="normal" text-decoration="none" x="600" y="360">UNREGISTERED</text><text fill="#eeeeee" stroke="none" font-family="Arial" font-size="24px" font-style="normal" font-weight="normal" text-decoration="none" x="600" y="390">UNREGISTERED</text><text fill="#eeeeee" stroke="none" font-family="Arial" font-size="24px" font-style="normal" font-weight="normal" text-decoration="none" x="800" y="0">UNREGISTERED</text><text fill="#eeeeee" stroke="none" font-family="Arial" font-size="24px" font-style="normal" font-weight="normal" text-decoration="none" x="800" y="30">UNREGISTERED</text><text fill="#eeeeee" stroke="none" font-family="Arial" font-size="24px" font-style="normal" font-weight="normal" text-decoration="none" x="800" y="60">UNREGISTERED</text><text fill="#eeeeee" stroke="none" font-family="Arial" font-size="24px" font-style="normal" font-weight="normal" text-decoration="none" x="800" y="90">UNREGISTERED</text><text fill="#eeeeee" stroke="none" font-family="Arial" font-size="24px" font-style="normal" font-weight="normal" text-decoration="none" x="800" y="120">UNREGISTERED</text><text fill="#eeeeee" stroke="none" font-family="Arial" font-size="24px" font-style="normal" font-weight="normal" text-decoration="none" x="800" y="150">UNREGISTERED</text><text fill="#eeeeee" stroke="none" font-family="Arial" font-size="24px" font-style="normal" font-weight="normal" text-decoration="none" x="800" y="180">UNREGISTERED</text><text fill="#eeeeee" stroke="none" font-family="Arial" font-size="24px" font-style="normal" font-weight="normal" text-decoration="none" x="800" y="210">UNREGISTERED</text><text fill="#eeeeee" stroke="none" font-family="Arial" font-size="24px" font-style="normal" font-weight="normal" text-decoration="none" x="800" y="240">UNREGISTERED</text><text fill="#eeeeee" stroke="none" font-family="Arial" font-size="24px" font-style="normal" font-weight="normal" text-decoration="none" x="800" y="270">UNREGISTERED</text><text fill="#eeeeee" stroke="none" font-family="Arial" font-size="24px" font-style="normal" font-weight="normal" text-decoration="none" x="800" y="300">UNREGISTERED</text><text fill="#eeeeee" stroke="none" font-family="Arial" font-size="24px" font-style="normal" font-weight="normal" text-decoration="none" x="800" y="330">UNREGISTERED</text><text fill="#eeeeee" stroke="none" font-family="Arial" font-size="24px" font-style="normal" font-weight="normal" text-decoration="none" x="800" y="360">UNREGISTERED</text><text fill="#eeeeee" stroke="none" font-family="Arial" font-size="24px" font-style="normal" font-weight="normal" text-decoration="none" x="800" y="390">UNREGISTERED</text><text fill="#eeeeee" stroke="none" font-family="Arial" font-size="24px" font-style="normal" font-weight="normal" text-decoration="none" x="1000" y="0">UNREGISTERED</text><text fill="#eeeeee" stroke="none" font-family="Arial" font-size="24px" font-style="normal" font-weight="normal" text-decoration="none" x="1000" y="30">UNREGISTERED</text><text fill="#eeeeee" stroke="none" font-family="Arial" font-size="24px" font-style="normal" font-weight="normal" text-decoration="none" x="1000" y="60">UNREGISTERED</text><text fill="#eeeeee" stroke="none" font-family="Arial" font-size="24px" font-style="normal" font-weight="normal" text-decoration="none" x="1000" y="90">UNREGISTERED</text><text fill="#eeeeee" stroke="none" font-family="Arial" font-size="24px" font-style="normal" font-weight="normal" text-decoration="none" x="1000" y="120">UNREGISTERED</text><text fill="#eeeeee" stroke="none" font-family="Arial" font-size="24px" font-style="normal" font-weight="normal" text-decoration="none" x="1000" y="150">UNREGISTERED</text><text fill="#eeeeee" stroke="none" font-family="Arial" font-size="24px" font-style="normal" font-weight="normal" text-decoration="none" x="1000" y="180">UNREGISTERED</text><text fill="#eeeeee" stroke="none" font-family="Arial" font-size="24px" font-style="normal" font-weight="normal" text-decoration="none" x="1000" y="210">UNREGISTERED</text><text fill="#eeeeee" stroke="none" font-family="Arial" font-size="24px" font-style="normal" font-weight="normal" text-decoration="none" x="1000" y="240">UNREGISTERED</text><text fill="#eeeeee" stroke="none" font-family="Arial" font-size="24px" font-style="normal" font-weight="normal" text-decoration="none" x="1000" y="270">UNREGISTERED</text><text fill="#eeeeee" stroke="none" font-family="Arial" font-size="24px" font-style="normal" font-weight="normal" text-decoration="none" x="1000" y="300">UNREGISTERED</text><text fill="#eeeeee" stroke="none" font-family="Arial" font-size="24px" font-style="normal" font-weight="normal" text-decoration="none" x="1000" y="330">UNREGISTERED</text><text fill="#eeeeee" stroke="none" font-family="Arial" font-size="24px" font-style="normal" font-weight="normal" text-decoration="none" x="1000" y="360">UNREGISTERED</text><text fill="#eeeeee" stroke="none" font-family="Arial" font-size="24px" font-style="normal" font-weight="normal" text-decoration="none" x="1000" y="390">UNREGISTERED</text><text fill="#eeeeee" stroke="none" font-family="Arial" font-size="24px" font-style="normal" font-weight="normal" text-decoration="none" x="1200" y="0">UNREGISTERED</text><text fill="#eeeeee" stroke="none" font-family="Arial" font-size="24px" font-style="normal" font-weight="normal" text-decoration="none" x="1200" y="30">UNREGISTERED</text><text fill="#eeeeee" stroke="none" font-family="Arial" font-size="24px" font-style="normal" font-weight="normal" text-decoration="none" x="1200" y="60">UNREGISTERED</text><text fill="#eeeeee" stroke="none" font-family="Arial" font-size="24px" font-style="normal" font-weight="normal" text-decoration="none" x="1200" y="90">UNREGISTERED</text><text fill="#eeeeee" stroke="none" font-family="Arial" font-size="24px" font-style="normal" font-weight="normal" text-decoration="none" x="1200" y="120">UNREGISTERED</text><text fill="#eeeeee" stroke="none" font-family="Arial" font-size="24px" font-style="normal" font-weight="normal" text-decoration="none" x="1200" y="150">UNREGISTERED</text><text fill="#eeeeee" stroke="none" font-family="Arial" font-size="24px" font-style="normal" font-weight="normal" text-decoration="none" x="1200" y="180">UNREGISTERED</text><text fill="#eeeeee" stroke="none" font-family="Arial" font-size="24px" font-style="normal" font-weight="normal" text-decoration="none" x="1200" y="210">UNREGISTERED</text><text fill="#eeeeee" stroke="none" font-family="Arial" font-size="24px" font-style="normal" font-weight="normal" text-decoration="none" x="1200" y="240">UNREGISTERED</text><text fill="#eeeeee" stroke="none" font-family="Arial" font-size="24px" font-style="normal" font-weight="normal" text-decoration="none" x="1200" y="270">UNREGISTERED</text><text fill="#eeeeee" stroke="none" font-family="Arial" font-size="24px" font-style="normal" font-weight="normal" text-decoration="none" x="1200" y="300">UNREGISTERED</text><text fill="#eeeeee" stroke="none" font-family="Arial" font-size="24px" font-style="normal" font-weight="normal" text-decoration="none" x="1200" y="330">UNREGISTERED</text><text fill="#eeeeee" stroke="none" font-family="Arial" font-size="24px" font-style="normal" font-weight="normal" text-decoration="none" x="1200" y="360">UNREGISTERED</text><text fill="#eeeeee" stroke="none" font-family="Arial" font-size="24px" font-style="normal" font-weight="normal" text-decoration="none" x="1200" y="390">UNREGISTERED</text><text fill="#eeeeee" stroke="none" font-family="Arial" font-size="24px" font-style="normal" font-weight="normal" text-decoration="none" x="1400" y="0">UNREGISTERED</text><text fill="#eeeeee" stroke="none" font-family="Arial" font-size="24px" font-style="normal" font-weight="normal" text-decoration="none" x="1400" y="30">UNREGISTERED</text><text fill="#eeeeee" stroke="none" font-family="Arial" font-size="24px" font-style="normal" font-weight="normal" text-decoration="none" x="1400" y="60">UNREGISTERED</text><text fill="#eeeeee" stroke="none" font-family="Arial" font-size="24px" font-style="normal" font-weight="normal" text-decoration="none" x="1400" y="90">UNREGISTERED</text><text fill="#eeeeee" stroke="none" font-family="Arial" font-size="24px" font-style="normal" font-weight="normal" text-decoration="none" x="1400" y="120">UNREGISTERED</text><text fill="#eeeeee" stroke="none" font-family="Arial" font-size="24px" font-style="normal" font-weight="normal" text-decoration="none" x="1400" y="150">UNREGISTERED</text><text fill="#eeeeee" stroke="none" font-family="Arial" font-size="24px" font-style="normal" font-weight="normal" text-decoration="none" x="1400" y="180">UNREGISTERED</text><text fill="#eeeeee" stroke="none" font-family="Arial" font-size="24px" font-style="normal" font-weight="normal" text-decoration="none" x="1400" y="210">UNREGISTERED</text><text fill="#eeeeee" stroke="none" font-family="Arial" font-size="24px" font-style="normal" font-weight="normal" text-decoration="none" x="1400" y="240">UNREGISTERED</text><text fill="#eeeeee" stroke="none" font-family="Arial" font-size="24px" font-style="normal" font-weight="normal" text-decoration="none" x="1400" y="270">UNREGISTERED</text><text fill="#eeeeee" stroke="none" font-family="Arial" font-size="24px" font-style="normal" font-weight="normal" text-decoration="none" x="1400" y="300">UNREGISTERED</text><text fill="#eeeeee" stroke="none" font-family="Arial" font-size="24px" font-style="normal" font-weight="normal" text-decoration="none" x="1400" y="330">UNREGISTERED</text><text fill="#eeeeee" stroke="none" font-family="Arial" font-size="24px" font-style="normal" font-weight="normal" text-decoration="none" x="1400" y="360">UNREGISTERED</text><text fill="#eeeeee" stroke="none" font-family="Arial" font-size="24px" font-style="normal" font-weight="normal" text-decoration="none" x="1400" y="390">UNREGISTERED</text><text fill="#eeeeee" stroke="none" font-family="Arial" font-size="24px" font-style="normal" font-weight="normal" text-decoration="none" x="1600" y="0">UNREGISTERED</text><text fill="#eeeeee" stroke="none" font-family="Arial" font-size="24px" font-style="normal" font-weight="normal" text-decoration="none" x="1600" y="30">UNREGISTERED</text><text fill="#eeeeee" stroke="none" font-family="Arial" font-size="24px" font-style="normal" font-weight="normal" text-decoration="none" x="1600" y="60">UNREGISTERED</text><text fill="#eeeeee" stroke="none" font-family="Arial" font-size="24px" font-style="normal" font-weight="normal" text-decoration="none" x="1600" y="90">UNREGISTERED</text><text fill="#eeeeee" stroke="none" font-family="Arial" font-size="24px" font-style="normal" font-weight="normal" text-decoration="none" x="1600" y="120">UNREGISTERED</text><text fill="#eeeeee" stroke="none" font-family="Arial" font-size="24px" font-style="normal" font-weight="normal" text-decoration="none" x="1600" y="150">UNREGISTERED</text><text fill="#eeeeee" stroke="none" font-family="Arial" font-size="24px" font-style="normal" font-weight="normal" text-decoration="none" x="1600" y="180">UNREGISTERED</text><text fill="#eeeeee" stroke="none" font-family="Arial" font-size="24px" font-style="normal" font-weight="normal" text-decoration="none" x="1600" y="210">UNREGISTERED</text><text fill="#eeeeee" stroke="none" font-family="Arial" font-size="24px" font-style="normal" font-weight="normal" text-decoration="none" x="1600" y="240">UNREGISTERED</text><text fill="#eeeeee" stroke="none" font-family="Arial" font-size="24px" font-style="normal" font-weight="normal" text-decoration="none" x="1600" y="270">UNREGISTERED</text><text fill="#eeeeee" stroke="none" font-family="Arial" font-size="24px" font-style="normal" font-weight="normal" text-decoration="none" x="1600" y="300">UNREGISTERED</text><text fill="#eeeeee" stroke="none" font-family="Arial" font-size="24px" font-style="normal" font-weight="normal" text-decoration="none" x="1600" y="330">UNREGISTERED</text><text fill="#eeeeee" stroke="none" font-family="Arial" font-size="24px" font-style="normal" font-weight="normal" text-decoration="none" x="1600" y="360">UNREGISTERED</text><text fill="#eeeeee" stroke="none" font-family="Arial" font-size="24px" font-style="normal" font-weight="normal" text-decoration="none" x="1600" y="390">UNREGISTERED</text><g transform="translate(-6,-142) scale(1,1)"><rect fill="#C0C0C0" stroke="none" x="129" y="183" width="150" height="44" opacity="0.2"/></g><g transform="translate(-6,-142) scale(1,1)"><rect fill="#ffffff" stroke="none" x="122" y="176" width="150" height="44"/></g><g transform="translate(-6,-142) scale(1,1)"><path fill="none" stroke="#000000" d="M 122 176 L 272 176 L 272 220 L 122 220 L 122 176 Z Z" stroke-miterlimit="10"/></g><g transform="translate(-6,-142) scale(1,1)"><rect fill="#ffffff" stroke="none" x="112" y="183" width="20" height="10"/></g><g transform="translate(-6,-142) scale(1,1)"><path fill="none" stroke="#000000" d="M 112 183 L 132 183 L 132 193 L 112 193 L 112 183 Z Z" stroke-miterlimit="10"/></g><g transform="translate(-6,-142) scale(1,1)"><rect fill="#ffffff" stroke="none" x="112" y="203" width="20" height="10"/></g><g transform="translate(-6,-142) scale(1,1)"><path fill="none" stroke="#000000" d="M 112 203 L 132 203 L 132 213 L 112 213 L 112 203 Z Z" stroke-miterlimit="10"/></g><g transform="translate(-6,-142) scale(1,1)"><g><path fill="none" stroke="none"/><text fill="#000000" stroke="none" font-family="Arial" font-size="13px" font-style="normal" font-weight="bold" text-decoration="none" x="153.234130859375" y="195.5">WifiManager API</text></g></g><g transform="translate(-6,-142) scale(1,1)"><rect fill="#C0C0C0" stroke="none" x="33" y="375" width="150" height="44" opacity="0.2"/></g><g transform="translate(-6,-142) scale(1,1)"><rect fill="#ffffff" stroke="none" x="26" y="368" width="150" height="44"/></g><g transform="translate(-6,-142) scale(1,1)"><path fill="none" stroke="#000000" d="M 26 368 L 176 368 L 176 412 L 26 412 L 26 368 Z Z" stroke-miterlimit="10"/></g><g transform="translate(-6,-142) scale(1,1)"><rect fill="#ffffff" stroke="none" x="16" y="375" width="20" height="10"/></g><g transform="translate(-6,-142) scale(1,1)"><path fill="none" stroke="#000000" d="M 16 375 L 36 375 L 36 385 L 16 385 L 16 375 Z Z" stroke-miterlimit="10"/></g><g transform="translate(-6,-142) scale(1,1)"><rect fill="#ffffff" stroke="none" x="16" y="395" width="20" height="10"/></g><g transform="translate(-6,-142) scale(1,1)"><path fill="none" stroke="#000000" d="M 16 395 L 36 395 L 36 405 L 16 405 L 16 395 Z Z" stroke-miterlimit="10"/></g><g transform="translate(-6,-142) scale(1,1)"><g><path fill="none" stroke="none"/><text fill="#000000" stroke="none" font-family="Arial" font-size="13px" font-style="normal" font-weight="bold" text-decoration="none" x="47.46826171875" y="387.5">SensorManager API</text></g></g><g transform="translate(-6,-142) scale(1,1)"><rect fill="#C0C0C0" stroke="none" x="33" y="503" width="150" height="44" opacity="0.2"/></g><g transform="translate(-6,-142) scale(1,1)"><rect fill="#ffffff" stroke="none" x="26" y="496" width="150" height="44"/></g><g transform="translate(-6,-142) scale(1,1)"><path fill="none" stroke="#000000" d="M 26 496 L 176 496 L 176 540 L 26 540 L 26 496 Z Z" stroke-miterlimit="10"/></g><g transform="translate(-6,-142) scale(1,1)"><rect fill="#ffffff" stroke="none" x="16" y="503" width="20" height="10"/></g><g transform="translate(-6,-142) scale(1,1)"><path fill="none" stroke="#000000" d="M 16 503 L 36 503 L 36 513 L 16 513 L 16 503 Z Z" stroke-miterlimit="10"/></g><g transform="translate(-6,-142) scale(1,1)"><rect fill="#ffffff" stroke="none" x="16" y="523" width="20" height="10"/></g><g transform="translate(-6,-142) scale(1,1)"><path fill="none" stroke="#000000" d="M 16 523 L 36 523 L 36 533 L 16 533 L 16 523 Z Z" stroke-miterlimit="10"/></g><g transform="translate(-6,-142) scale(1,1)"><g><path fill="none" stroke="none"/><text fill="#000000" stroke="none" font-family="Arial" font-size="13px" font-style="normal" font-weight="bold" text-decoration="none" x="73.122314453125" y="515.5">Sensor API</text></g></g><g transform="translate(-6,-142) scale(1,1)"><path fill="#C0C0C0" stroke="none" d="M 508.841796875 306.5 C 508.841796875 300.1487248 513.990521675 295 520.341796875 295 C 526.693072075 295 531.841796875 300.1487248 531.841796875 306.5 C 531.841796875 312.8512752 526.693072075 318 520.341796875 318 C 513.990521675 318 508.841796875 312.8512752 508.841796875 306.5 Z" opacity="0.2"/></g><g transform="translate(-6,-142) scale(1,1)"><path fill="none" stroke="#000000" d="M 515.9136330061333 310.12478056887284 A 11.5 11.5 0 0 1 510.08636699386665 287.87521943112716" stroke-miterlimit="10"/></g><g transform="translate(-6,-142) scale(1,1)"><path fill="#ffffff" stroke="none" d="M 504.841796875 299.5 C 504.841796875 294.8055792 508.647376075 291 513.341796875 291 C 518.036217675 291 521.841796875 294.8055792 521.841796875 299.5 C 521.841796875 304.1944208 518.036217675 308 513.341796875 308 C 508.647376075 308 504.841796875 304.1944208 504.841796875 299.5 Z"/></g><g transform="translate(-6,-142) scale(1,1)"><path fill="none" stroke="#000000" d="M 504.841796875 299.5 C 504.841796875 294.8055792 508.647376075 291 513.341796875 291 C 518.036217675 291 521.841796875 294.8055792 521.841796875 299.5 C 521.841796875 304.1944208 518.036217675 308 513.341796875 308 C 508.647376075 308 504.841796875 304.1944208 504.841796875 299.5 Z" stroke-miterlimit="10"/></g><g transform="translate(-6,-142) scale(1,1)"><g><path fill="none" stroke="none"/><text fill="#000000" stroke="none" font-family="Arial" font-size="13px" font-style="normal" font-weight="bold" text-decoration="none" x="476.864990234375" y="330.5">REST JSON</text></g></g><g transform="translate(-6,-142) scale(1,1)"><rect fill="#C0C0C0" stroke="none" x="241" y="503" width="150" height="44" opacity="0.2"/></g><g transform="translate(-6,-142) scale(1,1)"><rect fill="#ffffff" stroke="none" x="234" y="496" width="150" height="44"/></g><g transform="translate(-6,-142) scale(1,1)"><path fill="none" stroke="#000000" d="M 234 496 L 384 496 L 384 540 L 234 540 L 234 496 Z Z" stroke-miterlimit="10"/></g><g transform="translate(-6,-142) scale(1,1)"><rect fill="#ffffff" stroke="none" x="224" y="503" width="20" height="10"/></g><g transform="translate(-6,-142) scale(1,1)"><path fill="none" stroke="#000000" d="M 224 503 L 244 503 L 244 513 L 224 513 L 224 503 Z Z" stroke-miterlimit="10"/></g><g transform="translate(-6,-142) scale(1,1)"><rect fill="#ffffff" stroke="none" x="224" y="523" width="20" height="10"/></g><g transform="translate(-6,-142) scale(1,1)"><path fill="none" stroke="#000000" d="M 224 523 L 244 523 L 244 533 L 224 533 L 224 523 Z Z" stroke-miterlimit="10"/></g><g transform="translate(-6,-142) scale(1,1)"><g><path fill="none" stroke="none"/><text fill="#000000" stroke="none" font-family="Arial" font-size="13px" font-style="normal" font-weight="bold" text-decoration="none" x="294.128662109375" y="515.5">SQLite</text></g></g><g transform="translate(-6,-142) scale(1,1)"><rect fill="#C0C0C0" stroke="none" x="369" y="183" width="182" height="44" opacity="0.2"/></g><g transform="translate(-6,-142) scale(1,1)"><rect fill="#ffffff" stroke="none" x="362" y="176" width="182" height="44"/></g><g transform="translate(-6,-142) scale(1,1)"><path fill="none" stroke="#000000" d="M 362 176 L 544 176 L 544 220 L 362 220 L 362 176 Z Z" stroke-miterlimit="10"/></g><g transform="translate(-6,-142) scale(1,1)"><rect fill="#ffffff" stroke="none" x="352" y="183" width="20" height="10"/></g><g transform="translate(-6,-142) scale(1,1)"><path fill="none" stroke="#000000" d="M 352 183 L 372 183 L 372 193 L 352 193 L 352 183 Z Z" stroke-miterlimit="10"/></g><g transform="translate(-6,-142) scale(1,1)"><rect fill="#ffffff" stroke="none" x="352" y="203" width="20" height="10"/></g><g transform="translate(-6,-142) scale(1,1)"><path fill="none" stroke="#000000" d="M 352 203 L 372 203 L 372 213 L 352 213 L 352 203 Z Z" stroke-miterlimit="10"/></g><g transform="translate(-6,-142) scale(1,1)"><g><path fill="none" stroke="none"/><text fill="#000000" stroke="none" font-family="Arial" font-size="13px" font-style="normal" font-weight="bold" text-decoration="none" x="424.766845703125" y="195.5">Retrofit API</text></g></g><g transform="translate(-6,-142) scale(1,1)"><rect fill="#C0C0C0" stroke="none" x="1041" y="159" width="98.44091796875" height="44" opacity="0.2"/></g><g transform="translate(-6,-142) scale(1,1)"><rect fill="#ffffff" stroke="none" x="1034" y="152" width="98.44091796875" height="44"/></g><g transform="translate(-6,-142) scale(1,1)"><path fill="none" stroke="#000000" d="M 1034 152 L 1132.44091796875 152 L 1132.44091796875 196 L 1034 196 L 1034 152 Z Z" stroke-miterlimit="10"/></g><g transform="translate(-6,-142) scale(1,1)"><rect fill="#ffffff" stroke="none" x="1024" y="159" width="20" height="10"/></g><g transform="translate(-6,-142) scale(1,1)"><path fill="none" stroke="#000000" d="M 1024 159 L 1044 159 L 1044 169 L 1024 169 L 1024 159 Z Z" stroke-miterlimit="10"/></g><g transform="translate(-6,-142) scale(1,1)"><rect fill="#ffffff" stroke="none" x="1024" y="179" width="20" height="10"/></g><g transform="translate(-6,-142) scale(1,1)"><path fill="none" stroke="#000000" d="M 1024 179 L 1044 179 L 1044 189 L 1024 189 L 1024 179 Z Z" stroke-miterlimit="10"/></g><g transform="translate(-6,-142) scale(1,1)"><g><path fill="none" stroke="none"/><text fill="#000000" stroke="none" font-family="Arial" font-size="13px" font-style="normal" font-weight="bold" text-decoration="none" x="1055.701416015625" y="171.5">spring-boot</text></g></g><g transform="translate(-6,-142) scale(1,1)"><rect fill="#C0C0C0" stroke="none" x="1321" y="159" width="159.17529296875" height="44" opacity="0.2"/></g><g transform="translate(-6,-142) scale(1,1)"><rect fill="#ffffff" stroke="none" x="1314" y="152" width="159.17529296875" height="44"/></g><g transform="translate(-6,-142) scale(1,1)"><path fill="none" stroke="#000000" d="M 1314 152 L 1473.17529296875 152 L 1473.17529296875 196 L 1314 196 L 1314 152 Z Z" stroke-miterlimit="10"/></g><g transform="translate(-6,-142) scale(1,1)"><rect fill="#ffffff" stroke="none" x="1304" y="159" width="20" height="10"/></g><g transform="translate(-6,-142) scale(1,1)"><path fill="none" stroke="#000000" d="M 1304 159 L 1324 159 L 1324 169 L 1304 169 L 1304 159 Z Z" stroke-miterlimit="10"/></g><g transform="translate(-6,-142) scale(1,1)"><rect fill="#ffffff" stroke="none" x="1304" y="179" width="20" height="10"/></g><g transform="translate(-6,-142) scale(1,1)"><path fill="none" stroke="#000000" d="M 1304 179 L 1324 179 L 1324 189 L 1304 189 L 1304 179 Z Z" stroke-miterlimit="10"/></g><g transform="translate(-6,-142) scale(1,1)"><g><path fill="none" stroke="none"/><text fill="#000000" stroke="none" font-family="Arial" font-size="13px" font-style="normal" font-weight="normal" text-decoration="none" x="1366.798583984375" y="169.5">«DRIVER»</text></g></g><g transform="translate(-6,-142) scale(1,1)"><g><path fill="none" stroke="none"/><text fill="#000000" stroke="none" font-family="Arial" font-size="13px" font-style="normal" font-weight="bold" text-decoration="none" x="1333.91455078125" y="184.5">mysql_connector_java</text></g></g><g transform="translate(-6,-142) scale(1,1)"><rect fill="#C0C0C0" stroke="none" x="1625" y="159" width="98.44091796875" height="44" opacity="0.2"/></g><g transform="translate(-6,-142) scale(1,1)"><rect fill="#ffffff" stroke="none" x="1618" y="152" width="98.44091796875" height="44"/></g><g transform="translate(-6,-142) scale(1,1)"><path fill="none" stroke="#000000" d="M 1618 152 L 1716.44091796875 152 L 1716.44091796875 196 L 1618 196 L 1618 152 Z Z" stroke-miterlimit="10"/></g><g transform="translate(-6,-142) scale(1,1)"><rect fill="#ffffff" stroke="none" x="1608" y="159" width="20" height="10"/></g><g transform="translate(-6,-142) scale(1,1)"><path fill="none" stroke="#000000" d="M 1608 159 L 1628 159 L 1628 169 L 1608 169 L 1608 159 Z Z" stroke-miterlimit="10"/></g><g transform="translate(-6,-142) scale(1,1)"><rect fill="#ffffff" stroke="none" x="1608" y="179" width="20" height="10"/></g><g transform="translate(-6,-142) scale(1,1)"><path fill="none" stroke="#000000" d="M 1608 179 L 1628 179 L 1628 189 L 1608 189 L 1608 179 Z Z" stroke-miterlimit="10"/></g><g transform="translate(-6,-142) scale(1,1)"><g><path fill="none" stroke="none"/><text fill="#000000" stroke="none" font-family="Arial" font-size="13px" font-style="normal" font-weight="normal" text-decoration="none" x="1651.266845703125" y="169.5">«BDD»</text></g></g><g transform="translate(-6,-142) scale(1,1)"><g><path fill="none" stroke="none"/><text fill="#000000" stroke="none" font-family="Arial" font-size="13px" font-style="normal" font-weight="bold" text-decoration="none" x="1655.246826171875" y="184.5">Mysql</text></g></g><g transform="translate(-6,-142) scale(1,1)"><rect fill="#C0C0C0" stroke="none" x="1041" y="271" width="165.61181640625" height="44" opacity="0.2"/></g><g transform="translate(-6,-142) scale(1,1)"><rect fill="#ffffff" stroke="none" x="1034" y="264" width="165.61181640625" height="44"/></g><g transform="translate(-6,-142) scale(1,1)"><path fill="none" stroke="#000000" d="M 1034 264 L 1199.61181640625 264 L 1199.61181640625 308 L 1034 308 L 1034 264 Z Z" stroke-miterlimit="10"/></g><g transform="translate(-6,-142) scale(1,1)"><rect fill="#ffffff" stroke="none" x="1024" y="271" width="20" height="10"/></g><g transform="translate(-6,-142) scale(1,1)"><path fill="none" stroke="#000000" d="M 1024 271 L 1044 271 L 1044 281 L 1024 281 L 1024 271 Z Z" stroke-miterlimit="10"/></g><g transform="translate(-6,-142) scale(1,1)"><rect fill="#ffffff" stroke="none" x="1024" y="291" width="20" height="10"/></g><g transform="translate(-6,-142) scale(1,1)"><path fill="none" stroke="#000000" d="M 1024 291 L 1044 291 L 1044 301 L 1024 301 L 1024 291 Z Z" stroke-miterlimit="10"/></g><g transform="translate(-6,-142) scale(1,1)"><g><path fill="none" stroke="none"/><text fill="#000000" stroke="none" font-family="Arial" font-size="13px" font-style="normal" font-weight="bold" text-decoration="none" x="1054.61279296875" y="283.5">spring-boot-starter-web</text></g></g><g transform="translate(-6,-142) scale(1,1)"><rect fill="#C0C0C0" stroke="none" x="1337" y="271" width="99.20263671875" height="44" opacity="0.2"/></g><g transform="translate(-6,-142) scale(1,1)"><rect fill="#ffffff" stroke="none" x="1330" y="264" width="99.20263671875" height="44"/></g><g transform="translate(-6,-142) scale(1,1)"><path fill="none" stroke="#000000" d="M 1330 264 L 1429.20263671875 264 L 1429.20263671875 308 L 1330 308 L 1330 264 Z Z" stroke-miterlimit="10"/></g><g transform="translate(-6,-142) scale(1,1)"><rect fill="#ffffff" stroke="none" x="1320" y="271" width="20" height="10"/></g><g transform="translate(-6,-142) scale(1,1)"><path fill="none" stroke="#000000" d="M 1320 271 L 1340 271 L 1340 281 L 1320 281 L 1320 271 Z Z" stroke-miterlimit="10"/></g><g transform="translate(-6,-142) scale(1,1)"><rect fill="#ffffff" stroke="none" x="1320" y="291" width="20" height="10"/></g><g transform="translate(-6,-142) scale(1,1)"><path fill="none" stroke="#000000" d="M 1320 291 L 1340 291 L 1340 301 L 1320 301 L 1320 291 Z Z" stroke-miterlimit="10"/></g><g transform="translate(-6,-142) scale(1,1)"><g><path fill="none" stroke="none"/><text fill="#000000" stroke="none" font-family="Arial" font-size="13px" font-style="normal" font-weight="bold" text-decoration="none" x="1347.753173828125" y="283.5">jackson-core</text></g></g><g transform="translate(-6,-142) scale(1,1)"><rect fill="#C0C0C0" stroke="none" x="1041" y="367" width="142.525390625" height="44" opacity="0.2"/></g><g transform="translate(-6,-142) scale(1,1)"><rect fill="#ffffff" stroke="none" x="1034" y="360" width="142.525390625" height="44"/></g><g transform="translate(-6,-142) scale(1,1)"><path fill="none" stroke="#000000" d="M 1034 360 L 1176.525390625 360 L 1176.525390625 404 L 1034 404 L 1034 360 Z Z" stroke-miterlimit="10"/></g><g transform="translate(-6,-142) scale(1,1)"><rect fill="#ffffff" stroke="none" x="1024" y="367" width="20" height="10"/></g><g transform="translate(-6,-142) scale(1,1)"><path fill="none" stroke="#000000" d="M 1024 367 L 1044 367 L 1044 377 L 1024 377 L 1024 367 Z Z" stroke-miterlimit="10"/></g><g transform="translate(-6,-142) scale(1,1)"><rect fill="#ffffff" stroke="none" x="1024" y="387" width="20" height="10"/></g><g transform="translate(-6,-142) scale(1,1)"><path fill="none" stroke="#000000" d="M 1024 387 L 1044 387 L 1044 397 L 1024 397 L 1024 387 Z Z" stroke-miterlimit="10"/></g><g transform="translate(-6,-142) scale(1,1)"><g><path fill="none" stroke="none"/><text fill="#000000" stroke="none" font-family="Arial" font-size="13px" font-style="normal" font-weight="bold" text-decoration="none" x="1053.5400390625" y="379.5">springfox-swagger2</text></g></g><g transform="translate(-6,-142) scale(1,1)"><rect fill="#C0C0C0" stroke="none" x="1041" y="471" width="151.17724609375" height="44" opacity="0.2"/></g><g transform="translate(-6,-142) scale(1,1)"><rect fill="#ffffff" stroke="none" x="1034" y="464" width="151.17724609375" height="44"/></g><g transform="translate(-6,-142) scale(1,1)"><path fill="none" stroke="#000000" d="M 1034 464 L 1185.17724609375 464 L 1185.17724609375 508 L 1034 508 L 1034 464 Z Z" stroke-miterlimit="10"/></g><g transform="translate(-6,-142) scale(1,1)"><rect fill="#ffffff" stroke="none" x="1024" y="471" width="20" height="10"/></g><g transform="translate(-6,-142) scale(1,1)"><path fill="none" stroke="#000000" d="M 1024 471 L 1044 471 L 1044 481 L 1024 481 L 1024 471 Z Z" stroke-miterlimit="10"/></g><g transform="translate(-6,-142) scale(1,1)"><rect fill="#ffffff" stroke="none" x="1024" y="491" width="20" height="10"/></g><g transform="translate(-6,-142) scale(1,1)"><path fill="none" stroke="#000000" d="M 1024 491 L 1044 491 L 1044 501 L 1024 501 L 1024 491 Z Z" stroke-miterlimit="10"/></g><g transform="translate(-6,-142) scale(1,1)"><g><path fill="none" stroke="none"/><text fill="#000000" stroke="none" font-family="Arial" font-size="13px" font-style="normal" font-weight="bold" text-decoration="none" x="1054.25732421875" y="483.5">springfox-swagger-ui</text></g></g><g transform="translate(-6,-142) scale(1,1)"><path fill="none" stroke="#000000" d="M 1304 174 L 1132 174" stroke-miterlimit="10" stroke-dasharray="3"/></g><g transform="translate(-6,-142) scale(1,1)"><path fill="none" stroke="#000000" d="M 1142.162674857624 169.790482243984 L 1132 174 L 1142.162674857624 178.209517756016" stroke-miterlimit="10"/></g><g transform="translate(-6,-142) scale(1,1)"><path fill="none" stroke="#000000" d="M 1320 286 L 1200 286" stroke-miterlimit="10" stroke-dasharray="3"/></g><g transform="translate(-6,-142) scale(1,1)"><path fill="none" stroke="#000000" d="M 1210.162674857624 281.790482243984 L 1200 286 L 1210.162674857624 290.209517756016" stroke-miterlimit="10"/></g><g transform="translate(-6,-142) scale(1,1)"><path fill="none" stroke="#000000" d="M 1108 308 L 1108 360" stroke-miterlimit="10" stroke-dasharray="3"/></g><g transform="translate(-6,-142) scale(1,1)"><path fill="none" stroke="#000000" d="M 1103.7904822439841 349.83732514237585 L 1108 360 L 1112.2095177560159 349.83732514237585" stroke-miterlimit="10"/></g><g transform="translate(-6,-142) scale(1,1)"><path fill="none" stroke="#000000" d="M 1085 196 L 1085 264" stroke-miterlimit="10" stroke-dasharray="3"/></g><g transform="translate(-6,-142) scale(1,1)"><path fill="none" stroke="#000000" d="M 1080.7904822439841 253.83732514237585 L 1085 264 L 1089.2095177560159 253.83732514237585" stroke-miterlimit="10"/></g><g transform="translate(-6,-142) scale(1,1)"><path fill="none" stroke="#000000" d="M 1101 404 L 1101 464" stroke-miterlimit="10" stroke-dasharray="3"/></g><g transform="translate(-6,-142) scale(1,1)"><path fill="none" stroke="#000000" d="M 1096.7904822439841 453.83732514237585 L 1101 464 L 1105.2095177560159 453.83732514237585" stroke-miterlimit="10"/></g><g transform="translate(-6,-142) scale(1,1)"><path fill="#C0C0C0" stroke="none" d="M 1542.7099609375 178.5 C 1542.7099609375 172.1487248 1547.8586857375 167 1554.2099609375 167 C 1560.5612361375 167 1565.7099609375 172.1487248 1565.7099609375 178.5 C 1565.7099609375 184.8512752 1560.5612361375 190 1554.2099609375 190 C 1547.8586857375 190 1542.7099609375 184.8512752 1542.7099609375 178.5 Z" opacity="0.2"/></g><g transform="translate(-6,-142) scale(1,1)"><path fill="none" stroke="#000000" d="M 1547 182.5 A 11.5 11.5 0 0 1 1547 159.5" stroke-miterlimit="10"/></g><g transform="translate(-6,-142) scale(1,1)"><path fill="#ffffff" stroke="none" d="M 1538.7099609375 171.5 C 1538.7099609375 166.8055792 1542.5155401375 163 1547.2099609375 163 C 1551.9043817375 163 1555.7099609375 166.8055792 1555.7099609375 171.5 C 1555.7099609375 176.1944208 1551.9043817375 180 1547.2099609375 180 C 1542.5155401375 180 1538.7099609375 176.1944208 1538.7099609375 171.5 Z"/></g><g transform="translate(-6,-142) scale(1,1)"><path fill="none" stroke="#000000" d="M 1538.7099609375 171.5 C 1538.7099609375 166.8055792 1542.5155401375 163 1547.2099609375 163 C 1551.9043817375 163 1555.7099609375 166.8055792 1555.7099609375 171.5 C 1555.7099609375 176.1944208 1551.9043817375 180 1547.2099609375 180 C 1542.5155401375 180 1538.7099609375 176.1944208 1538.7099609375 171.5 Z" stroke-miterlimit="10"/></g><g transform="translate(-6,-142) scale(1,1)"><g><path fill="none" stroke="none"/><text fill="#000000" stroke="none" font-family="Arial" font-size="13px" font-style="normal" font-weight="bold" text-decoration="none" x="1530.236328125" y="202.5">JDBC</text></g></g><g transform="translate(-6,-142) scale(1,1)"><path fill="none" stroke="#000000" d="M 1608 171 L 1558.7099609375 171" stroke-miterlimit="10"/></g><g transform="translate(-6,-142) scale(1,1)"><path fill="none" stroke="#000000" d="M 1473 171 L 1535.7099609375 171" stroke-miterlimit="10"/></g><g transform="translate(-6,-142) scale(1,1)"><rect fill="#C0C0C0" stroke="none" x="673" y="287" width="151.8818359375" height="44" opacity="0.2"/></g><g transform="translate(-6,-142) scale(1,1)"><rect fill="#ffffff" stroke="none" x="666" y="280" width="151.8818359375" height="44"/></g><g transform="translate(-6,-142) scale(1,1)"><path fill="none" stroke="#000000" d="M 666 280 L 817.8818359375 280 L 817.8818359375 324 L 666 324 L 666 280 Z Z" stroke-miterlimit="10"/></g><g transform="translate(-6,-142) scale(1,1)"><rect fill="#ffffff" stroke="none" x="656" y="287" width="20" height="10"/></g><g transform="translate(-6,-142) scale(1,1)"><path fill="none" stroke="#000000" d="M 656 287 L 676 287 L 676 297 L 656 297 L 656 287 Z Z" stroke-miterlimit="10"/></g><g transform="translate(-6,-142) scale(1,1)"><rect fill="#ffffff" stroke="none" x="656" y="307" width="20" height="10"/></g><g transform="translate(-6,-142) scale(1,1)"><path fill="none" stroke="#000000" d="M 656 307 L 676 307 L 676 317 L 656 317 L 656 307 Z Z" stroke-miterlimit="10"/></g><g transform="translate(-6,-142) scale(1,1)"><g><path fill="none" stroke="none"/><text fill="#000000" stroke="none" font-family="Arial" font-size="13px" font-style="normal" font-weight="bold" text-decoration="none" x="687.67919921875" y="299.5">Cloudito-geolocation</text></g></g><g transform="translate(-6,-142) scale(1,1)"><path fill="none" stroke="#000000" d="M 655 306 L 524.841796875 302.029296875" stroke-miterlimit="10"/></g><g transform="translate(-6,-142) scale(1,1)"><path fill="none" stroke="#000000" d="M 96 413 L 96 495" stroke-miterlimit="10" stroke-dasharray="3"/></g><g transform="translate(-6,-142) scale(1,1)"><path fill="none" stroke="#000000" d="M 91.79048224398402 484.83732514237585 L 96 495 L 100.20951775601598 484.83732514237585" stroke-miterlimit="10"/></g><g transform="translate(-6,-142) scale(1,1)"><path fill="none" stroke="#000000" d="M 1023 290 L 819 298" stroke-miterlimit="10" stroke-dasharray="3"/></g><g transform="translate(-6,-142) scale(1,1)"><path fill="none" stroke="#000000" d="M 828.9899170838505 293.39548518758045 L 819 298 L 829.3198217614179 301.80805446554626" stroke-miterlimit="10"/></g><g transform="translate(-6,-142) scale(1,1)"><rect fill="#C0C0C0" stroke="none" x="249" y="287" width="145.369140625" height="44" opacity="0.2"/></g><g transform="translate(-6,-142) scale(1,1)"><rect fill="#ffffff" stroke="none" x="242" y="280" width="145.369140625" height="44"/></g><g transform="translate(-6,-142) scale(1,1)"><path fill="none" stroke="#000000" d="M 242 280 L 387.369140625 280 L 387.369140625 324 L 242 324 L 242 280 Z Z" stroke-miterlimit="10"/></g><g transform="translate(-6,-142) scale(1,1)"><rect fill="#ffffff" stroke="none" x="232" y="287" width="20" height="10"/></g><g transform="translate(-6,-142) scale(1,1)"><path fill="none" stroke="#000000" d="M 232 287 L 252 287 L 252 297 L 232 297 L 232 287 Z Z" stroke-miterlimit="10"/></g><g transform="translate(-6,-142) scale(1,1)"><rect fill="#ffffff" stroke="none" x="232" y="307" width="20" height="10"/></g><g transform="translate(-6,-142) scale(1,1)"><path fill="none" stroke="#000000" d="M 232 307 L 252 307 L 252 317 L 232 317 L 232 307 Z Z" stroke-miterlimit="10"/></g><g transform="translate(-6,-142) scale(1,1)"><g><path fill="none" stroke="none"/><text fill="#000000" stroke="none" font-family="Arial" font-size="13px" font-style="normal" font-weight="bold" text-decoration="none" x="261.5146484375" y="299.5">Cloudito-mobile-app</text></g></g><g transform="translate(-6,-142) scale(1,1)"><path fill="none" stroke="#000000" d="M 388 306 L 501.841796875 301.9223865327381" stroke-miterlimit="10"/></g><g transform="translate(-6,-142) scale(1,1)"><path fill="none" stroke="#000000" d="M 340 279 L 417 221" stroke-miterlimit="10" stroke-dasharray="3"/></g><g transform="translate(-6,-142) scale(1,1)"><path fill="none" stroke="#000000" d="M 411.4152201709402 230.476826170239 L 417 221 L 406.3498362623358 223.7520923605401" stroke-miterlimit="10"/></g><g transform="translate(-6,-142) scale(1,1)"><g><path fill="none" stroke="none"/><text fill="#000000" stroke="none" font-family="Arial" font-size="13px" font-style="normal" font-weight="normal" text-decoration="none" x="398.5" y="259.5">+Import</text></g></g><g transform="translate(-6,-142) scale(1,1)"><path fill="none" stroke="#000000" d="M 283 279 L 218 221" stroke-miterlimit="10" stroke-dasharray="3"/></g><g transform="translate(-6,-142) scale(1,1)"><path fill="none" stroke="#000000" d="M 228.38543626221218 224.62528807731582 L 218 221 L 222.78014662336616 230.90707818981565" stroke-miterlimit="10"/></g><g transform="translate(-6,-142) scale(1,1)"><g><path fill="none" stroke="none"/><text fill="#000000" stroke="none" font-family="Arial" font-size="13px" font-style="normal" font-weight="normal" text-decoration="none" x="216.5" y="267.5">+Import</text></g></g><g transform="translate(-6,-142) scale(1,1)"><path fill="none" stroke="#000000" d="M 253 325 L 152 367" stroke-miterlimit="10" stroke-dasharray="3"/></g><g transform="translate(-6,-142) scale(1,1)"><path fill="none" stroke="#000000" d="M 159.76736474130465 359.2110305575425 L 152 367 L 162.99998939174233 366.9847231693093" stroke-miterlimit="10"/></g><g transform="translate(-6,-142) scale(1,1)"><g><path fill="none" stroke="none"/><text fill="#000000" stroke="none" font-family="Arial" font-size="13px" font-style="normal" font-weight="normal" text-decoration="none" x="158.5" y="339.5">+Import</text></g></g><g transform="translate(-6,-142) scale(1,1)"><path fill="none" stroke="#000000" d="M 308 325 L 305 495" stroke-miterlimit="10" stroke-dasharray="3"/></g><g transform="translate(-6,-142) scale(1,1)"><path fill="none" stroke="#000000" d="M 300.9704509545922 484.7646331530984 L 305 495 L 309.38817585024447 484.91318123949225" stroke-miterlimit="10"/></g></g></svg>