<svg version="1.1" xmlns="http://www.w3.org/2000/svg" xmlns:xlink="http://www.w3.org/1999/xlink" width="1516" height="668"><defs/><g><g transform="translate(-6,2) scale(1,1)"><path fill="none" stroke="#000000" d="M 16 8 L 1512 8 L 1512 656 L 16 656 L 16 8" stroke-miterlimit="10"/></g><g transform="translate(-6,2) scale(1,1)"><path fill="#ffffff" stroke="none" d="M 16 8 L 16 30 L 319.5869140625 30 L 330.5869140625 19 L 330.5869140625 8 L 16 8"/></g><g transform="translate(-6,2) scale(1,1)"><path fill="none" stroke="#000000" d="M 16 8 L 16 30 L 319.5869140625 30 L 330.5869140625 19 L 330.5869140625 8 L 16 8 L 16 8" stroke-miterlimit="10"/></g><g transform="translate(-6,2) scale(1,1)"><g><path fill="none" stroke="none"/><text fill="#000000" stroke="none" font-family="Arial" font-size="13px" font-style="normal" font-weight="normal" text-decoration="none" x="86.97900390625" y="25.5">Dagramme Seq. Localiser un utilisateur</text></g></g><g transform="translate(-6,2) scale(1,1)"><g><path fill="none" stroke="none"/><text fill="#000000" stroke="none" font-family="Arial" font-size="13px" font-style="normal" font-weight="bold" text-decoration="none" x="21" y="25.5">interaction</text></g></g><g transform="translate(-6,2) scale(1,1)"><rect fill="#C0C0C0" stroke="none" x="47" y="47" width="143.2109375" height="39" opacity="0.2"/></g><g transform="translate(-6,2) scale(1,1)"><rect fill="#ffffff" stroke="none" x="40" y="40" width="143.2109375" height="39"/></g><g transform="translate(-6,2) scale(1,1)"><path fill="none" stroke="#000000" d="M 40 40 L 183.2109375 40 L 183.2109375 79 L 40 79 L 40 40 Z Z" stroke-miterlimit="10"/></g><g transform="translate(-6,2) scale(1,1)"><g><path fill="none" stroke="none"/><text fill="#000000" stroke="none" font-family="Arial" font-size="13px" font-style="normal" font-weight="bold" text-decoration="none" x="65.353271484375" y="59.5">cloudito-android</text></g></g><g transform="translate(-6,2) scale(1,1)"><path fill="none" stroke="#000000" d="M 112.5 80 L 112.5 600" stroke-miterlimit="10" stroke-dasharray="3"/></g><g transform="translate(-6,2) scale(1,1)"><rect fill="#C0C0C0" stroke="none" x="455" y="47" width="99.8818359375" height="39" opacity="0.2"/></g><g transform="translate(-6,2) scale(1,1)"><rect fill="#ffffff" stroke="none" x="448" y="40" width="99.8818359375" height="39"/></g><g transform="translate(-6,2) scale(1,1)"><path fill="none" stroke="#000000" d="M 448 40 L 547.8818359375 40 L 547.8818359375 79 L 448 79 L 448 40 Z Z" stroke-miterlimit="10"/></g><g transform="translate(-6,2) scale(1,1)"><g><path fill="none" stroke="none"/><text fill="#000000" stroke="none" font-family="Arial" font-size="13px" font-style="normal" font-weight="bold" text-decoration="none" x="460.365966796875" y="59.5">SDK Android</text></g></g><g transform="translate(-6,2) scale(1,1)"><path fill="none" stroke="#000000" d="M 498.5 80 L 498.5 600" stroke-miterlimit="10" stroke-dasharray="3"/></g><g transform="translate(-6,2) scale(1,1)"><rect fill="#C0C0C0" stroke="none" x="887" y="47" width="71.736328125" height="39" opacity="0.2"/></g><g transform="translate(-6,2) scale(1,1)"><rect fill="#ffffff" stroke="none" x="880" y="40" width="71.736328125" height="39"/></g><g transform="translate(-6,2) scale(1,1)"><path fill="none" stroke="#000000" d="M 880 40 L 951.736328125 40 L 951.736328125 79 L 880 79 L 880 40 Z Z" stroke-miterlimit="10"/></g><g transform="translate(-6,2) scale(1,1)"><g><path fill="none" stroke="none"/><text fill="#000000" stroke="none" font-family="Arial" font-size="13px" font-style="normal" font-weight="bold" text-decoration="none" x="895.996826171875" y="59.5">SQLite</text></g></g><g transform="translate(-6,2) scale(1,1)"><path fill="none" stroke="#000000" d="M 916.5 80 L 916.5 600" stroke-miterlimit="10" stroke-dasharray="3"/></g><g transform="translate(-6,2) scale(1,1)"><rect fill="#C0C0C0" stroke="none" x="239" y="47" width="146.82275390625" height="39" opacity="0.2"/></g><g transform="translate(-6,2) scale(1,1)"><rect fill="#ffffff" stroke="none" x="232" y="40" width="146.82275390625" height="39"/></g><g transform="translate(-6,2) scale(1,1)"><path fill="none" stroke="#000000" d="M 232 40 L 378.82275390625 40 L 378.82275390625 79 L 232 79 L 232 40 Z Z" stroke-miterlimit="10"/></g><g transform="translate(-6,2) scale(1,1)"><g><path fill="none" stroke="none"/><text fill="#000000" stroke="none" font-family="Arial" font-size="13px" font-style="normal" font-weight="bold" text-decoration="none" x="249.04736328125" y="59.5">GeolocationService</text></g></g><g transform="translate(-6,2) scale(1,1)"><path fill="none" stroke="#000000" d="M 306.5 80 L 306.5 600" stroke-miterlimit="10" stroke-dasharray="3"/></g><g transform="translate(-6,2) scale(1,1)"><rect fill="#C0C0C0" stroke="none" x="671" y="47" width="133.13720703125" height="39" opacity="0.2"/></g><g transform="translate(-6,2) scale(1,1)"><rect fill="#ffffff" stroke="none" x="664" y="40" width="133.13720703125" height="39"/></g><g transform="translate(-6,2) scale(1,1)"><path fill="none" stroke="#000000" d="M 664 40 L 797.13720703125 40 L 797.13720703125 79 L 664 79 L 664 40 Z Z" stroke-miterlimit="10"/></g><g transform="translate(-6,2) scale(1,1)"><g><path fill="none" stroke="none"/><text fill="#000000" stroke="none" font-family="Arial" font-size="13px" font-style="normal" font-weight="bold" text-decoration="none" x="677.089599609375" y="59.5">GeolocationCache</text></g></g><g transform="translate(-6,2) scale(1,1)"><path fill="none" stroke="#000000" d="M 731.5 80 L 731.5 600" stroke-miterlimit="10" stroke-dasharray="3"/></g><g transform="translate(-6,2) scale(1,1)"><rect fill="#C0C0C0" stroke="none" x="991" y="47" width="148.30810546875" height="39" opacity="0.2"/></g><g transform="translate(-6,2) scale(1,1)"><rect fill="#ffffff" stroke="none" x="984" y="40" width="148.30810546875" height="39"/></g><g transform="translate(-6,2) scale(1,1)"><path fill="none" stroke="#000000" d="M 984 40 L 1132.30810546875 40 L 1132.30810546875 79 L 984 79 L 984 40 Z Z" stroke-miterlimit="10"/></g><g transform="translate(-6,2) scale(1,1)"><g><path fill="none" stroke="none"/><text fill="#000000" stroke="none" font-family="Arial" font-size="13px" font-style="normal" font-weight="bold" text-decoration="none" x="998.171875" y="59.5">GeolocationInterface</text></g></g><g transform="translate(-6,2) scale(1,1)"><path fill="none" stroke="#000000" d="M 1059.5 80 L 1059.5 600" stroke-miterlimit="10" stroke-dasharray="3"/></g><g transform="translate(-6,2) scale(1,1)"><rect fill="#C0C0C0" stroke="none" x="1263" y="47" width="188.05078125" height="39" opacity="0.2"/></g><g transform="translate(-6,2) scale(1,1)"><rect fill="#ffffff" stroke="none" x="1256" y="40" width="188.05078125" height="39"/></g><g transform="translate(-6,2) scale(1,1)"><path fill="none" stroke="#000000" d="M 1256 40 L 1444.05078125 40 L 1444.05078125 79 L 1256 79 L 1256 40 Z Z" stroke-miterlimit="10"/></g><g transform="translate(-6,2) scale(1,1)"><g><path fill="none" stroke="none"/><text fill="#000000" stroke="none" font-family="Arial" font-size="13px" font-style="normal" font-weight="normal" text-decoration="none" x="1296.552734375" y="57.5">«cloudito-rest-api»</text></g></g><g transform="translate(-6,2) scale(1,1)"><g><path fill="none" stroke="none"/><text fill="#000000" stroke="none" font-family="Arial" font-size="13px" font-style="normal" font-weight="bold" text-decoration="none" x="1313.529541015625" y="72.5">Geolocation </text></g></g><g transform="translate(-6,2) scale(1,1)"><path fill="none" stroke="#000000" d="M 1351.5 80 L 1351.5 600" stroke-miterlimit="10" stroke-dasharray="3"/></g><g transform="translate(-6,2) scale(1,1)"><path fill="none" stroke="#000000" d="M 112 113 L 299 113" stroke-miterlimit="10"/></g><g transform="translate(-6,2) scale(1,1)"><path fill="none" stroke="#000000" d="M 288.83732514237585 117.20951775601598 L 299 113 L 288.83732514237585 108.79048224398402" stroke-miterlimit="10"/></g><g transform="translate(-6,2) scale(1,1)"><g><path fill="none" stroke="none"/><text fill="#000000" stroke="none" font-family="Arial" font-size="13px" font-style="normal" font-weight="normal" text-decoration="none" x="133.5" y="109.5">1 : startRecordLocation()</text></g></g><g transform="translate(-6,2) scale(1,1)"><rect fill="#ffffff" stroke="none" x="299" y="113" width="13" height="239"/></g><g transform="translate(-6,2) scale(1,1)"><path fill="none" stroke="#000000" d="M 299 113 L 312 113 L 312 352 L 299 352 L 299 113 Z Z" stroke-miterlimit="10"/></g><g transform="translate(-6,2) scale(1,1)"><path fill="none" stroke="#000000" d="M 312 129 L 491 129" stroke-miterlimit="10"/></g><g transform="translate(-6,2) scale(1,1)"><path fill="#000000" stroke="none" d="M 480.83732514237585 133.209517756016 L 491 129 L 480.83732514237585 124.79048224398402"/></g><g transform="translate(-6,2) scale(1,1)"><path fill="none" stroke="#000000" d="M 480.83732514237585 133.209517756016 L 491 129 L 480.83732514237585 124.79048224398402 L 480.83732514237585 133.209517756016" stroke-miterlimit="10"/></g><g transform="translate(-6,2) scale(1,1)"><g><path fill="none" stroke="none"/><text fill="#000000" stroke="none" font-family="Arial" font-size="13px" font-style="normal" font-weight="normal" text-decoration="none" x="342.5" y="125.5">2 : getScanResults()</text></g></g><g transform="translate(-6,2) scale(1,1)"><rect fill="#ffffff" stroke="none" x="491" y="129" width="13" height="28"/></g><g transform="translate(-6,2) scale(1,1)"><path fill="none" stroke="#000000" d="M 491 129 L 504 129 L 504 157 L 491 157 L 491 129 Z Z" stroke-miterlimit="10"/></g><g transform="translate(-6,2) scale(1,1)"><path fill="none" stroke="#000000" d="M 491 144 L 312 144" stroke-miterlimit="10" stroke-dasharray="3"/></g><g transform="translate(-6,2) scale(1,1)"><path fill="none" stroke="#000000" d="M 322.16267485762415 139.790482243984 L 312 144 L 322.16267485762415 148.209517756016" stroke-miterlimit="10"/></g><g transform="translate(-6,2) scale(1,1)"><g><path fill="none" stroke="none"/><text fill="#000000" stroke="none" font-family="Arial" font-size="13px" font-style="normal" font-weight="normal" text-decoration="none" x="338.5" y="160.5">3 : list&lt;ScanResults&gt;</text></g></g><g transform="translate(-6,2) scale(1,1)"><path fill="none" stroke="#000000" d="M 312 200 L 724 200" stroke-miterlimit="10"/></g><g transform="translate(-6,2) scale(1,1)"><path fill="#000000" stroke="none" d="M 713.8373251423759 204.209517756016 L 724 200 L 713.8373251423758 195.790482243984"/></g><g transform="translate(-6,2) scale(1,1)"><path fill="none" stroke="#000000" d="M 713.8373251423759 204.209517756016 L 724 200 L 713.8373251423758 195.790482243984 L 713.8373251423759 204.209517756016" stroke-miterlimit="10"/></g><g transform="translate(-6,2) scale(1,1)"><g><path fill="none" stroke="none"/><text fill="#000000" stroke="none" font-family="Arial" font-size="13px" font-style="normal" font-weight="normal" text-decoration="none" x="421.5" y="196.5">4 : getAccessPointsFromSQLite()</text></g></g><g transform="translate(-6,2) scale(1,1)"><rect fill="#ffffff" stroke="none" x="724" y="200" width="13" height="28"/></g><g transform="translate(-6,2) scale(1,1)"><path fill="none" stroke="#000000" d="M 724 200 L 737 200 L 737 228 L 724 228 L 724 200 Z Z" stroke-miterlimit="10"/></g><g transform="translate(-6,2) scale(1,1)"><path fill="none" stroke="#000000" d="M 737 202 L 909 202" stroke-miterlimit="10"/></g><g transform="translate(-6,2) scale(1,1)"><path fill="#000000" stroke="none" d="M 898.8373251423759 206.209517756016 L 909 202 L 898.8373251423758 197.790482243984"/></g><g transform="translate(-6,2) scale(1,1)"><path fill="none" stroke="#000000" d="M 898.8373251423759 206.209517756016 L 909 202 L 898.8373251423758 197.790482243984 L 898.8373251423759 206.209517756016" stroke-miterlimit="10"/></g><g transform="translate(-6,2) scale(1,1)"><g><path fill="none" stroke="none"/><text fill="#000000" stroke="none" font-family="Arial" font-size="13px" font-style="normal" font-weight="normal" text-decoration="none" x="761.5" y="198.5">5 : getAccessPoints()</text></g></g><g transform="translate(-6,2) scale(1,1)"><rect fill="#ffffff" stroke="none" x="909" y="202" width="13" height="28"/></g><g transform="translate(-6,2) scale(1,1)"><path fill="none" stroke="#000000" d="M 909 202 L 922 202 L 922 230 L 909 230 L 909 202 Z Z" stroke-miterlimit="10"/></g><g transform="translate(-6,2) scale(1,1)"><path fill="none" stroke="#000000" d="M 724 219 L 312 219" stroke-miterlimit="10" stroke-dasharray="3"/></g><g transform="translate(-6,2) scale(1,1)"><path fill="none" stroke="#000000" d="M 322.16267485762415 214.790482243984 L 312 219 L 322.16267485762415 223.209517756016" stroke-miterlimit="10"/></g><g transform="translate(-6,2) scale(1,1)"><g><path fill="none" stroke="none"/><text fill="#000000" stroke="none" font-family="Arial" font-size="13px" font-style="normal" font-weight="normal" text-decoration="none" x="456.5" y="235.5">6 : list&lt;AccessPoint&gt;</text></g></g><g transform="translate(-6,2) scale(1,1)"><path fill="none" stroke="#000000" d="M 909 220 L 737 220" stroke-miterlimit="10" stroke-dasharray="3"/></g><g transform="translate(-6,2) scale(1,1)"><path fill="none" stroke="#000000" d="M 747.1626748576241 215.790482243984 L 737 220 L 747.1626748576241 224.209517756016" stroke-miterlimit="10"/></g><g transform="translate(-6,2) scale(1,1)"><g><path fill="none" stroke="none"/><text fill="#000000" stroke="none" font-family="Arial" font-size="13px" font-style="normal" font-weight="normal" text-decoration="none" x="750.5" y="236.5">7 : Cursor&lt;AccessPoint&gt;</text></g></g><g transform="translate(-6,2) scale(1,1)"><path fill="none" stroke="#000000" d="M 312 248 L 342 248 L 342 268 L 319 268" stroke-miterlimit="10"/></g><g transform="translate(-6,2) scale(1,1)"><path fill="#000000" stroke="none" d="M 329.16267485762415 263.790482243984 L 319 268 L 329.16267485762415 272.209517756016"/></g><g transform="translate(-6,2) scale(1,1)"><path fill="none" stroke="#000000" d="M 329.16267485762415 263.790482243984 L 319 268 L 329.16267485762415 272.209517756016 L 329.16267485762415 263.790482243984" stroke-miterlimit="10"/></g><g transform="translate(-6,2) scale(1,1)"><g><path fill="none" stroke="none"/><text fill="#000000" stroke="none" font-family="Arial" font-size="13px" font-style="normal" font-weight="normal" text-decoration="none" x="351.5" y="263.5">8 : calculateLocation()</text></g></g><g transform="translate(-6,2) scale(1,1)"><rect fill="#ffffff" stroke="none" x="306" y="268" width="13" height="28"/></g><g transform="translate(-6,2) scale(1,1)"><path fill="none" stroke="#000000" d="M 306 268 L 319 268 L 319 296 L 306 296 L 306 268 Z Z" stroke-miterlimit="10"/></g><g transform="translate(-6,2) scale(1,1)"><path fill="none" stroke="#000000" d="M 312 304 L 724 304" stroke-miterlimit="10"/></g><g transform="translate(-6,2) scale(1,1)"><path fill="#000000" stroke="none" d="M 713.8373251423759 308.209517756016 L 724 304 L 713.8373251423758 299.790482243984"/></g><g transform="translate(-6,2) scale(1,1)"><path fill="none" stroke="#000000" d="M 713.8373251423759 308.209517756016 L 724 304 L 713.8373251423758 299.790482243984 L 713.8373251423759 308.209517756016" stroke-miterlimit="10"/></g><g transform="translate(-6,2) scale(1,1)"><g><path fill="none" stroke="none"/><text fill="#000000" stroke="none" font-family="Arial" font-size="13px" font-style="normal" font-weight="normal" text-decoration="none" x="411.5" y="300.5">9 : insertCustomerLocation(Location)</text></g></g><g transform="translate(-6,2) scale(1,1)"><rect fill="#ffffff" stroke="none" x="724" y="304" width="13" height="28"/></g><g transform="translate(-6,2) scale(1,1)"><path fill="none" stroke="#000000" d="M 724 304 L 737 304 L 737 332 L 724 332 L 724 304 Z Z" stroke-miterlimit="10"/></g><g transform="translate(-6,2) scale(1,1)"><path fill="none" stroke="#000000" d="M 737 317 L 909 317" stroke-miterlimit="10"/></g><g transform="translate(-6,2) scale(1,1)"><path fill="#000000" stroke="none" d="M 898.8373251423759 321.209517756016 L 909 317 L 898.8373251423758 312.790482243984"/></g><g transform="translate(-6,2) scale(1,1)"><path fill="none" stroke="#000000" d="M 898.8373251423759 321.209517756016 L 909 317 L 898.8373251423758 312.790482243984 L 898.8373251423759 321.209517756016" stroke-miterlimit="10"/></g><g transform="translate(-6,2) scale(1,1)"><g><path fill="none" stroke="none"/><text fill="#000000" stroke="none" font-family="Arial" font-size="13px" font-style="normal" font-weight="normal" text-decoration="none" x="765.5" y="313.5">10 : insert(Location)</text></g></g><g transform="translate(-6,2) scale(1,1)"><rect fill="#ffffff" stroke="none" x="909" y="317" width="13" height="28"/></g><g transform="translate(-6,2) scale(1,1)"><path fill="none" stroke="#000000" d="M 909 317 L 922 317 L 922 345 L 909 345 L 909 317 Z Z" stroke-miterlimit="10"/></g><g transform="translate(-6,2) scale(1,1)"><path fill="none" stroke="#000000" d="M 112 424 L 299 424" stroke-miterlimit="10"/></g><g transform="translate(-6,2) scale(1,1)"><path fill="none" stroke="#000000" d="M 288.83732514237585 428.209517756016 L 299 424 L 288.83732514237585 419.790482243984" stroke-miterlimit="10"/></g><g transform="translate(-6,2) scale(1,1)"><g><path fill="none" stroke="none"/><text fill="#000000" stroke="none" font-family="Arial" font-size="13px" font-style="normal" font-weight="normal" text-decoration="none" x="136.344970703125" y="420.5">11 : startSendLocation()</text></g></g><g transform="translate(-6,2) scale(1,1)"><rect fill="#ffffff" stroke="none" x="299" y="424" width="13" height="128"/></g><g transform="translate(-6,2) scale(1,1)"><path fill="none" stroke="#000000" d="M 299 424 L 312 424 L 312 552 L 299 552 L 299 424 Z Z" stroke-miterlimit="10"/></g><g transform="translate(-6,2) scale(1,1)"><path fill="none" stroke="#000000" d="M 312 432 L 724 432" stroke-miterlimit="10"/></g><g transform="translate(-6,2) scale(1,1)"><path fill="#000000" stroke="none" d="M 713.8373251423759 436.209517756016 L 724 432 L 713.8373251423758 427.790482243984"/></g><g transform="translate(-6,2) scale(1,1)"><path fill="none" stroke="#000000" d="M 713.8373251423759 436.209517756016 L 724 432 L 713.8373251423758 427.790482243984 L 713.8373251423759 436.209517756016" stroke-miterlimit="10"/></g><g transform="translate(-6,2) scale(1,1)"><g><path fill="none" stroke="none"/><text fill="#000000" stroke="none" font-family="Arial" font-size="13px" font-style="normal" font-weight="normal" text-decoration="none" x="443.5" y="428.5">12 : getCustomerLocation</text></g></g><g transform="translate(-6,2) scale(1,1)"><rect fill="#ffffff" stroke="none" x="724" y="432" width="13" height="40"/></g><g transform="translate(-6,2) scale(1,1)"><path fill="none" stroke="#000000" d="M 724 432 L 737 432 L 737 472 L 724 472 L 724 432 Z Z" stroke-miterlimit="10"/></g><g transform="translate(-6,2) scale(1,1)"><path fill="none" stroke="#000000" d="M 737 445 L 909 445" stroke-miterlimit="10"/></g><g transform="translate(-6,2) scale(1,1)"><path fill="#000000" stroke="none" d="M 898.8373251423759 449.209517756016 L 909 445 L 898.8373251423758 440.790482243984"/></g><g transform="translate(-6,2) scale(1,1)"><path fill="none" stroke="#000000" d="M 898.8373251423759 449.209517756016 L 909 445 L 898.8373251423758 440.790482243984 L 898.8373251423759 449.209517756016" stroke-miterlimit="10"/></g><g transform="translate(-6,2) scale(1,1)"><g><path fill="none" stroke="none"/><text fill="#000000" stroke="none" font-family="Arial" font-size="13px" font-style="normal" font-weight="normal" text-decoration="none" x="748.5" y="441.5">13 : getCustomerLocation</text></g></g><g transform="translate(-6,2) scale(1,1)"><rect fill="#ffffff" stroke="none" x="909" y="445" width="13" height="28"/></g><g transform="translate(-6,2) scale(1,1)"><path fill="none" stroke="#000000" d="M 909 445 L 922 445 L 922 473 L 909 473 L 909 445 Z Z" stroke-miterlimit="10"/></g><g transform="translate(-6,2) scale(1,1)"><path fill="none" stroke="#000000" d="M 724 456 L 312 456" stroke-miterlimit="10" stroke-dasharray="3"/></g><g transform="translate(-6,2) scale(1,1)"><path fill="none" stroke="#000000" d="M 322.16267485762415 451.790482243984 L 312 456 L 322.16267485762415 460.209517756016" stroke-miterlimit="10"/></g><g transform="translate(-6,2) scale(1,1)"><g><path fill="none" stroke="none"/><text fill="#000000" stroke="none" font-family="Arial" font-size="13px" font-style="normal" font-weight="normal" text-decoration="none" x="464.5" y="472.5">14 : list&lt;Location&gt;</text></g></g><g transform="translate(-6,2) scale(1,1)"><path fill="none" stroke="#000000" d="M 909 464 L 737 464" stroke-miterlimit="10" stroke-dasharray="3"/></g><g transform="translate(-6,2) scale(1,1)"><path fill="none" stroke="#000000" d="M 747.1626748576241 459.790482243984 L 737 464 L 747.1626748576241 468.209517756016" stroke-miterlimit="10"/></g><g transform="translate(-6,2) scale(1,1)"><g><path fill="none" stroke="none"/><text fill="#000000" stroke="none" font-family="Arial" font-size="13px" font-style="normal" font-weight="normal" text-decoration="none" x="757.5" y="480.5">15 : Cursor&lt;Location&gt;</text></g></g><g transform="translate(-6,2) scale(1,1)"><path fill="none" stroke="#000000" d="M 312 512 L 1052 512" stroke-miterlimit="10"/></g><g transform="translate(-6,2) scale(1,1)"><path fill="#000000" stroke="none" d="M 1041.837325142376 516.209517756016 L 1052 512 L 1041.837325142376 507.790482243984"/></g><g transform="translate(-6,2) scale(1,1)"><path fill="none" stroke="#000000" d="M 1041.837325142376 516.209517756016 L 1052 512 L 1041.837325142376 507.790482243984 L 1041.837325142376 516.209517756016" stroke-miterlimit="10"/></g><g transform="translate(-6,2) scale(1,1)"><g><path fill="none" stroke="none"/><text fill="#000000" stroke="none" font-family="Arial" font-size="13px" font-style="normal" font-weight="normal" text-decoration="none" x="598.5" y="508.5">16 : sendCustomerLocation()</text></g></g><g transform="translate(-6,2) scale(1,1)"><rect fill="#ffffff" stroke="none" x="1052" y="512" width="13" height="28"/></g><g transform="translate(-6,2) scale(1,1)"><path fill="none" stroke="#000000" d="M 1052 512 L 1065 512 L 1065 540 L 1052 540 L 1052 512 Z Z" stroke-miterlimit="10"/></g><g transform="translate(-6,2) scale(1,1)"><path fill="none" stroke="#000000" d="M 1065 520 L 1344 520" stroke-miterlimit="10"/></g><g transform="translate(-6,2) scale(1,1)"><path fill="#000000" stroke="none" d="M 1333.837325142376 524.209517756016 L 1344 520 L 1333.837325142376 515.790482243984"/></g><g transform="translate(-6,2) scale(1,1)"><path fill="none" stroke="#000000" d="M 1333.837325142376 524.209517756016 L 1344 520 L 1333.837325142376 515.790482243984 L 1333.837325142376 524.209517756016" stroke-miterlimit="10"/></g><g transform="translate(-6,2) scale(1,1)"><g><path fill="none" stroke="none"/><text fill="#000000" stroke="none" font-family="Arial" font-size="13px" font-style="normal" font-weight="normal" text-decoration="none" x="1075.5" y="516.5">17 : POST: /customers/{customerID}/location</text></g></g><g transform="translate(-6,2) scale(1,1)"><rect fill="#ffffff" stroke="none" x="1344" y="520" width="13" height="28"/></g><g transform="translate(-6,2) scale(1,1)"><path fill="none" stroke="#000000" d="M 1344 520 L 1357 520 L 1357 548 L 1344 548 L 1344 520 Z Z" stroke-miterlimit="10"/></g><g transform="translate(-6,2) scale(1,1)"><path fill="none" stroke="#000000" d="M 1344 536 L 1065 536" stroke-miterlimit="10" stroke-dasharray="3"/></g><g transform="translate(-6,2) scale(1,1)"><path fill="none" stroke="#000000" d="M 1075.162674857624 531.790482243984 L 1065 536 L 1075.162674857624 540.209517756016" stroke-miterlimit="10"/></g><g transform="translate(-6,2) scale(1,1)"><g><path fill="none" stroke="none"/><text fill="#000000" stroke="none" font-family="Arial" font-size="13px" font-style="normal" font-weight="normal" text-decoration="none" x="1143.5" y="552.5">18 : 201 : CREATED</text></g></g></g></svg>