<svg version="1.1" xmlns="http://www.w3.org/2000/svg" xmlns:xlink="http://www.w3.org/1999/xlink" width="1920.44091796875" height="464"><defs/><g><g transform="translate(-318,-14) scale(1,1)"><rect fill="#C0C0C0" stroke="none" x="1601" y="255" width="142.525390625" height="44" opacity="0.2"/></g><g transform="translate(-318,-14) scale(1,1)"><rect fill="#ffffff" stroke="none" x="1594" y="248" width="142.525390625" height="44"/></g><g transform="translate(-318,-14) scale(1,1)"><path fill="none" stroke="#000000" d="M 1594 248 L 1736.525390625 248 L 1736.525390625 292 L 1594 292 L 1594 248 Z Z" stroke-miterlimit="10"/></g><g transform="translate(-318,-14) scale(1,1)"><rect fill="#ffffff" stroke="none" x="1584" y="255" width="20" height="10"/></g><g transform="translate(-318,-14) scale(1,1)"><path fill="none" stroke="#000000" d="M 1584 255 L 1604 255 L 1604 265 L 1584 265 L 1584 255 Z Z" stroke-miterlimit="10"/></g><g transform="translate(-318,-14) scale(1,1)"><rect fill="#ffffff" stroke="none" x="1584" y="275" width="20" height="10"/></g><g transform="translate(-318,-14) scale(1,1)"><path fill="none" stroke="#000000" d="M 1584 275 L 1604 275 L 1604 285 L 1584 285 L 1584 275 Z Z" stroke-miterlimit="10"/></g><g transform="translate(-318,-14) scale(1,1)"><g><path fill="none" stroke="none"/><text fill="#000000" stroke="none" font-family="Arial" font-size="13px" font-style="normal" font-weight="bold" text-decoration="none" x="1613.5400390625" y="267.5">springfox-swagger2</text></g></g><g transform="translate(-318,-14) scale(1,1)"><rect fill="#C0C0C0" stroke="none" x="1593" y="167" width="165.61181640625" height="44" opacity="0.2"/></g><g transform="translate(-318,-14) scale(1,1)"><rect fill="#ffffff" stroke="none" x="1586" y="160" width="165.61181640625" height="44"/></g><g transform="translate(-318,-14) scale(1,1)"><path fill="none" stroke="#000000" d="M 1586 160 L 1751.61181640625 160 L 1751.61181640625 204 L 1586 204 L 1586 160 Z Z" stroke-miterlimit="10"/></g><g transform="translate(-318,-14) scale(1,1)"><rect fill="#ffffff" stroke="none" x="1576" y="167" width="20" height="10"/></g><g transform="translate(-318,-14) scale(1,1)"><path fill="none" stroke="#000000" d="M 1576 167 L 1596 167 L 1596 177 L 1576 177 L 1576 167 Z Z" stroke-miterlimit="10"/></g><g transform="translate(-318,-14) scale(1,1)"><rect fill="#ffffff" stroke="none" x="1576" y="187" width="20" height="10"/></g><g transform="translate(-318,-14) scale(1,1)"><path fill="none" stroke="#000000" d="M 1576 187 L 1596 187 L 1596 197 L 1576 197 L 1576 187 Z Z" stroke-miterlimit="10"/></g><g transform="translate(-318,-14) scale(1,1)"><g><path fill="none" stroke="none"/><text fill="#000000" stroke="none" font-family="Arial" font-size="13px" font-style="normal" font-weight="bold" text-decoration="none" x="1606.61279296875" y="179.5">spring-boot-starter-web</text></g></g><g transform="translate(-318,-14) scale(1,1)"><rect fill="#C0C0C0" stroke="none" x="1585" y="367" width="165.61181640625" height="44" opacity="0.2"/></g><g transform="translate(-318,-14) scale(1,1)"><rect fill="#ffffff" stroke="none" x="1578" y="360" width="165.61181640625" height="44"/></g><g transform="translate(-318,-14) scale(1,1)"><path fill="none" stroke="#000000" d="M 1578 360 L 1743.61181640625 360 L 1743.61181640625 404 L 1578 404 L 1578 360 Z Z" stroke-miterlimit="10"/></g><g transform="translate(-318,-14) scale(1,1)"><rect fill="#ffffff" stroke="none" x="1568" y="367" width="20" height="10"/></g><g transform="translate(-318,-14) scale(1,1)"><path fill="none" stroke="#000000" d="M 1568 367 L 1588 367 L 1588 377 L 1568 377 L 1568 367 Z Z" stroke-miterlimit="10"/></g><g transform="translate(-318,-14) scale(1,1)"><rect fill="#ffffff" stroke="none" x="1568" y="387" width="20" height="10"/></g><g transform="translate(-318,-14) scale(1,1)"><path fill="none" stroke="#000000" d="M 1568 387 L 1588 387 L 1588 397 L 1568 397 L 1568 387 Z Z" stroke-miterlimit="10"/></g><g transform="translate(-318,-14) scale(1,1)"><g><path fill="none" stroke="none"/><text fill="#000000" stroke="none" font-family="Arial" font-size="13px" font-style="normal" font-weight="bold" text-decoration="none" x="1605.474609375" y="379.5">springfox-swagger-ui</text></g></g><g transform="translate(-318,-14) scale(1,1)"><rect fill="#C0C0C0" stroke="none" x="1593" y="47" width="165.61181640625" height="44" opacity="0.2"/></g><g transform="translate(-318,-14) scale(1,1)"><rect fill="#ffffff" stroke="none" x="1586" y="40" width="165.61181640625" height="44"/></g><g transform="translate(-318,-14) scale(1,1)"><path fill="none" stroke="#000000" d="M 1586 40 L 1751.61181640625 40 L 1751.61181640625 84 L 1586 84 L 1586 40 Z Z" stroke-miterlimit="10"/></g><g transform="translate(-318,-14) scale(1,1)"><rect fill="#ffffff" stroke="none" x="1576" y="47" width="20" height="10"/></g><g transform="translate(-318,-14) scale(1,1)"><path fill="none" stroke="#000000" d="M 1576 47 L 1596 47 L 1596 57 L 1576 57 L 1576 47 Z Z" stroke-miterlimit="10"/></g><g transform="translate(-318,-14) scale(1,1)"><rect fill="#ffffff" stroke="none" x="1576" y="67" width="20" height="10"/></g><g transform="translate(-318,-14) scale(1,1)"><path fill="none" stroke="#000000" d="M 1576 67 L 1596 67 L 1596 77 L 1576 77 L 1576 67 Z Z" stroke-miterlimit="10"/></g><g transform="translate(-318,-14) scale(1,1)"><g><path fill="none" stroke="none"/><text fill="#000000" stroke="none" font-family="Arial" font-size="13px" font-style="normal" font-weight="bold" text-decoration="none" x="1624.66552734375" y="59.5">spring-boot-2.1.9</text></g></g><g transform="translate(-318,-14) scale(1,1)"><rect fill="#C0C0C0" stroke="none" x="881" y="151" width="142.50634765625" height="44" opacity="0.2"/></g><g transform="translate(-318,-14) scale(1,1)"><rect fill="#ffffff" stroke="none" x="874" y="144" width="142.50634765625" height="44"/></g><g transform="translate(-318,-14) scale(1,1)"><path fill="none" stroke="#000000" d="M 874 144 L 1016.50634765625 144 L 1016.50634765625 188 L 874 188 L 874 144 Z Z" stroke-miterlimit="10"/></g><g transform="translate(-318,-14) scale(1,1)"><rect fill="#ffffff" stroke="none" x="864" y="151" width="20" height="10"/></g><g transform="translate(-318,-14) scale(1,1)"><path fill="none" stroke="#000000" d="M 864 151 L 884 151 L 884 161 L 864 161 L 864 151 Z Z" stroke-miterlimit="10"/></g><g transform="translate(-318,-14) scale(1,1)"><rect fill="#ffffff" stroke="none" x="864" y="171" width="20" height="10"/></g><g transform="translate(-318,-14) scale(1,1)"><path fill="none" stroke="#000000" d="M 864 171 L 884 171 L 884 181 L 864 181 L 864 171 Z Z" stroke-miterlimit="10"/></g><g transform="translate(-318,-14) scale(1,1)"><g><path fill="none" stroke="none"/><text fill="#000000" stroke="none" font-family="Arial" font-size="13px" font-style="normal" font-weight="normal" text-decoration="none" x="935.799560546875" y="161.5">«jar»</text></g></g><g transform="translate(-318,-14) scale(1,1)"><g><path fill="none" stroke="none"/><text fill="#000000" stroke="none" font-family="Arial" font-size="13px" font-style="normal" font-weight="bold" text-decoration="none" x="891.36279296875" y="176.5">Cloudito_REST_API</text></g></g><g transform="translate(-318,-14) scale(1,1)"><rect fill="#C0C0C0" stroke="none" x="1113" y="95" width="179.341796875" height="44" opacity="0.2"/></g><g transform="translate(-318,-14) scale(1,1)"><rect fill="#ffffff" stroke="none" x="1106" y="88" width="179.341796875" height="44"/></g><g transform="translate(-318,-14) scale(1,1)"><path fill="none" stroke="#000000" d="M 1106 88 L 1285.341796875 88 L 1285.341796875 132 L 1106 132 L 1106 88 Z Z" stroke-miterlimit="10"/></g><g transform="translate(-318,-14) scale(1,1)"><rect fill="#ffffff" stroke="none" x="1096" y="95" width="20" height="10"/></g><g transform="translate(-318,-14) scale(1,1)"><path fill="none" stroke="#000000" d="M 1096 95 L 1116 95 L 1116 105 L 1096 105 L 1096 95 Z Z" stroke-miterlimit="10"/></g><g transform="translate(-318,-14) scale(1,1)"><rect fill="#ffffff" stroke="none" x="1096" y="115" width="20" height="10"/></g><g transform="translate(-318,-14) scale(1,1)"><path fill="none" stroke="#000000" d="M 1096 115 L 1116 115 L 1116 125 L 1096 125 L 1096 115 Z Z" stroke-miterlimit="10"/></g><g transform="translate(-318,-14) scale(1,1)"><g><path fill="none" stroke="none"/><text fill="#000000" stroke="none" font-family="Arial" font-size="13px" font-style="normal" font-weight="normal" text-decoration="none" x="1186.21728515625" y="105.5">«jar»</text></g></g><g transform="translate(-318,-14) scale(1,1)"><g><path fill="none" stroke="none"/><text fill="#000000" stroke="none" font-family="Arial" font-size="13px" font-style="normal" font-weight="bold" text-decoration="none" x="1126.619140625" y="120.5">Cloudito_Customer_Wrkfl</text></g></g><g transform="translate(-318,-14) scale(1,1)"><rect fill="#C0C0C0" stroke="none" x="617" y="151" width="120.8291015625" height="44" opacity="0.2"/></g><g transform="translate(-318,-14) scale(1,1)"><rect fill="#ffffff" stroke="none" x="610" y="144" width="120.8291015625" height="44"/></g><g transform="translate(-318,-14) scale(1,1)"><path fill="none" stroke="#000000" d="M 610 144 L 730.8291015625 144 L 730.8291015625 188 L 610 188 L 610 144 Z Z" stroke-miterlimit="10"/></g><g transform="translate(-318,-14) scale(1,1)"><rect fill="#ffffff" stroke="none" x="600" y="151" width="20" height="10"/></g><g transform="translate(-318,-14) scale(1,1)"><path fill="none" stroke="#000000" d="M 600 151 L 620 151 L 620 161 L 600 161 L 600 151 Z Z" stroke-miterlimit="10"/></g><g transform="translate(-318,-14) scale(1,1)"><rect fill="#ffffff" stroke="none" x="600" y="171" width="20" height="10"/></g><g transform="translate(-318,-14) scale(1,1)"><path fill="none" stroke="#000000" d="M 600 171 L 620 171 L 620 181 L 600 181 L 600 171 Z Z" stroke-miterlimit="10"/></g><g transform="translate(-318,-14) scale(1,1)"><g><path fill="none" stroke="none"/><text fill="#000000" stroke="none" font-family="Arial" font-size="13px" font-style="normal" font-weight="normal" text-decoration="none" x="657.70458984375" y="161.5">«apk»</text></g></g><g transform="translate(-318,-14) scale(1,1)"><g><path fill="none" stroke="none"/><text fill="#000000" stroke="none" font-family="Arial" font-size="13px" font-style="normal" font-weight="bold" text-decoration="none" x="628.8037109375" y="176.5">Cloudito_mobile</text></g></g><g transform="translate(-318,-14) scale(1,1)"><path fill="#C0C0C0" stroke="none" d="M 790.7099609375 170.5 C 790.7099609375 164.1487248 795.8586857375 159 802.2099609375 159 C 808.5612361375 159 813.7099609375 164.1487248 813.7099609375 170.5 C 813.7099609375 176.8512752 808.5612361375 182 802.2099609375 182 C 795.8586857375 182 790.7099609375 176.8512752 790.7099609375 170.5 Z" opacity="0.2"/></g><g transform="translate(-318,-14) scale(1,1)"><path fill="none" stroke="#000000" d="M 795 174.5 A 11.5 11.5 0 0 1 795 151.5" stroke-miterlimit="10"/></g><g transform="translate(-318,-14) scale(1,1)"><path fill="#ffffff" stroke="none" d="M 786.7099609375 163.5 C 786.7099609375 158.8055792 790.5155401375 155 795.2099609375 155 C 799.9043817375 155 803.7099609375 158.8055792 803.7099609375 163.5 C 803.7099609375 168.1944208 799.9043817375 172 795.2099609375 172 C 790.5155401375 172 786.7099609375 168.1944208 786.7099609375 163.5 Z"/></g><g transform="translate(-318,-14) scale(1,1)"><path fill="none" stroke="#000000" d="M 786.7099609375 163.5 C 786.7099609375 158.8055792 790.5155401375 155 795.2099609375 155 C 799.9043817375 155 803.7099609375 158.8055792 803.7099609375 163.5 C 803.7099609375 168.1944208 799.9043817375 172 795.2099609375 172 C 790.5155401375 172 786.7099609375 168.1944208 786.7099609375 163.5 Z" stroke-miterlimit="10"/></g><g transform="translate(-318,-14) scale(1,1)"><g><path fill="none" stroke="none"/><text fill="#000000" stroke="none" font-family="Arial" font-size="13px" font-style="normal" font-weight="bold" text-decoration="none" x="777.87451171875" y="194.5">REST</text></g></g><g transform="translate(-318,-14) scale(1,1)"><path fill="none" stroke="#000000" d="M 864 163 L 806.7099609375 163" stroke-miterlimit="10"/></g><g transform="translate(-318,-14) scale(1,1)"><path fill="none" stroke="#000000" d="M 731 163 L 783.7099609375 163" stroke-miterlimit="10"/></g><g transform="translate(-318,-14) scale(1,1)"><rect fill="#C0C0C0" stroke="none" x="345" y="127" width="163.4599609375" height="44" opacity="0.2"/></g><g transform="translate(-318,-14) scale(1,1)"><rect fill="#ffffff" stroke="none" x="338" y="120" width="163.4599609375" height="44"/></g><g transform="translate(-318,-14) scale(1,1)"><path fill="none" stroke="#000000" d="M 338 120 L 501.4599609375 120 L 501.4599609375 164 L 338 164 L 338 120 Z Z" stroke-miterlimit="10"/></g><g transform="translate(-318,-14) scale(1,1)"><rect fill="#ffffff" stroke="none" x="328" y="127" width="20" height="10"/></g><g transform="translate(-318,-14) scale(1,1)"><path fill="none" stroke="#000000" d="M 328 127 L 348 127 L 348 137 L 328 137 L 328 127 Z Z" stroke-miterlimit="10"/></g><g transform="translate(-318,-14) scale(1,1)"><rect fill="#ffffff" stroke="none" x="328" y="147" width="20" height="10"/></g><g transform="translate(-318,-14) scale(1,1)"><path fill="none" stroke="#000000" d="M 328 147 L 348 147 L 348 157 L 328 157 L 328 147 Z Z" stroke-miterlimit="10"/></g><g transform="translate(-318,-14) scale(1,1)"><g><path fill="none" stroke="none"/><text fill="#000000" stroke="none" font-family="Arial" font-size="13px" font-style="normal" font-weight="normal" text-decoration="none" x="410.2763671875" y="137.5">«jar»</text></g></g><g transform="translate(-318,-14) scale(1,1)"><g><path fill="none" stroke="none"/><text fill="#000000" stroke="none" font-family="Arial" font-size="13px" font-style="normal" font-weight="bold" text-decoration="none" x="357.52734375" y="152.5">osmdroid-android-6.1.2</text></g></g><g transform="translate(-318,-14) scale(1,1)"><rect fill="#C0C0C0" stroke="none" x="345" y="31" width="147.59716796875" height="44" opacity="0.2"/></g><g transform="translate(-318,-14) scale(1,1)"><rect fill="#ffffff" stroke="none" x="338" y="24" width="147.59716796875" height="44"/></g><g transform="translate(-318,-14) scale(1,1)"><path fill="none" stroke="#000000" d="M 338 24 L 485.59716796875 24 L 485.59716796875 68 L 338 68 L 338 24 Z Z" stroke-miterlimit="10"/></g><g transform="translate(-318,-14) scale(1,1)"><rect fill="#ffffff" stroke="none" x="328" y="31" width="20" height="10"/></g><g transform="translate(-318,-14) scale(1,1)"><path fill="none" stroke="#000000" d="M 328 31 L 348 31 L 348 41 L 328 41 L 328 31 Z Z" stroke-miterlimit="10"/></g><g transform="translate(-318,-14) scale(1,1)"><rect fill="#ffffff" stroke="none" x="328" y="51" width="20" height="10"/></g><g transform="translate(-318,-14) scale(1,1)"><path fill="none" stroke="#000000" d="M 328 51 L 348 51 L 348 61 L 328 61 L 328 51 Z Z" stroke-miterlimit="10"/></g><g transform="translate(-318,-14) scale(1,1)"><g><path fill="none" stroke="none"/><text fill="#000000" stroke="none" font-family="Arial" font-size="13px" font-style="normal" font-weight="normal" text-decoration="none" x="402.344970703125" y="41.5">«jar»</text></g></g><g transform="translate(-318,-14) scale(1,1)"><g><path fill="none" stroke="none"/><text fill="#000000" stroke="none" font-family="Arial" font-size="13px" font-style="normal" font-weight="bold" text-decoration="none" x="356.457763671875" y="56.5">osmbonuspack-6.6.0</text></g></g><g transform="translate(-318,-14) scale(1,1)"><rect fill="#C0C0C0" stroke="none" x="1121" y="159" width="166.34814453125" height="44" opacity="0.2"/></g><g transform="translate(-318,-14) scale(1,1)"><rect fill="#ffffff" stroke="none" x="1114" y="152" width="166.34814453125" height="44"/></g><g transform="translate(-318,-14) scale(1,1)"><path fill="none" stroke="#000000" d="M 1114 152 L 1280.34814453125 152 L 1280.34814453125 196 L 1114 196 L 1114 152 Z Z" stroke-miterlimit="10"/></g><g transform="translate(-318,-14) scale(1,1)"><rect fill="#ffffff" stroke="none" x="1104" y="159" width="20" height="10"/></g><g transform="translate(-318,-14) scale(1,1)"><path fill="none" stroke="#000000" d="M 1104 159 L 1124 159 L 1124 169 L 1104 169 L 1104 159 Z Z" stroke-miterlimit="10"/></g><g transform="translate(-318,-14) scale(1,1)"><rect fill="#ffffff" stroke="none" x="1104" y="179" width="20" height="10"/></g><g transform="translate(-318,-14) scale(1,1)"><path fill="none" stroke="#000000" d="M 1104 179 L 1124 179 L 1124 189 L 1104 189 L 1104 179 Z Z" stroke-miterlimit="10"/></g><g transform="translate(-318,-14) scale(1,1)"><g><path fill="none" stroke="none"/><text fill="#000000" stroke="none" font-family="Arial" font-size="13px" font-style="normal" font-weight="normal" text-decoration="none" x="1187.720458984375" y="169.5">«jar»</text></g></g><g transform="translate(-318,-14) scale(1,1)"><g><path fill="none" stroke="none"/><text fill="#000000" stroke="none" font-family="Arial" font-size="13px" font-style="normal" font-weight="bold" text-decoration="none" x="1133.885986328125" y="184.5">Cloudito_Geomarketing</text></g></g><g transform="translate(-318,-14) scale(1,1)"><rect fill="#C0C0C0" stroke="none" x="1153" y="231" width="133.09912109375" height="44" opacity="0.2"/></g><g transform="translate(-318,-14) scale(1,1)"><rect fill="#ffffff" stroke="none" x="1146" y="224" width="133.09912109375" height="44"/></g><g transform="translate(-318,-14) scale(1,1)"><path fill="none" stroke="#000000" d="M 1146 224 L 1279.09912109375 224 L 1279.09912109375 268 L 1146 268 L 1146 224 Z Z" stroke-miterlimit="10"/></g><g transform="translate(-318,-14) scale(1,1)"><rect fill="#ffffff" stroke="none" x="1136" y="231" width="20" height="10"/></g><g transform="translate(-318,-14) scale(1,1)"><path fill="none" stroke="#000000" d="M 1136 231 L 1156 231 L 1156 241 L 1136 241 L 1136 231 Z Z" stroke-miterlimit="10"/></g><g transform="translate(-318,-14) scale(1,1)"><rect fill="#ffffff" stroke="none" x="1136" y="251" width="20" height="10"/></g><g transform="translate(-318,-14) scale(1,1)"><path fill="none" stroke="#000000" d="M 1136 251 L 1156 251 L 1156 261 L 1136 261 L 1136 251 Z Z" stroke-miterlimit="10"/></g><g transform="translate(-318,-14) scale(1,1)"><g><path fill="none" stroke="none"/><text fill="#000000" stroke="none" font-family="Arial" font-size="13px" font-style="normal" font-weight="normal" text-decoration="none" x="1203.095947265625" y="241.5">«jar»</text></g></g><g transform="translate(-318,-14) scale(1,1)"><g><path fill="none" stroke="none"/><text fill="#000000" stroke="none" font-family="Arial" font-size="13px" font-style="normal" font-weight="bold" text-decoration="none" x="1165.15283203125" y="256.5">Cloudito_mapping</text></g></g><g transform="translate(-318,-14) scale(1,1)"><rect fill="#C0C0C0" stroke="none" x="1137" y="295" width="150.42822265625" height="44" opacity="0.2"/></g><g transform="translate(-318,-14) scale(1,1)"><rect fill="#ffffff" stroke="none" x="1130" y="288" width="150.42822265625" height="44"/></g><g transform="translate(-318,-14) scale(1,1)"><path fill="none" stroke="#000000" d="M 1130 288 L 1280.42822265625 288 L 1280.42822265625 332 L 1130 332 L 1130 288 Z Z" stroke-miterlimit="10"/></g><g transform="translate(-318,-14) scale(1,1)"><rect fill="#ffffff" stroke="none" x="1120" y="295" width="20" height="10"/></g><g transform="translate(-318,-14) scale(1,1)"><path fill="none" stroke="#000000" d="M 1120 295 L 1140 295 L 1140 305 L 1120 305 L 1120 295 Z Z" stroke-miterlimit="10"/></g><g transform="translate(-318,-14) scale(1,1)"><rect fill="#ffffff" stroke="none" x="1120" y="315" width="20" height="10"/></g><g transform="translate(-318,-14) scale(1,1)"><path fill="none" stroke="#000000" d="M 1120 315 L 1140 315 L 1140 325 L 1120 325 L 1120 315 Z Z" stroke-miterlimit="10"/></g><g transform="translate(-318,-14) scale(1,1)"><g><path fill="none" stroke="none"/><text fill="#000000" stroke="none" font-family="Arial" font-size="13px" font-style="normal" font-weight="normal" text-decoration="none" x="1195.760498046875" y="305.5">«jar»</text></g></g><g transform="translate(-318,-14) scale(1,1)"><g><path fill="none" stroke="none"/><text fill="#000000" stroke="none" font-family="Arial" font-size="13px" font-style="normal" font-weight="bold" text-decoration="none" x="1150.596923828125" y="320.5">Cloudito_Notification</text></g></g><g transform="translate(-318,-14) scale(1,1)"><rect fill="#C0C0C0" stroke="none" x="369" y="207" width="141.103515625" height="44" opacity="0.2"/></g><g transform="translate(-318,-14) scale(1,1)"><rect fill="#ffffff" stroke="none" x="362" y="200" width="141.103515625" height="44"/></g><g transform="translate(-318,-14) scale(1,1)"><path fill="none" stroke="#000000" d="M 362 200 L 503.103515625 200 L 503.103515625 244 L 362 244 L 362 200 Z Z" stroke-miterlimit="10"/></g><g transform="translate(-318,-14) scale(1,1)"><rect fill="#ffffff" stroke="none" x="352" y="207" width="20" height="10"/></g><g transform="translate(-318,-14) scale(1,1)"><path fill="none" stroke="#000000" d="M 352 207 L 372 207 L 372 217 L 352 217 L 352 207 Z Z" stroke-miterlimit="10"/></g><g transform="translate(-318,-14) scale(1,1)"><rect fill="#ffffff" stroke="none" x="352" y="227" width="20" height="10"/></g><g transform="translate(-318,-14) scale(1,1)"><path fill="none" stroke="#000000" d="M 352 227 L 372 227 L 372 237 L 352 237 L 352 227 Z Z" stroke-miterlimit="10"/></g><g transform="translate(-318,-14) scale(1,1)"><g><path fill="none" stroke="none"/><text fill="#000000" stroke="none" font-family="Arial" font-size="13px" font-style="normal" font-weight="normal" text-decoration="none" x="423.09814453125" y="217.5">«jar»</text></g></g><g transform="translate(-318,-14) scale(1,1)"><g><path fill="none" stroke="none"/><text fill="#000000" stroke="none" font-family="Arial" font-size="13px" font-style="normal" font-weight="bold" text-decoration="none" x="380.8291015625" y="232.5">firebase-messaging</text></g></g><g transform="translate(-318,-14) scale(1,1)"><rect fill="#C0C0C0" stroke="none" x="377" y="295" width="100.64990234375" height="44" opacity="0.2"/></g><g transform="translate(-318,-14) scale(1,1)"><rect fill="#ffffff" stroke="none" x="370" y="288" width="100.64990234375" height="44"/></g><g transform="translate(-318,-14) scale(1,1)"><path fill="none" stroke="#000000" d="M 370 288 L 470.64990234375 288 L 470.64990234375 332 L 370 332 L 370 288 Z Z" stroke-miterlimit="10"/></g><g transform="translate(-318,-14) scale(1,1)"><rect fill="#ffffff" stroke="none" x="360" y="295" width="20" height="10"/></g><g transform="translate(-318,-14) scale(1,1)"><path fill="none" stroke="#000000" d="M 360 295 L 380 295 L 380 305 L 360 305 L 360 295 Z Z" stroke-miterlimit="10"/></g><g transform="translate(-318,-14) scale(1,1)"><rect fill="#ffffff" stroke="none" x="360" y="315" width="20" height="10"/></g><g transform="translate(-318,-14) scale(1,1)"><path fill="none" stroke="#000000" d="M 360 315 L 380 315 L 380 325 L 360 325 L 360 315 Z Z" stroke-miterlimit="10"/></g><g transform="translate(-318,-14) scale(1,1)"><g><path fill="none" stroke="none"/><text fill="#000000" stroke="none" font-family="Arial" font-size="13px" font-style="normal" font-weight="normal" text-decoration="none" x="410.871337890625" y="305.5">«jar»</text></g></g><g transform="translate(-318,-14) scale(1,1)"><g><path fill="none" stroke="none"/><text fill="#000000" stroke="none" font-family="Arial" font-size="13px" font-style="normal" font-weight="bold" text-decoration="none" x="387.391357421875" y="320.5">firebase-core</text></g></g><g transform="translate(-318,-14) scale(1,1)"><rect fill="#C0C0C0" stroke="none" x="1825" y="47" width="188.05712890625" height="44" opacity="0.2"/></g><g transform="translate(-318,-14) scale(1,1)"><rect fill="#ffffff" stroke="none" x="1818" y="40" width="188.05712890625" height="44"/></g><g transform="translate(-318,-14) scale(1,1)"><path fill="none" stroke="#000000" d="M 1818 40 L 2006.05712890625 40 L 2006.05712890625 84 L 1818 84 L 1818 40 Z Z" stroke-miterlimit="10"/></g><g transform="translate(-318,-14) scale(1,1)"><rect fill="#ffffff" stroke="none" x="1808" y="47" width="20" height="10"/></g><g transform="translate(-318,-14) scale(1,1)"><path fill="none" stroke="#000000" d="M 1808 47 L 1828 47 L 1828 57 L 1808 57 L 1808 47 Z Z" stroke-miterlimit="10"/></g><g transform="translate(-318,-14) scale(1,1)"><rect fill="#ffffff" stroke="none" x="1808" y="67" width="20" height="10"/></g><g transform="translate(-318,-14) scale(1,1)"><path fill="none" stroke="#000000" d="M 1808 67 L 1828 67 L 1828 77 L 1808 77 L 1808 67 Z Z" stroke-miterlimit="10"/></g><g transform="translate(-318,-14) scale(1,1)"><g><path fill="none" stroke="none"/><text fill="#000000" stroke="none" font-family="Arial" font-size="13px" font-style="normal" font-weight="normal" text-decoration="none" x="1892.46630859375" y="57.5">«Driver»</text></g></g><g transform="translate(-318,-14) scale(1,1)"><g><path fill="none" stroke="none"/><text fill="#000000" stroke="none" font-family="Arial" font-size="13px" font-style="normal" font-weight="bold" text-decoration="none" x="1852.35546875" y="72.5">mysql_connector_java</text></g></g><g transform="translate(-318,-14) scale(1,1)"><rect fill="#C0C0C0" stroke="none" x="2137" y="39" width="98.44091796875" height="44" opacity="0.2"/></g><g transform="translate(-318,-14) scale(1,1)"><rect fill="#ffffff" stroke="none" x="2130" y="32" width="98.44091796875" height="44"/></g><g transform="translate(-318,-14) scale(1,1)"><path fill="none" stroke="#000000" d="M 2130 32 L 2228.44091796875 32 L 2228.44091796875 76 L 2130 76 L 2130 32 Z Z" stroke-miterlimit="10"/></g><g transform="translate(-318,-14) scale(1,1)"><rect fill="#ffffff" stroke="none" x="2120" y="39" width="20" height="10"/></g><g transform="translate(-318,-14) scale(1,1)"><path fill="none" stroke="#000000" d="M 2120 39 L 2140 39 L 2140 49 L 2120 49 L 2120 39 Z Z" stroke-miterlimit="10"/></g><g transform="translate(-318,-14) scale(1,1)"><rect fill="#ffffff" stroke="none" x="2120" y="59" width="20" height="10"/></g><g transform="translate(-318,-14) scale(1,1)"><path fill="none" stroke="#000000" d="M 2120 59 L 2140 59 L 2140 69 L 2120 69 L 2120 59 Z Z" stroke-miterlimit="10"/></g><g transform="translate(-318,-14) scale(1,1)"><g><path fill="none" stroke="none"/><text fill="#000000" stroke="none" font-family="Arial" font-size="13px" font-style="normal" font-weight="normal" text-decoration="none" x="2152.780517578125" y="49.5">«Databse»</text></g></g><g transform="translate(-318,-14) scale(1,1)"><g><path fill="none" stroke="none"/><text fill="#000000" stroke="none" font-family="Arial" font-size="13px" font-style="normal" font-weight="bold" text-decoration="none" x="2162.549560546875" y="64.5">MySQL</text></g></g><g transform="translate(-318,-14) scale(1,1)"><path fill="none" stroke="#000000" d="M 1807 62 L 1753 62" stroke-miterlimit="10" stroke-dasharray="3"/></g><g transform="translate(-318,-14) scale(1,1)"><path fill="none" stroke="#000000" d="M 1763.162674857624 57.790482243984016 L 1753 62 L 1763.162674857624 66.20951775601598" stroke-miterlimit="10"/></g><g transform="translate(-318,-14) scale(1,1)"><path fill="#C0C0C0" stroke="none" d="M 2054.7099609375 50.5 C 2054.7099609375 44.1487248 2059.8586857375 39 2066.2099609375 39 C 2072.5612361375 39 2077.7099609375 44.1487248 2077.7099609375 50.5 C 2077.7099609375 56.8512752 2072.5612361375 62 2066.2099609375 62 C 2059.8586857375 62 2054.7099609375 56.8512752 2054.7099609375 50.5 Z" opacity="0.2"/></g><g transform="translate(-318,-14) scale(1,1)"><path fill="none" stroke="#000000" d="M 2059 54.5 A 11.5 11.5 0 0 1 2059 31.5" stroke-miterlimit="10"/></g><g transform="translate(-318,-14) scale(1,1)"><path fill="#ffffff" stroke="none" d="M 2050.7099609375 43.5 C 2050.7099609375 38.8055792 2054.5155401375 35 2059.2099609375 35 C 2063.9043817375 35 2067.7099609375 38.8055792 2067.7099609375 43.5 C 2067.7099609375 48.1944208 2063.9043817375 52 2059.2099609375 52 C 2054.5155401375 52 2050.7099609375 48.1944208 2050.7099609375 43.5 Z"/></g><g transform="translate(-318,-14) scale(1,1)"><path fill="none" stroke="#000000" d="M 2050.7099609375 43.5 C 2050.7099609375 38.8055792 2054.5155401375 35 2059.2099609375 35 C 2063.9043817375 35 2067.7099609375 38.8055792 2067.7099609375 43.5 C 2067.7099609375 48.1944208 2063.9043817375 52 2059.2099609375 52 C 2054.5155401375 52 2050.7099609375 48.1944208 2050.7099609375 43.5 Z" stroke-miterlimit="10"/></g><g transform="translate(-318,-14) scale(1,1)"><g><path fill="none" stroke="none"/><text fill="#000000" stroke="none" font-family="Arial" font-size="13px" font-style="normal" font-weight="bold" text-decoration="none" x="2042.236328125" y="74.5">JDBC</text></g></g><g transform="translate(-318,-14) scale(1,1)"><path fill="none" stroke="#000000" d="M 2120 43 L 2070.7099609375 43" stroke-miterlimit="10"/></g><g transform="translate(-318,-14) scale(1,1)"><path fill="none" stroke="#000000" d="M 2006 43 L 2047.7099609375 43" stroke-miterlimit="10"/></g><g transform="translate(-318,-14) scale(1,1)"><rect fill="#C0C0C0" stroke="none" x="1153" y="431" width="146.88623046875" height="44" opacity="0.2"/></g><g transform="translate(-318,-14) scale(1,1)"><rect fill="#ffffff" stroke="none" x="1146" y="424" width="146.88623046875" height="44"/></g><g transform="translate(-318,-14) scale(1,1)"><path fill="none" stroke="#000000" d="M 1146 424 L 1292.88623046875 424 L 1292.88623046875 468 L 1146 468 L 1146 424 Z Z" stroke-miterlimit="10"/></g><g transform="translate(-318,-14) scale(1,1)"><rect fill="#ffffff" stroke="none" x="1136" y="431" width="20" height="10"/></g><g transform="translate(-318,-14) scale(1,1)"><path fill="none" stroke="#000000" d="M 1136 431 L 1156 431 L 1156 441 L 1136 441 L 1136 431 Z Z" stroke-miterlimit="10"/></g><g transform="translate(-318,-14) scale(1,1)"><rect fill="#ffffff" stroke="none" x="1136" y="451" width="20" height="10"/></g><g transform="translate(-318,-14) scale(1,1)"><path fill="none" stroke="#000000" d="M 1136 451 L 1156 451 L 1156 461 L 1136 461 L 1136 451 Z Z" stroke-miterlimit="10"/></g><g transform="translate(-318,-14) scale(1,1)"><g><path fill="none" stroke="none"/><text fill="#000000" stroke="none" font-family="Arial" font-size="13px" font-style="normal" font-weight="normal" text-decoration="none" x="1209.989501953125" y="441.5">«jar»</text></g></g><g transform="translate(-318,-14) scale(1,1)"><g><path fill="none" stroke="none"/><text fill="#000000" stroke="none" font-family="Arial" font-size="13px" font-style="normal" font-weight="bold" text-decoration="none" x="1164.10546875" y="456.5">Firebase_Messaging</text></g></g><g transform="translate(-318,-14) scale(1,1)"><path fill="none" stroke="#000000" d="M 487 52 L 664 64 L 665 143" stroke-miterlimit="10" stroke-dasharray="3"/></g><g transform="translate(-318,-14) scale(1,1)"><path fill="none" stroke="#000000" d="M 660.6621883015425 132.89141999741184 L 665 143 L 669.0805494005072 132.78485846451355" stroke-miterlimit="10"/></g><g transform="translate(-318,-14) scale(1,1)"><path fill="none" stroke="#000000" d="M 502 150 L 599 160" stroke-miterlimit="10" stroke-dasharray="3"/></g><g transform="translate(-318,-14) scale(1,1)"><path fill="none" stroke="#000000" d="M 588.459220538659 163.14514997215917 L 599 160 L 589.3225864907315 154.77050023705635" stroke-miterlimit="10"/></g><g transform="translate(-318,-14) scale(1,1)"><path fill="none" stroke="#000000" d="M 504 204 L 599 182" stroke-miterlimit="10" stroke-dasharray="3"/></g><g transform="translate(-318,-14) scale(1,1)"><path fill="none" stroke="#000000" d="M 590.0490410410534 188.3937730422071 L 599 182 L 588.1496359464941 180.19179649751877" stroke-miterlimit="10"/></g><g transform="translate(-318,-14) scale(1,1)"><path fill="none" stroke="#000000" d="M 418 287 L 424 245" stroke-miterlimit="10" stroke-dasharray="3"/></g><g transform="translate(-318,-14) scale(1,1)"><path fill="none" stroke="#000000" d="M 426.7299907097617 255.65585053970892 L 424 245 L 418.39557076751026 254.46521911938729" stroke-miterlimit="10"/></g><g transform="translate(-318,-14) scale(1,1)"><path fill="none" stroke="#000000" d="M 1018 149 L 1095 131" stroke-miterlimit="10" stroke-dasharray="3"/></g><g transform="translate(-318,-14) scale(1,1)"><path fill="none" stroke="#000000" d="M 1086.0623270909655 137.4123321008126 L 1095 131 L 1084.1459073662897 129.21431438969918" stroke-miterlimit="10"/></g><g transform="translate(-318,-14) scale(1,1)"><path fill="none" stroke="#000000" d="M 1018 168 L 1103 171" stroke-miterlimit="10" stroke-dasharray="3"/></g><g transform="translate(-318,-14) scale(1,1)"><path fill="none" stroke="#000000" d="M 1092.6951701630603 174.8484389084039 L 1103 171 L 1092.9921276942118 166.434642192441" stroke-miterlimit="10"/></g><g transform="translate(-318,-14) scale(1,1)"><path fill="none" stroke="#000000" d="M 1017 189 L 1135 224" stroke-miterlimit="10" stroke-dasharray="3"/></g><g transform="translate(-318,-14) scale(1,1)"><path fill="none" stroke="#000000" d="M 1124.0598406132783 225.14582397999138 L 1135 224 L 1126.4539192040893 217.07435901668543" stroke-miterlimit="10"/></g><g transform="translate(-318,-14) scale(1,1)"><path fill="none" stroke="#000000" d="M 982 189 L 1158 287" stroke-miterlimit="10" stroke-dasharray="3"/></g><g transform="translate(-318,-14) scale(1,1)"><path fill="none" stroke="#000000" d="M 1147.0731172162066 285.7338117717972 L 1158 287 L 1151.16885736877 278.37819680392835" stroke-miterlimit="10"/></g><g transform="translate(-318,-14) scale(1,1)"><path fill="none" stroke="#000000" d="M 1212 423 L 1202 333" stroke-miterlimit="10" stroke-dasharray="3"/></g><g transform="translate(-318,-14) scale(1,1)"><path fill="none" stroke="#000000" d="M 1207.306050922054 342.63565377193316 L 1202 333 L 1198.9385084650057 343.5653807116052" stroke-miterlimit="10"/></g><g transform="translate(-318,-14) scale(1,1)"><path fill="none" stroke="#000000" d="M 1575 169 L 1286 125" stroke-miterlimit="10" stroke-dasharray="3"/></g><g transform="translate(-318,-14) scale(1,1)"><path fill="none" stroke="#000000" d="M 1296.6804935842606 122.36806975841505 L 1286 125 L 1295.4133051612848 130.69119371841538" stroke-miterlimit="10"/></g><g transform="translate(-318,-14) scale(1,1)"><path fill="none" stroke="#000000" d="M 1575 181 L 1281 176" stroke-miterlimit="10" stroke-dasharray="3"/></g><g transform="translate(-318,-14) scale(1,1)"><path fill="none" stroke="#000000" d="M 1291.2327855815022 171.9639004914396 L 1281 176 L 1291.089625407155 180.38171874306136" stroke-miterlimit="10"/></g><g transform="translate(-318,-14) scale(1,1)"><path fill="none" stroke="#000000" d="M 1575 194 L 1280 236" stroke-miterlimit="10" stroke-dasharray="3"/></g><g transform="translate(-318,-14) scale(1,1)"><path fill="none" stroke="#000000" d="M 1289.4678779625126 230.40006367116848 L 1280 236 L 1290.654553663069 238.7350477584097" stroke-miterlimit="10"/></g><g transform="translate(-318,-14) scale(1,1)"><path fill="none" stroke="#000000" d="M 1580 205 L 1281 287" stroke-miterlimit="10" stroke-dasharray="3"/></g><g transform="translate(-318,-14) scale(1,1)"><path fill="none" stroke="#000000" d="M 1289.6874485447454 280.2525384193461 L 1281 287 L 1291.9141296166747 288.37177793772264" stroke-miterlimit="10"/></g><g transform="translate(-318,-14) scale(1,1)"><path fill="none" stroke="#000000" d="M 1663 85 L 1663 159" stroke-miterlimit="10" stroke-dasharray="3"/></g><g transform="translate(-318,-14) scale(1,1)"><path fill="none" stroke="#000000" d="M 1658.7904822439841 148.83732514237585 L 1663 159 L 1667.2095177560159 148.83732514237585" stroke-miterlimit="10"/></g><g transform="translate(-318,-14) scale(1,1)"><path fill="none" stroke="#000000" d="M 1662 205 L 1661 247" stroke-miterlimit="10" stroke-dasharray="3"/></g><g transform="translate(-318,-14) scale(1,1)"><path fill="none" stroke="#000000" d="M 1657.0335748038651 236.7400062785854 L 1661 247 L 1665.4502249820875 236.94040271140022" stroke-miterlimit="10"/></g><g transform="translate(-318,-14) scale(1,1)"><path fill="none" stroke="#000000" d="M 1659 293 L 1656 359" stroke-miterlimit="10" stroke-dasharray="3"/></g><g transform="translate(-318,-14) scale(1,1)"><path fill="none" stroke="#000000" d="M 1652.256287486245 348.6566631779511 L 1656 359 L 1660.6666391016781 349.0389518877435" stroke-miterlimit="10"/></g><g transform="translate(-318,-14) scale(1,1)"><rect fill="#C0C0C0" stroke="none" x="1897" y="167" width="102.103515625" height="44" opacity="0.2"/></g><g transform="translate(-318,-14) scale(1,1)"><rect fill="#ffffff" stroke="none" x="1890" y="160" width="102.103515625" height="44"/></g><g transform="translate(-318,-14) scale(1,1)"><path fill="none" stroke="#000000" d="M 1890 160 L 1992.103515625 160 L 1992.103515625 204 L 1890 204 L 1890 160 Z Z" stroke-miterlimit="10"/></g><g transform="translate(-318,-14) scale(1,1)"><rect fill="#ffffff" stroke="none" x="1880" y="167" width="20" height="10"/></g><g transform="translate(-318,-14) scale(1,1)"><path fill="none" stroke="#000000" d="M 1880 167 L 1900 167 L 1900 177 L 1880 177 L 1880 167 Z Z" stroke-miterlimit="10"/></g><g transform="translate(-318,-14) scale(1,1)"><rect fill="#ffffff" stroke="none" x="1880" y="187" width="20" height="10"/></g><g transform="translate(-318,-14) scale(1,1)"><path fill="none" stroke="#000000" d="M 1880 187 L 1900 187 L 1900 197 L 1880 197 L 1880 187 Z Z" stroke-miterlimit="10"/></g><g transform="translate(-318,-14) scale(1,1)"><g><path fill="none" stroke="none"/><text fill="#000000" stroke="none" font-family="Arial" font-size="13px" font-style="normal" font-weight="bold" text-decoration="none" x="1907.753173828125" y="179.5">jackson_core</text></g></g><g transform="translate(-318,-14) scale(1,1)"><path fill="none" stroke="#000000" d="M 1879 182 L 1753 182" stroke-miterlimit="10" stroke-dasharray="3"/></g><g transform="translate(-318,-14) scale(1,1)"><path fill="none" stroke="#000000" d="M 1763.162674857624 177.790482243984 L 1753 182 L 1763.162674857624 186.209517756016" stroke-miterlimit="10"/></g></g></svg>