<svg version="1.1" xmlns="http://www.w3.org/2000/svg" xmlns:xlink="http://www.w3.org/1999/xlink" width="714" height="223"><defs/><g><g transform="translate(5,5) scale(1,1)"><path fill="none" stroke="#000000" d="M 5 5 L 699 5 L 699 208 L 5 208 L 5 5" stroke-miterlimit="10"/></g><g transform="translate(5,5) scale(1,1)"><path fill="#ffffff" stroke="none" d="M 5 5 L 5 27 L 215.8603515625 27 L 226.8603515625 16 L 226.8603515625 5 L 5 5"/></g><g transform="translate(5,5) scale(1,1)"><path fill="none" stroke="#000000" d="M 5 5 L 5 27 L 215.8603515625 27 L 226.8603515625 16 L 226.8603515625 5 L 5 5 L 5 5" stroke-miterlimit="10"/></g><g transform="translate(5,5) scale(1,1)"><g><path fill="none" stroke="none"/><text fill="#000000" stroke="none" font-family="Arial" font-size="13px" font-style="normal" font-weight="normal" text-decoration="none" x="75.97900390625" y="22.5">Visualiser son parcours</text></g></g><g transform="translate(5,5) scale(1,1)"><g><path fill="none" stroke="none"/><text fill="#000000" stroke="none" font-family="Arial" font-size="13px" font-style="normal" font-weight="bold" text-decoration="none" x="10" y="22.5">interaction</text></g></g><g transform="translate(5,5) scale(1,1)"><rect fill="#ffffff" stroke="none" x="116.36957465277777" y="40" width="34.44444444444446" height="40"/></g><g transform="translate(5,5) scale(1,1)"><path fill="none" stroke="#000000" d="M 116.36957465277777 40 L 150.81401909722223 40 L 150.81401909722223 80 L 116.36957465277777 80 L 116.36957465277777 40 Z Z" stroke-miterlimit="10"/></g><g transform="translate(5,5) scale(1,1)"><rect fill="#ffffff" stroke="none" x="106.36957465277777" y="47" width="20" height="10"/></g><g transform="translate(5,5) scale(1,1)"><path fill="none" stroke="#000000" d="M 106.36957465277777 47 L 126.36957465277777 47 L 126.36957465277777 57 L 106.36957465277777 57 L 106.36957465277777 47 Z Z" stroke-miterlimit="10"/></g><g transform="translate(5,5) scale(1,1)"><rect fill="#ffffff" stroke="none" x="106.36957465277777" y="67" width="20" height="10"/></g><g transform="translate(5,5) scale(1,1)"><path fill="none" stroke="#000000" d="M 106.36957465277777 67 L 126.36957465277777 67 L 126.36957465277777 77 L 106.36957465277777 77 L 106.36957465277777 67 Z Z" stroke-miterlimit="10"/></g><g transform="translate(5,5) scale(1,1)"><g><path fill="none" stroke="none"/><text fill="#000000" stroke="none" font-family="Arial" font-size="13px" font-style="normal" font-weight="bold" text-decoration="none" x="41.87646484375" y="99.5">Lifeline1: Cloudito_REST_API</text></g></g><g transform="translate(5,5) scale(1,1)"><path fill="none" stroke="#000000" d="M 129.5 105 L 129.5 192" stroke-miterlimit="10" stroke-dasharray="3"/></g><g transform="translate(5,5) scale(1,1)"><rect fill="#ffffff" stroke="none" x="465.53095160590277" y="40" width="34.44444444444446" height="40"/></g><g transform="translate(5,5) scale(1,1)"><path fill="none" stroke="#000000" d="M 465.53095160590277 40 L 499.97539605034723 40 L 499.97539605034723 80 L 465.53095160590277 80 L 465.53095160590277 40 Z Z" stroke-miterlimit="10"/></g><g transform="translate(5,5) scale(1,1)"><rect fill="#ffffff" stroke="none" x="455.53095160590277" y="47" width="20" height="10"/></g><g transform="translate(5,5) scale(1,1)"><path fill="none" stroke="#000000" d="M 455.53095160590277 47 L 475.53095160590277 47 L 475.53095160590277 57 L 455.53095160590277 57 L 455.53095160590277 47 Z Z" stroke-miterlimit="10"/></g><g transform="translate(5,5) scale(1,1)"><rect fill="#ffffff" stroke="none" x="455.53095160590277" y="67" width="20" height="10"/></g><g transform="translate(5,5) scale(1,1)"><path fill="none" stroke="#000000" d="M 455.53095160590277 67 L 475.53095160590277 67 L 475.53095160590277 77 L 455.53095160590277 77 L 455.53095160590277 67 Z Z" stroke-miterlimit="10"/></g><g transform="translate(5,5) scale(1,1)"><g><path fill="none" stroke="none"/><text fill="#000000" stroke="none" font-family="Arial" font-size="13px" font-style="normal" font-weight="bold" text-decoration="none" x="403.3173828125" y="99.5">Lifeline2: Cloudito_mobile</text></g></g><g transform="translate(5,5) scale(1,1)"><path fill="none" stroke="#000000" d="M 478.5 105 L 478.5 200" stroke-miterlimit="10" stroke-dasharray="3"/></g><g transform="translate(5,5) scale(1,1)"><path fill="none" stroke="#000000" d="M 129 136 L 471 136" stroke-miterlimit="10"/></g><g transform="translate(5,5) scale(1,1)"><path fill="#000000" stroke="none" d="M 460.83732514237585 140.209517756016 L 471 136 L 460.83732514237585 131.790482243984"/></g><g transform="translate(5,5) scale(1,1)"><path fill="none" stroke="#000000" d="M 460.83732514237585 140.209517756016 L 471 136 L 460.83732514237585 131.790482243984 L 460.83732514237585 140.209517756016" stroke-miterlimit="10"/></g><g transform="translate(5,5) scale(1,1)"><g><path fill="none" stroke="none"/><text fill="#000000" stroke="none" font-family="Arial" font-size="13px" font-style="normal" font-weight="normal" text-decoration="none" x="243.5" y="132.5">1 : send notification</text></g></g><g transform="translate(5,5) scale(1,1)"><rect fill="#ffffff" stroke="none" x="471" y="136" width="13" height="28"/></g><g transform="translate(5,5) scale(1,1)"><path fill="none" stroke="#000000" d="M 471 136 L 484 136 L 484 164 L 471 164 L 471 136 Z Z" stroke-miterlimit="10"/></g><g transform="translate(5,5) scale(1,1)"><path fill="none" stroke="#000000" d="M 484 144 L 514 144 L 514 164 L 491 164" stroke-miterlimit="10"/></g><g transform="translate(5,5) scale(1,1)"><path fill="#000000" stroke="none" d="M 501.16267485762415 159.790482243984 L 491 164 L 501.16267485762415 168.209517756016"/></g><g transform="translate(5,5) scale(1,1)"><path fill="none" stroke="#000000" d="M 501.16267485762415 159.790482243984 L 491 164 L 501.16267485762415 168.209517756016 L 501.16267485762415 159.790482243984" stroke-miterlimit="10"/></g><g transform="translate(5,5) scale(1,1)"><g><path fill="none" stroke="none"/><text fill="#000000" stroke="none" font-family="Arial" font-size="13px" font-style="normal" font-weight="normal" text-decoration="none" x="527.5" y="159.5">2 : ouverture de l activité</text></g></g><g transform="translate(5,5) scale(1,1)"><rect fill="#ffffff" stroke="none" x="478" y="164" width="13" height="28"/></g><g transform="translate(5,5) scale(1,1)"><path fill="none" stroke="#000000" d="M 478 164 L 491 164 L 491 192 L 478 192 L 478 164 Z Z" stroke-miterlimit="10"/></g></g></svg>