<svg version="1.1" xmlns="http://www.w3.org/2000/svg" xmlns:xlink="http://www.w3.org/1999/xlink" width="714" height="471"><defs/><g><g transform="translate(5,5) scale(1,1)"><path fill="none" stroke="#000000" d="M 5 5 L 699 5 L 699 456 L 5 456 L 5 5" stroke-miterlimit="10"/></g><g transform="translate(5,5) scale(1,1)"><path fill="#ffffff" stroke="none" d="M 5 5 L 5 27 L 278.00390625 27 L 289.00390625 16 L 289.00390625 5 L 5 5"/></g><g transform="translate(5,5) scale(1,1)"><path fill="none" stroke="#000000" d="M 5 5 L 5 27 L 278.00390625 27 L 289.00390625 16 L 289.00390625 5 L 5 5 L 5 5" stroke-miterlimit="10"/></g><g transform="translate(5,5) scale(1,1)"><g><path fill="none" stroke="none"/><text fill="#000000" stroke="none" font-family="Arial" font-size="13px" font-style="normal" font-weight="normal" text-decoration="none" x="75.97900390625" y="22.5">Visualiser son parcours sans back</text></g></g><g transform="translate(5,5) scale(1,1)"><g><path fill="none" stroke="none"/><text fill="#000000" stroke="none" font-family="Arial" font-size="13px" font-style="normal" font-weight="bold" text-decoration="none" x="10" y="22.5">interaction</text></g></g><g transform="translate(5,5) scale(1,1)"><rect fill="#ffffff" stroke="none" x="124.36957465277777" y="40" width="34.44444444444446" height="40"/></g><g transform="translate(5,5) scale(1,1)"><path fill="none" stroke="#000000" d="M 124.36957465277777 40 L 158.81401909722223 40 L 158.81401909722223 80 L 124.36957465277777 80 L 124.36957465277777 40 Z Z" stroke-miterlimit="10"/></g><g transform="translate(5,5) scale(1,1)"><rect fill="#ffffff" stroke="none" x="114.36957465277777" y="47" width="20" height="10"/></g><g transform="translate(5,5) scale(1,1)"><path fill="none" stroke="#000000" d="M 114.36957465277777 47 L 134.36957465277777 47 L 134.36957465277777 57 L 114.36957465277777 57 L 114.36957465277777 47 Z Z" stroke-miterlimit="10"/></g><g transform="translate(5,5) scale(1,1)"><rect fill="#ffffff" stroke="none" x="114.36957465277777" y="67" width="20" height="10"/></g><g transform="translate(5,5) scale(1,1)"><path fill="none" stroke="#000000" d="M 114.36957465277777 67 L 134.36957465277777 67 L 134.36957465277777 77 L 114.36957465277777 77 L 114.36957465277777 67 Z Z" stroke-miterlimit="10"/></g><g transform="translate(5,5) scale(1,1)"><g><path fill="none" stroke="none"/><text fill="#000000" stroke="none" font-family="Arial" font-size="13px" font-style="normal" font-weight="bold" text-decoration="none" x="49.87646484375" y="99.5">Lifeline1: Cloudito_REST_API</text></g></g><g transform="translate(5,5) scale(1,1)"><path fill="none" stroke="#000000" d="M 137.5 105 L 137.5 456" stroke-miterlimit="10" stroke-dasharray="3"/></g><g transform="translate(5,5) scale(1,1)"><rect fill="#ffffff" stroke="none" x="497.53095160590277" y="40" width="34.4444444444444" height="40"/></g><g transform="translate(5,5) scale(1,1)"><path fill="none" stroke="#000000" d="M 497.53095160590277 40 L 531.9753960503472 40 L 531.9753960503472 80 L 497.53095160590277 80 L 497.53095160590277 40 Z Z" stroke-miterlimit="10"/></g><g transform="translate(5,5) scale(1,1)"><rect fill="#ffffff" stroke="none" x="487.53095160590277" y="47" width="20" height="10"/></g><g transform="translate(5,5) scale(1,1)"><path fill="none" stroke="#000000" d="M 487.53095160590277 47 L 507.53095160590277 47 L 507.53095160590277 57 L 487.53095160590277 57 L 487.53095160590277 47 Z Z" stroke-miterlimit="10"/></g><g transform="translate(5,5) scale(1,1)"><rect fill="#ffffff" stroke="none" x="487.53095160590277" y="67" width="20" height="10"/></g><g transform="translate(5,5) scale(1,1)"><path fill="none" stroke="#000000" d="M 487.53095160590277 67 L 507.53095160590277 67 L 507.53095160590277 77 L 487.53095160590277 77 L 487.53095160590277 67 Z Z" stroke-miterlimit="10"/></g><g transform="translate(5,5) scale(1,1)"><g><path fill="none" stroke="none"/><text fill="#000000" stroke="none" font-family="Arial" font-size="13px" font-style="normal" font-weight="bold" text-decoration="none" x="435.3173828125" y="99.5">Lifeline2: Cloudito_mobile</text></g></g><g transform="translate(5,5) scale(1,1)"><path fill="none" stroke="#000000" d="M 510.5 105 L 510.5 448" stroke-miterlimit="10" stroke-dasharray="3"/></g><g transform="translate(5,5) scale(1,1)"><path fill="none" stroke="#000000" d="M 510 145 L 143 145" stroke-miterlimit="10"/></g><g transform="translate(5,5) scale(1,1)"><path fill="#000000" stroke="none" d="M 153.16267485762415 140.790482243984 L 143 145 L 153.16267485762415 149.209517756016"/></g><g transform="translate(5,5) scale(1,1)"><path fill="none" stroke="#000000" d="M 153.16267485762415 140.790482243984 L 143 145 L 153.16267485762415 149.209517756016 L 153.16267485762415 140.790482243984" stroke-miterlimit="10"/></g><g transform="translate(5,5) scale(1,1)"><g><path fill="none" stroke="none"/><text fill="#000000" stroke="none" font-family="Arial" font-size="13px" font-style="normal" font-weight="normal" text-decoration="none" x="252.5" y="161.5">1 : demande du parcours</text></g></g><g transform="translate(5,5) scale(1,1)"><rect fill="#ffffff" stroke="none" x="130" y="145" width="13" height="71"/></g><g transform="translate(5,5) scale(1,1)"><path fill="none" stroke="#000000" d="M 130 145 L 143 145 L 143 216 L 130 216 L 130 145 Z Z" stroke-miterlimit="10"/></g><g transform="translate(5,5) scale(1,1)"><path fill="none" stroke="#000000" d="M 143 208 L 503 208" stroke-miterlimit="10"/></g><g transform="translate(5,5) scale(1,1)"><path fill="#000000" stroke="none" d="M 492.83732514237585 212.209517756016 L 503 208 L 492.83732514237585 203.790482243984"/></g><g transform="translate(5,5) scale(1,1)"><path fill="none" stroke="#000000" d="M 492.83732514237585 212.209517756016 L 503 208 L 492.83732514237585 203.790482243984 L 492.83732514237585 212.209517756016" stroke-miterlimit="10"/></g><g transform="translate(5,5) scale(1,1)"><g><path fill="none" stroke="none"/><text fill="#000000" stroke="none" font-family="Arial" font-size="13px" font-style="normal" font-weight="normal" text-decoration="none" x="277.5" y="204.5">2 : error(404 ...)</text></g></g><g transform="translate(5,5) scale(1,1)"><rect fill="#ffffff" stroke="none" x="503" y="208" width="13" height="28"/></g><g transform="translate(5,5) scale(1,1)"><path fill="none" stroke="#000000" d="M 503 208 L 516 208 L 516 236 L 503 236 L 503 208 Z Z" stroke-miterlimit="10"/></g><g transform="translate(5,5) scale(1,1)"><path fill="none" stroke="#000000" d="M 510 272 L 540 272 L 540 292 L 516 292" stroke-miterlimit="10"/></g><g transform="translate(5,5) scale(1,1)"><path fill="#000000" stroke="none" d="M 526.1626748576241 287.790482243984 L 516 292 L 526.1626748576241 296.209517756016"/></g><g transform="translate(5,5) scale(1,1)"><path fill="none" stroke="#000000" d="M 526.1626748576241 287.790482243984 L 516 292 L 526.1626748576241 296.209517756016 L 526.1626748576241 287.790482243984" stroke-miterlimit="10"/></g><g transform="translate(5,5) scale(1,1)"><g><path fill="none" stroke="none"/><text fill="#000000" stroke="none" font-family="Arial" font-size="13px" font-style="normal" font-weight="normal" text-decoration="none" x="550.5" y="287.5">3 : lecture en base</text></g></g><g transform="translate(5,5) scale(1,1)"><rect fill="#ffffff" stroke="none" x="503" y="292" width="13" height="28"/></g><g transform="translate(5,5) scale(1,1)"><path fill="none" stroke="#000000" d="M 503 292 L 516 292 L 516 320 L 503 320 L 503 292 Z Z" stroke-miterlimit="10"/></g><g transform="translate(5,5) scale(1,1)"><path fill="none" stroke="#000000" d="M 510 368 L 540 368 L 540 388 L 516 388" stroke-miterlimit="10"/></g><g transform="translate(5,5) scale(1,1)"><path fill="#000000" stroke="none" d="M 526.1626748576241 383.790482243984 L 516 388 L 526.1626748576241 392.209517756016"/></g><g transform="translate(5,5) scale(1,1)"><path fill="none" stroke="#000000" d="M 526.1626748576241 383.790482243984 L 516 388 L 526.1626748576241 392.209517756016 L 526.1626748576241 383.790482243984" stroke-miterlimit="10"/></g><g transform="translate(5,5) scale(1,1)"><g><path fill="none" stroke="none"/><text fill="#000000" stroke="none" font-family="Arial" font-size="13px" font-style="normal" font-weight="normal" text-decoration="none" x="518.5" y="364.5">4 : retour à la page d accueil</text></g></g><g transform="translate(5,5) scale(1,1)"><rect fill="#ffffff" stroke="none" x="503" y="388" width="13" height="28"/></g><g transform="translate(5,5) scale(1,1)"><path fill="none" stroke="#000000" d="M 503 388 L 516 388 L 516 416 L 503 416 L 503 388 Z Z" stroke-miterlimit="10"/></g><g transform="translate(5,5) scale(1,1)"><path fill="none" stroke="#000000" d="M 72 232 L 688 232 L 688 440 L 72 440 L 72 232" stroke-miterlimit="10"/></g><g transform="translate(5,5) scale(1,1)"><path fill="#ffffff" stroke="none" d="M 72 232 L 72 254 L 246.259765625 254 L 257.259765625 243 L 257.259765625 232 L 72 232"/></g><g transform="translate(5,5) scale(1,1)"><path fill="none" stroke="#000000" d="M 72 232 L 72 254 L 246.259765625 254 L 257.259765625 243 L 257.259765625 232 L 72 232 L 72 232" stroke-miterlimit="10"/></g><g transform="translate(5,5) scale(1,1)"><g><path fill="none" stroke="none"/><text fill="#000000" stroke="none" font-family="Arial" font-size="13px" font-style="normal" font-weight="normal" text-decoration="none" x="96.72998046875" y="249.5">parcours dispo en local ?</text></g></g><g transform="translate(5,5) scale(1,1)"><g><path fill="none" stroke="none"/><text fill="#000000" stroke="none" font-family="Arial" font-size="13px" font-style="normal" font-weight="bold" text-decoration="none" x="77" y="249.5">alt</text></g></g><g transform="translate(5,5) scale(1,1)"><path fill="none" stroke="#000000" d="M 72 329 L 688 329" stroke-miterlimit="10" stroke-dasharray="10,3"/></g></g></svg>